%TF.GenerationSoftware,KiCad,Pcbnew,5.1.12-84ad8e8a86~92~ubuntu20.04.1*%
%TF.CreationDate,2021-11-09T18:46:58+01:00*%
%TF.ProjectId,VacuumPick,56616375-756d-4506-9963-6b2e6b696361,rev?*%
%TF.SameCoordinates,Original*%
%TF.FileFunction,Soldermask,Bot*%
%TF.FilePolarity,Negative*%
%FSLAX46Y46*%
G04 Gerber Fmt 4.6, Leading zero omitted, Abs format (unit mm)*
G04 Created by KiCad (PCBNEW 5.1.12-84ad8e8a86~92~ubuntu20.04.1) date 2021-11-09 18:46:58*
%MOMM*%
%LPD*%
G01*
G04 APERTURE LIST*
%ADD10C,0.880000*%
%ADD11C,4.700000*%
%ADD12C,4.500000*%
%ADD13C,0.100000*%
%ADD14O,4.000000X2.000000*%
%ADD15O,1.700000X1.700000*%
%ADD16R,1.700000X1.700000*%
%ADD17C,1.800000*%
%ADD18R,1.800000X1.800000*%
%ADD19C,1.600000*%
%ADD20R,1.600000X1.600000*%
G04 APERTURE END LIST*
D10*
%TO.C,G\u002A\u002A\u002A*%
X128788011Y-71880833D03*
%TD*%
D11*
%TO.C,H1*%
X133250000Y-88750000D03*
%TD*%
D12*
%TO.C,H4*%
X77400000Y-65500000D03*
%TD*%
%TO.C,H3*%
X77400000Y-88750000D03*
%TD*%
%TO.C,H2*%
X133250000Y-65750000D03*
%TD*%
D13*
%TO.C,M1*%
G36*
X107166911Y-87001900D02*
G01*
X108056832Y-86273583D01*
X108833315Y-85499882D01*
X109564820Y-84612585D01*
X109574672Y-84600803D01*
X109648107Y-84522336D01*
X109728850Y-84451411D01*
X109816127Y-84388702D01*
X109909106Y-84334809D01*
X110006902Y-84290248D01*
X110108579Y-84255440D01*
X110213166Y-84230723D01*
X110319668Y-84216328D01*
X110427065Y-84212396D01*
X110534334Y-84218961D01*
X110640450Y-84235964D01*
X110744401Y-84263241D01*
X110845193Y-84300531D01*
X110941867Y-84347479D01*
X111033496Y-84403636D01*
X111119208Y-84468466D01*
X111198186Y-84541352D01*
X111269674Y-84621596D01*
X111332991Y-84708434D01*
X111387530Y-84801035D01*
X111432774Y-84898518D01*
X111468289Y-84999949D01*
X111493737Y-85104362D01*
X111508875Y-85210760D01*
X111513557Y-85318128D01*
X111507740Y-85425439D01*
X111491478Y-85531671D01*
X111464929Y-85635810D01*
X111428343Y-85736860D01*
X111382072Y-85833859D01*
X111326555Y-85925878D01*
X111262325Y-86012041D01*
X110496598Y-86940848D01*
X110486746Y-86952630D01*
X110455239Y-86986297D01*
X110424265Y-87020332D01*
X109571557Y-87869985D01*
X109560602Y-87880750D01*
X109525977Y-87911165D01*
X109491814Y-87942031D01*
X108560265Y-88704418D01*
X108548311Y-88714062D01*
X108461034Y-88776771D01*
X108368053Y-88830664D01*
X108270258Y-88875226D01*
X108168581Y-88910032D01*
X108063992Y-88934749D01*
X107957491Y-88949144D01*
X107850095Y-88953077D01*
X107742825Y-88946510D01*
X107636709Y-88929508D01*
X107532759Y-88902232D01*
X107431967Y-88864941D01*
X107335294Y-88817994D01*
X107243664Y-88761837D01*
X107157951Y-88697006D01*
X107078974Y-88624121D01*
X107007486Y-88543876D01*
X106944170Y-88457039D01*
X106889629Y-88364437D01*
X106844386Y-88266955D01*
X106808871Y-88165523D01*
X106783423Y-88061109D01*
X106768286Y-87954712D01*
X106763602Y-87847345D01*
X106769420Y-87740033D01*
X106785681Y-87633801D01*
X106812231Y-87529663D01*
X106848817Y-87428612D01*
X106895088Y-87331614D01*
X106950605Y-87239594D01*
X107014835Y-87153431D01*
X107087168Y-87073947D01*
X107166911Y-87001900D01*
G37*
G36*
X93365765Y-68865198D02*
G01*
X92475844Y-69593515D01*
X91699361Y-70367216D01*
X90967856Y-71254513D01*
X90958004Y-71266295D01*
X90884569Y-71344762D01*
X90803826Y-71415687D01*
X90716549Y-71478396D01*
X90623570Y-71532289D01*
X90525774Y-71576850D01*
X90424097Y-71611658D01*
X90319510Y-71636375D01*
X90213008Y-71650770D01*
X90105611Y-71654702D01*
X89998342Y-71648137D01*
X89892226Y-71631134D01*
X89788275Y-71603857D01*
X89687483Y-71566567D01*
X89590809Y-71519619D01*
X89499180Y-71463462D01*
X89413468Y-71398632D01*
X89334490Y-71325746D01*
X89263002Y-71245502D01*
X89199685Y-71158664D01*
X89145146Y-71066063D01*
X89099902Y-70968580D01*
X89064387Y-70867149D01*
X89038939Y-70762736D01*
X89023801Y-70656338D01*
X89019119Y-70548970D01*
X89024936Y-70441659D01*
X89041198Y-70335427D01*
X89067747Y-70231288D01*
X89104333Y-70130238D01*
X89150604Y-70033239D01*
X89206121Y-69941220D01*
X89270351Y-69855057D01*
X90036078Y-68926250D01*
X90045930Y-68914468D01*
X90077437Y-68880801D01*
X90108411Y-68846766D01*
X90961119Y-67997113D01*
X90972074Y-67986348D01*
X91006699Y-67955933D01*
X91040862Y-67925067D01*
X91972411Y-67162680D01*
X91984365Y-67153036D01*
X92071642Y-67090327D01*
X92164623Y-67036434D01*
X92262418Y-66991872D01*
X92364095Y-66957066D01*
X92468684Y-66932349D01*
X92575185Y-66917954D01*
X92682581Y-66914021D01*
X92789851Y-66920588D01*
X92895967Y-66937590D01*
X92999917Y-66964866D01*
X93100709Y-67002157D01*
X93197382Y-67049104D01*
X93289012Y-67105261D01*
X93374725Y-67170092D01*
X93453702Y-67242977D01*
X93525190Y-67323222D01*
X93588506Y-67410059D01*
X93643047Y-67502661D01*
X93688290Y-67600143D01*
X93723805Y-67701575D01*
X93749253Y-67805989D01*
X93764390Y-67912386D01*
X93769074Y-68019753D01*
X93763256Y-68127065D01*
X93746995Y-68233297D01*
X93720445Y-68337435D01*
X93683859Y-68438486D01*
X93637588Y-68535484D01*
X93582071Y-68627504D01*
X93517841Y-68713667D01*
X93445508Y-68793151D01*
X93365765Y-68865198D01*
G37*
G36*
X109588689Y-71286976D02*
G01*
X108860372Y-70397055D01*
X108086671Y-69620572D01*
X107199374Y-68889067D01*
X107187592Y-68879215D01*
X107109125Y-68805780D01*
X107038200Y-68725037D01*
X106975491Y-68637760D01*
X106921598Y-68544781D01*
X106877037Y-68446985D01*
X106842229Y-68345308D01*
X106817512Y-68240721D01*
X106803117Y-68134219D01*
X106799185Y-68026822D01*
X106805750Y-67919553D01*
X106822753Y-67813437D01*
X106850030Y-67709486D01*
X106887320Y-67608694D01*
X106934268Y-67512020D01*
X106990425Y-67420391D01*
X107055255Y-67334679D01*
X107128141Y-67255701D01*
X107208385Y-67184213D01*
X107295223Y-67120896D01*
X107387824Y-67066357D01*
X107485307Y-67021113D01*
X107586738Y-66985598D01*
X107691151Y-66960150D01*
X107797549Y-66945012D01*
X107904917Y-66940330D01*
X108012228Y-66946147D01*
X108118460Y-66962409D01*
X108222599Y-66988958D01*
X108323649Y-67025544D01*
X108420648Y-67071815D01*
X108512667Y-67127332D01*
X108598830Y-67191562D01*
X109527637Y-67957289D01*
X109539419Y-67967141D01*
X109573086Y-67998648D01*
X109607121Y-68029622D01*
X110456774Y-68882330D01*
X110467539Y-68893285D01*
X110497954Y-68927910D01*
X110528820Y-68962073D01*
X111291207Y-69893622D01*
X111300851Y-69905576D01*
X111363560Y-69992853D01*
X111417453Y-70085834D01*
X111462015Y-70183629D01*
X111496821Y-70285306D01*
X111521538Y-70389895D01*
X111535933Y-70496396D01*
X111539866Y-70603792D01*
X111533299Y-70711062D01*
X111516297Y-70817178D01*
X111489021Y-70921128D01*
X111451730Y-71021920D01*
X111404783Y-71118593D01*
X111348626Y-71210223D01*
X111283795Y-71295936D01*
X111210910Y-71374913D01*
X111130665Y-71446401D01*
X111043828Y-71509717D01*
X110951226Y-71564258D01*
X110853744Y-71609501D01*
X110752312Y-71645016D01*
X110647898Y-71670464D01*
X110541501Y-71685601D01*
X110434134Y-71690285D01*
X110326822Y-71684467D01*
X110220590Y-71668206D01*
X110116452Y-71641656D01*
X110015401Y-71605070D01*
X109918403Y-71558799D01*
X109826383Y-71503282D01*
X109740220Y-71439052D01*
X109660736Y-71366719D01*
X109588689Y-71286976D01*
G37*
G36*
X90943987Y-84580122D02*
G01*
X91672304Y-85470043D01*
X92446005Y-86246526D01*
X93333302Y-86978031D01*
X93345084Y-86987883D01*
X93423551Y-87061318D01*
X93494476Y-87142061D01*
X93557185Y-87229338D01*
X93611078Y-87322317D01*
X93655639Y-87420113D01*
X93690447Y-87521790D01*
X93715164Y-87626377D01*
X93729559Y-87732879D01*
X93733491Y-87840276D01*
X93726926Y-87947545D01*
X93709923Y-88053661D01*
X93682646Y-88157612D01*
X93645356Y-88258404D01*
X93598408Y-88355078D01*
X93542251Y-88446707D01*
X93477421Y-88532419D01*
X93404535Y-88611397D01*
X93324291Y-88682885D01*
X93237453Y-88746202D01*
X93144852Y-88800741D01*
X93047369Y-88845985D01*
X92945938Y-88881500D01*
X92841525Y-88906948D01*
X92735127Y-88922086D01*
X92627759Y-88926768D01*
X92520448Y-88920951D01*
X92414216Y-88904689D01*
X92310077Y-88878140D01*
X92209027Y-88841554D01*
X92112028Y-88795283D01*
X92020009Y-88739766D01*
X91933846Y-88675536D01*
X91005039Y-87909809D01*
X90993257Y-87899957D01*
X90959590Y-87868450D01*
X90925555Y-87837476D01*
X90075902Y-86984768D01*
X90065137Y-86973813D01*
X90034722Y-86939188D01*
X90003856Y-86905025D01*
X89241469Y-85973476D01*
X89231825Y-85961522D01*
X89169116Y-85874245D01*
X89115223Y-85781264D01*
X89070661Y-85683469D01*
X89035855Y-85581792D01*
X89011138Y-85477203D01*
X88996743Y-85370702D01*
X88992810Y-85263306D01*
X88999377Y-85156036D01*
X89016379Y-85049920D01*
X89043655Y-84945970D01*
X89080946Y-84845178D01*
X89127893Y-84748505D01*
X89184050Y-84656875D01*
X89248881Y-84571162D01*
X89321766Y-84492185D01*
X89402011Y-84420697D01*
X89488848Y-84357381D01*
X89581450Y-84302840D01*
X89678932Y-84257597D01*
X89780364Y-84222082D01*
X89884778Y-84196634D01*
X89991175Y-84181497D01*
X90098542Y-84176813D01*
X90205854Y-84182631D01*
X90312086Y-84198892D01*
X90416224Y-84225442D01*
X90517275Y-84262028D01*
X90614273Y-84308299D01*
X90706293Y-84363816D01*
X90792456Y-84428046D01*
X90871940Y-84500379D01*
X90943987Y-84580122D01*
G37*
G36*
X101978794Y-66334568D02*
G01*
X100834527Y-66220297D01*
X99738381Y-66218330D01*
X98593715Y-66328491D01*
X98578417Y-66329856D01*
X98471006Y-66333414D01*
X98363761Y-66326472D01*
X98257705Y-66309100D01*
X98153851Y-66281461D01*
X98053189Y-66243819D01*
X97956680Y-66196535D01*
X97865248Y-66140058D01*
X97779761Y-66074929D01*
X97701039Y-66001768D01*
X97629831Y-65921275D01*
X97566819Y-65834217D01*
X97512602Y-65741425D01*
X97467699Y-65643786D01*
X97432538Y-65542230D01*
X97407455Y-65437730D01*
X97392689Y-65331280D01*
X97388382Y-65223896D01*
X97394573Y-65116605D01*
X97411205Y-65010430D01*
X97438119Y-64906386D01*
X97475057Y-64805463D01*
X97521667Y-64708627D01*
X97577503Y-64616802D01*
X97642034Y-64530863D01*
X97714644Y-64451632D01*
X97794638Y-64379865D01*
X97881254Y-64316246D01*
X97973665Y-64261382D01*
X98070988Y-64215799D01*
X98172295Y-64179929D01*
X98276619Y-64154118D01*
X98382963Y-64138609D01*
X99581179Y-64023294D01*
X99596477Y-64021929D01*
X99642561Y-64020402D01*
X99688530Y-64018237D01*
X100892281Y-64020398D01*
X100907639Y-64020532D01*
X100953630Y-64023509D01*
X100999612Y-64025840D01*
X102197406Y-64145456D01*
X102212678Y-64147089D01*
X102318734Y-64164462D01*
X102422589Y-64192101D01*
X102523251Y-64229742D01*
X102619759Y-64277027D01*
X102711192Y-64333505D01*
X102796678Y-64398634D01*
X102875400Y-64471794D01*
X102946608Y-64552288D01*
X103009621Y-64639346D01*
X103063838Y-64732137D01*
X103108740Y-64829776D01*
X103143901Y-64931331D01*
X103168984Y-65035832D01*
X103183750Y-65142283D01*
X103188058Y-65249666D01*
X103181866Y-65356957D01*
X103165234Y-65463131D01*
X103138321Y-65567177D01*
X103101382Y-65668099D01*
X103054772Y-65764935D01*
X102998935Y-65856761D01*
X102934404Y-65942699D01*
X102861796Y-66021930D01*
X102781801Y-66093698D01*
X102695185Y-66157317D01*
X102602775Y-66212180D01*
X102505451Y-66257763D01*
X102404144Y-66293633D01*
X102299820Y-66319444D01*
X102193476Y-66334953D01*
X102086125Y-66340010D01*
X101978794Y-66334568D01*
G37*
G36*
X88921357Y-76475093D02*
G01*
X88807086Y-77619360D01*
X88805119Y-78715506D01*
X88915280Y-79860172D01*
X88916645Y-79875470D01*
X88920203Y-79982881D01*
X88913261Y-80090126D01*
X88895889Y-80196182D01*
X88868250Y-80300036D01*
X88830608Y-80400698D01*
X88783324Y-80497207D01*
X88726847Y-80588639D01*
X88661718Y-80674126D01*
X88588557Y-80752848D01*
X88508064Y-80824056D01*
X88421006Y-80887068D01*
X88328214Y-80941285D01*
X88230575Y-80986188D01*
X88129019Y-81021349D01*
X88024519Y-81046432D01*
X87918069Y-81061198D01*
X87810685Y-81065505D01*
X87703394Y-81059314D01*
X87597219Y-81042682D01*
X87493175Y-81015768D01*
X87392252Y-80978830D01*
X87295416Y-80932220D01*
X87203591Y-80876384D01*
X87117652Y-80811853D01*
X87038421Y-80739243D01*
X86966654Y-80659249D01*
X86903035Y-80572633D01*
X86848171Y-80480222D01*
X86802588Y-80382899D01*
X86766718Y-80281592D01*
X86740907Y-80177268D01*
X86725398Y-80070924D01*
X86610083Y-78872708D01*
X86608718Y-78857410D01*
X86607191Y-78811326D01*
X86605026Y-78765357D01*
X86607187Y-77561606D01*
X86607321Y-77546248D01*
X86610298Y-77500257D01*
X86612629Y-77454275D01*
X86732245Y-76256481D01*
X86733878Y-76241209D01*
X86751251Y-76135153D01*
X86778890Y-76031298D01*
X86816531Y-75930636D01*
X86863816Y-75834128D01*
X86920294Y-75742695D01*
X86985423Y-75657209D01*
X87058583Y-75578487D01*
X87139077Y-75507279D01*
X87226135Y-75444266D01*
X87318926Y-75390049D01*
X87416565Y-75345147D01*
X87518120Y-75309986D01*
X87622621Y-75284903D01*
X87729072Y-75270137D01*
X87836455Y-75265829D01*
X87943746Y-75272021D01*
X88049920Y-75288653D01*
X88153966Y-75315566D01*
X88254888Y-75352505D01*
X88351724Y-75399115D01*
X88443550Y-75454952D01*
X88529488Y-75519483D01*
X88608719Y-75592091D01*
X88680487Y-75672086D01*
X88744106Y-75758702D01*
X88798969Y-75851112D01*
X88844552Y-75948436D01*
X88880422Y-76049743D01*
X88906233Y-76154067D01*
X88921742Y-76260411D01*
X88926799Y-76367762D01*
X88921357Y-76475093D01*
G37*
G36*
X111611319Y-79900005D02*
G01*
X111725590Y-78755738D01*
X111727557Y-77659592D01*
X111617396Y-76514926D01*
X111616031Y-76499628D01*
X111612473Y-76392217D01*
X111619415Y-76284972D01*
X111636787Y-76178916D01*
X111664426Y-76075062D01*
X111702068Y-75974400D01*
X111749352Y-75877891D01*
X111805829Y-75786459D01*
X111870958Y-75700972D01*
X111944119Y-75622250D01*
X112024612Y-75551042D01*
X112111670Y-75488030D01*
X112204462Y-75433813D01*
X112302101Y-75388910D01*
X112403657Y-75353749D01*
X112508157Y-75328666D01*
X112614607Y-75313900D01*
X112721991Y-75309593D01*
X112829282Y-75315784D01*
X112935457Y-75332416D01*
X113039501Y-75359330D01*
X113140424Y-75396268D01*
X113237260Y-75442878D01*
X113329085Y-75498714D01*
X113415024Y-75563245D01*
X113494255Y-75635855D01*
X113566022Y-75715849D01*
X113629641Y-75802465D01*
X113684505Y-75894876D01*
X113730088Y-75992199D01*
X113765958Y-76093506D01*
X113791769Y-76197830D01*
X113807278Y-76304174D01*
X113922593Y-77502390D01*
X113923958Y-77517688D01*
X113925485Y-77563772D01*
X113927650Y-77609741D01*
X113925489Y-78813492D01*
X113925355Y-78828850D01*
X113922378Y-78874841D01*
X113920047Y-78920823D01*
X113800431Y-80118617D01*
X113798798Y-80133889D01*
X113781425Y-80239945D01*
X113753786Y-80343800D01*
X113716145Y-80444462D01*
X113668860Y-80540970D01*
X113612382Y-80632403D01*
X113547253Y-80717889D01*
X113474093Y-80796611D01*
X113393599Y-80867819D01*
X113306541Y-80930832D01*
X113213750Y-80985049D01*
X113116111Y-81029951D01*
X113014556Y-81065112D01*
X112910055Y-81090195D01*
X112803604Y-81104961D01*
X112696221Y-81109269D01*
X112588930Y-81103077D01*
X112482756Y-81086445D01*
X112378710Y-81059532D01*
X112277788Y-81022593D01*
X112180952Y-80975983D01*
X112089126Y-80920146D01*
X112003188Y-80855615D01*
X111923957Y-80783007D01*
X111852189Y-80703012D01*
X111788570Y-80616396D01*
X111733707Y-80523986D01*
X111688124Y-80426662D01*
X111652254Y-80325355D01*
X111626443Y-80221031D01*
X111610934Y-80114687D01*
X111605877Y-80007336D01*
X111611319Y-79900005D01*
G37*
G36*
X98553882Y-89278530D02*
G01*
X99698149Y-89392801D01*
X100794295Y-89394768D01*
X101938961Y-89284607D01*
X101954259Y-89283242D01*
X102061670Y-89279684D01*
X102168915Y-89286626D01*
X102274971Y-89303998D01*
X102378825Y-89331637D01*
X102479487Y-89369279D01*
X102575996Y-89416563D01*
X102667428Y-89473040D01*
X102752915Y-89538169D01*
X102831637Y-89611330D01*
X102902845Y-89691823D01*
X102965857Y-89778881D01*
X103020074Y-89871673D01*
X103064977Y-89969312D01*
X103100138Y-90070868D01*
X103125221Y-90175368D01*
X103139987Y-90281818D01*
X103144294Y-90389202D01*
X103138103Y-90496493D01*
X103121471Y-90602668D01*
X103094557Y-90706712D01*
X103057619Y-90807635D01*
X103011009Y-90904471D01*
X102955173Y-90996296D01*
X102890642Y-91082235D01*
X102818032Y-91161466D01*
X102738038Y-91233233D01*
X102651422Y-91296852D01*
X102559011Y-91351716D01*
X102461688Y-91397299D01*
X102360381Y-91433169D01*
X102256057Y-91458980D01*
X102149713Y-91474489D01*
X100951497Y-91589804D01*
X100936199Y-91591169D01*
X100890115Y-91592696D01*
X100844146Y-91594861D01*
X99640395Y-91592700D01*
X99625037Y-91592566D01*
X99579046Y-91589589D01*
X99533064Y-91587258D01*
X98335270Y-91467642D01*
X98319998Y-91466009D01*
X98213942Y-91448636D01*
X98110087Y-91420997D01*
X98009425Y-91383356D01*
X97912917Y-91336071D01*
X97821484Y-91279593D01*
X97735998Y-91214464D01*
X97657276Y-91141304D01*
X97586068Y-91060810D01*
X97523055Y-90973752D01*
X97468838Y-90880961D01*
X97423936Y-90783322D01*
X97388775Y-90681767D01*
X97363692Y-90577266D01*
X97348926Y-90470815D01*
X97344618Y-90363432D01*
X97350810Y-90256141D01*
X97367442Y-90149967D01*
X97394355Y-90045921D01*
X97431294Y-89944999D01*
X97477904Y-89848163D01*
X97533741Y-89756337D01*
X97598272Y-89670399D01*
X97670880Y-89591168D01*
X97750875Y-89519400D01*
X97837491Y-89455781D01*
X97929901Y-89400918D01*
X98027225Y-89355335D01*
X98128532Y-89319465D01*
X98232856Y-89293654D01*
X98339200Y-89278145D01*
X98446551Y-89273088D01*
X98553882Y-89278530D01*
G37*
D14*
X91391338Y-77933549D03*
G36*
G01*
X111141338Y-77433549D02*
X111141338Y-78433549D01*
G75*
G02*
X110641338Y-78933549I-500000J0D01*
G01*
X107641338Y-78933549D01*
G75*
G02*
X107141338Y-78433549I0J500000D01*
G01*
X107141338Y-77433549D01*
G75*
G02*
X107641338Y-76933549I500000J0D01*
G01*
X110641338Y-76933549D01*
G75*
G02*
X111141338Y-77433549I0J-500000D01*
G01*
G37*
%TD*%
D15*
%TO.C,J14*%
X116800000Y-75420000D03*
X116800000Y-77960000D03*
X116800000Y-80500000D03*
D16*
X116800000Y-83040000D03*
%TD*%
D15*
%TO.C,J13*%
X120700000Y-75420000D03*
X120700000Y-77960000D03*
X120700000Y-80500000D03*
D16*
X120700000Y-83040000D03*
%TD*%
D15*
%TO.C,J9*%
X110420000Y-90400000D03*
X112960000Y-90400000D03*
D16*
X115500000Y-90400000D03*
%TD*%
D17*
%TO.C,J12*%
X105060000Y-65200000D03*
X107600000Y-65200000D03*
D18*
X110140000Y-65200000D03*
%TD*%
D17*
%TO.C,J11*%
X113760000Y-65200000D03*
X116300000Y-65200000D03*
D18*
X118840000Y-65200000D03*
%TD*%
D17*
%TO.C,J10*%
X122460000Y-65200000D03*
X125000000Y-65200000D03*
D18*
X127540000Y-65200000D03*
%TD*%
D17*
%TO.C,J8*%
X128040000Y-89000000D03*
X125500000Y-89000000D03*
D18*
X122960000Y-89000000D03*
%TD*%
D17*
%TO.C,J7*%
X133000000Y-76540000D03*
X133000000Y-74000000D03*
D18*
X133000000Y-71460000D03*
%TD*%
D17*
%TO.C,J6*%
X133000000Y-83270000D03*
D18*
X133000000Y-80730000D03*
%TD*%
D17*
%TO.C,J4*%
X72620000Y-84450000D03*
D18*
X70080000Y-84450000D03*
%TD*%
D17*
%TO.C,J3*%
X72620000Y-77950000D03*
D18*
X70080000Y-77950000D03*
%TD*%
D17*
%TO.C,J2*%
X72620000Y-71500000D03*
D18*
X70080000Y-71500000D03*
%TD*%
D17*
%TO.C,J1*%
X91130000Y-65200000D03*
D18*
X93670000Y-65200000D03*
%TD*%
D19*
%TO.C,C1*%
X85250000Y-66000000D03*
D20*
X85250000Y-68500000D03*
%TD*%
M02*
