%TF.GenerationSoftware,KiCad,Pcbnew,5.1.12-84ad8e8a86~92~ubuntu20.04.1*%
%TF.CreationDate,2021-11-09T18:46:58+01:00*%
%TF.ProjectId,VacuumPick,56616375-756d-4506-9963-6b2e6b696361,rev?*%
%TF.SameCoordinates,Original*%
%TF.FileFunction,Legend,Bot*%
%TF.FilePolarity,Positive*%
%FSLAX46Y46*%
G04 Gerber Fmt 4.6, Leading zero omitted, Abs format (unit mm)*
G04 Created by KiCad (PCBNEW 5.1.12-84ad8e8a86~92~ubuntu20.04.1) date 2021-11-09 18:46:58*
%MOMM*%
%LPD*%
G01*
G04 APERTURE LIST*
%ADD10C,0.150000*%
%ADD11C,0.002540*%
%ADD12C,0.010000*%
G04 APERTURE END LIST*
D10*
X104295238Y-69361904D02*
X104295238Y-69933333D01*
X104333333Y-70047619D01*
X104409523Y-70123809D01*
X104523809Y-70161904D01*
X104600000Y-70161904D01*
X103533333Y-70161904D02*
X103914285Y-70161904D01*
X103914285Y-69361904D01*
X102809523Y-70085714D02*
X102847619Y-70123809D01*
X102961904Y-70161904D01*
X103038095Y-70161904D01*
X103152380Y-70123809D01*
X103228571Y-70047619D01*
X103266666Y-69971428D01*
X103304761Y-69819047D01*
X103304761Y-69704761D01*
X103266666Y-69552380D01*
X103228571Y-69476190D01*
X103152380Y-69400000D01*
X103038095Y-69361904D01*
X102961904Y-69361904D01*
X102847619Y-69400000D01*
X102809523Y-69438095D01*
X102238095Y-69361904D02*
X102238095Y-69933333D01*
X102276190Y-70047619D01*
X102352380Y-70123809D01*
X102466666Y-70161904D01*
X102542857Y-70161904D01*
X101476190Y-70161904D02*
X101857142Y-70161904D01*
X101857142Y-69361904D01*
X100752380Y-70085714D02*
X100790476Y-70123809D01*
X100904761Y-70161904D01*
X100980952Y-70161904D01*
X101095238Y-70123809D01*
X101171428Y-70047619D01*
X101209523Y-69971428D01*
X101247619Y-69819047D01*
X101247619Y-69704761D01*
X101209523Y-69552380D01*
X101171428Y-69476190D01*
X101095238Y-69400000D01*
X100980952Y-69361904D01*
X100904761Y-69361904D01*
X100790476Y-69400000D01*
X100752380Y-69438095D01*
X100180952Y-69361904D02*
X100180952Y-69933333D01*
X100219047Y-70047619D01*
X100295238Y-70123809D01*
X100409523Y-70161904D01*
X100485714Y-70161904D01*
X99419047Y-70161904D02*
X99800000Y-70161904D01*
X99800000Y-69361904D01*
X98695238Y-70085714D02*
X98733333Y-70123809D01*
X98847619Y-70161904D01*
X98923809Y-70161904D01*
X99038095Y-70123809D01*
X99114285Y-70047619D01*
X99152380Y-69971428D01*
X99190476Y-69819047D01*
X99190476Y-69704761D01*
X99152380Y-69552380D01*
X99114285Y-69476190D01*
X99038095Y-69400000D01*
X98923809Y-69361904D01*
X98847619Y-69361904D01*
X98733333Y-69400000D01*
X98695238Y-69438095D01*
X98123809Y-69361904D02*
X98123809Y-69933333D01*
X98161904Y-70047619D01*
X98238095Y-70123809D01*
X98352380Y-70161904D01*
X98428571Y-70161904D01*
X97361904Y-70161904D02*
X97742857Y-70161904D01*
X97742857Y-69361904D01*
X96638095Y-70085714D02*
X96676190Y-70123809D01*
X96790476Y-70161904D01*
X96866666Y-70161904D01*
X96980952Y-70123809D01*
X97057142Y-70047619D01*
X97095238Y-69971428D01*
X97133333Y-69819047D01*
X97133333Y-69704761D01*
X97095238Y-69552380D01*
X97057142Y-69476190D01*
X96980952Y-69400000D01*
X96866666Y-69361904D01*
X96790476Y-69361904D01*
X96676190Y-69400000D01*
X96638095Y-69438095D01*
X136083333Y-81085714D02*
X136116666Y-81123809D01*
X136216666Y-81161904D01*
X136283333Y-81161904D01*
X136383333Y-81123809D01*
X136450000Y-81047619D01*
X136483333Y-80971428D01*
X136516666Y-80819047D01*
X136516666Y-80704761D01*
X136483333Y-80552380D01*
X136450000Y-80476190D01*
X136383333Y-80400000D01*
X136283333Y-80361904D01*
X136216666Y-80361904D01*
X136116666Y-80400000D01*
X136083333Y-80438095D01*
X135883333Y-80361904D02*
X135483333Y-80361904D01*
X135683333Y-81161904D02*
X135683333Y-80361904D01*
X134850000Y-81161904D02*
X135083333Y-80780952D01*
X135250000Y-81161904D02*
X135250000Y-80361904D01*
X134983333Y-80361904D01*
X134916666Y-80400000D01*
X134883333Y-80438095D01*
X134850000Y-80514285D01*
X134850000Y-80628571D01*
X134883333Y-80704761D01*
X134916666Y-80742857D01*
X134983333Y-80780952D01*
X135250000Y-80780952D01*
X134216666Y-81161904D02*
X134550000Y-81161904D01*
X134550000Y-80361904D01*
X135809523Y-83000000D02*
X135885714Y-82961904D01*
X136000000Y-82961904D01*
X136114285Y-83000000D01*
X136190476Y-83076190D01*
X136228571Y-83152380D01*
X136266666Y-83304761D01*
X136266666Y-83419047D01*
X136228571Y-83571428D01*
X136190476Y-83647619D01*
X136114285Y-83723809D01*
X136000000Y-83761904D01*
X135923809Y-83761904D01*
X135809523Y-83723809D01*
X135771428Y-83685714D01*
X135771428Y-83419047D01*
X135923809Y-83419047D01*
X135428571Y-83761904D02*
X135428571Y-82961904D01*
X134971428Y-83761904D01*
X134971428Y-82961904D01*
X134590476Y-83761904D02*
X134590476Y-82961904D01*
X134400000Y-82961904D01*
X134285714Y-83000000D01*
X134209523Y-83076190D01*
X134171428Y-83152380D01*
X134133333Y-83304761D01*
X134133333Y-83419047D01*
X134171428Y-83571428D01*
X134209523Y-83647619D01*
X134285714Y-83723809D01*
X134400000Y-83761904D01*
X134590476Y-83761904D01*
X135809523Y-76200000D02*
X135885714Y-76161904D01*
X136000000Y-76161904D01*
X136114285Y-76200000D01*
X136190476Y-76276190D01*
X136228571Y-76352380D01*
X136266666Y-76504761D01*
X136266666Y-76619047D01*
X136228571Y-76771428D01*
X136190476Y-76847619D01*
X136114285Y-76923809D01*
X136000000Y-76961904D01*
X135923809Y-76961904D01*
X135809523Y-76923809D01*
X135771428Y-76885714D01*
X135771428Y-76619047D01*
X135923809Y-76619047D01*
X135428571Y-76961904D02*
X135428571Y-76161904D01*
X134971428Y-76961904D01*
X134971428Y-76161904D01*
X134590476Y-76961904D02*
X134590476Y-76161904D01*
X134400000Y-76161904D01*
X134285714Y-76200000D01*
X134209523Y-76276190D01*
X134171428Y-76352380D01*
X134133333Y-76504761D01*
X134133333Y-76619047D01*
X134171428Y-76771428D01*
X134209523Y-76847619D01*
X134285714Y-76923809D01*
X134400000Y-76961904D01*
X134590476Y-76961904D01*
X136083333Y-74385714D02*
X136116666Y-74423809D01*
X136216666Y-74461904D01*
X136283333Y-74461904D01*
X136383333Y-74423809D01*
X136450000Y-74347619D01*
X136483333Y-74271428D01*
X136516666Y-74119047D01*
X136516666Y-74004761D01*
X136483333Y-73852380D01*
X136450000Y-73776190D01*
X136383333Y-73700000D01*
X136283333Y-73661904D01*
X136216666Y-73661904D01*
X136116666Y-73700000D01*
X136083333Y-73738095D01*
X135883333Y-73661904D02*
X135483333Y-73661904D01*
X135683333Y-74461904D02*
X135683333Y-73661904D01*
X134850000Y-74461904D02*
X135083333Y-74080952D01*
X135250000Y-74461904D02*
X135250000Y-73661904D01*
X134983333Y-73661904D01*
X134916666Y-73700000D01*
X134883333Y-73738095D01*
X134850000Y-73814285D01*
X134850000Y-73928571D01*
X134883333Y-74004761D01*
X134916666Y-74042857D01*
X134983333Y-74080952D01*
X135250000Y-74080952D01*
X134216666Y-74461904D02*
X134550000Y-74461904D01*
X134550000Y-73661904D01*
X135452380Y-71061904D02*
X135833333Y-71061904D01*
X135871428Y-71442857D01*
X135833333Y-71404761D01*
X135757142Y-71366666D01*
X135566666Y-71366666D01*
X135490476Y-71404761D01*
X135452380Y-71442857D01*
X135414285Y-71519047D01*
X135414285Y-71709523D01*
X135452380Y-71785714D01*
X135490476Y-71823809D01*
X135566666Y-71861904D01*
X135757142Y-71861904D01*
X135833333Y-71823809D01*
X135871428Y-71785714D01*
X135185714Y-71061904D02*
X134919047Y-71861904D01*
X134652380Y-71061904D01*
D11*
%TO.C,G\u002A\u002A\u002A*%
G36*
X71269796Y-80360693D02*
G01*
X71366782Y-80410983D01*
X71596677Y-80507970D01*
X71923558Y-80637285D01*
X72324078Y-80793542D01*
X72543196Y-80876160D01*
X72995801Y-81052173D01*
X73421465Y-81233574D01*
X73777083Y-81402403D01*
X74026734Y-81537107D01*
X74084208Y-81576620D01*
X74441622Y-81779574D01*
X74772095Y-81837048D01*
X75027135Y-81872969D01*
X75262417Y-81978936D01*
X75524641Y-82169317D01*
X75659345Y-82282468D01*
X75770700Y-82393823D01*
X75871279Y-82523139D01*
X75970062Y-82697356D01*
X76085009Y-82941619D01*
X76226897Y-83281073D01*
X76406502Y-83737270D01*
X76541206Y-84083908D01*
X76785469Y-84705341D01*
X76979442Y-85183091D01*
X77124923Y-85533321D01*
X77236278Y-85770400D01*
X77317100Y-85908696D01*
X77374574Y-85966169D01*
X77415883Y-85957189D01*
X77417679Y-85955393D01*
X77458988Y-85856610D01*
X77532626Y-85628512D01*
X77633205Y-85301630D01*
X77748152Y-84906499D01*
X77769705Y-84827473D01*
X77945718Y-84206039D01*
X78087606Y-83686980D01*
X78218718Y-83207435D01*
X78349829Y-82702744D01*
X78500698Y-82113639D01*
X78504290Y-82106455D01*
X78599481Y-81723896D01*
X78694671Y-81355706D01*
X78768309Y-81066542D01*
X78777290Y-81028825D01*
X78928158Y-80662430D01*
X79215526Y-80202641D01*
X79364598Y-79999687D01*
X79583717Y-79690766D01*
X79765118Y-79408786D01*
X79878269Y-79195056D01*
X79901618Y-79128602D01*
X79937539Y-79017247D01*
X80009381Y-78931037D01*
X80154861Y-78850214D01*
X80404512Y-78755024D01*
X80661347Y-78667017D01*
X81056479Y-78519741D01*
X81322294Y-78386833D01*
X81439038Y-78280866D01*
X81478551Y-78083301D01*
X81424669Y-77853406D01*
X81270209Y-77569630D01*
X81000801Y-77214012D01*
X80611058Y-76770387D01*
X80605670Y-76764999D01*
X80235683Y-76351907D01*
X79984236Y-76025026D01*
X79844144Y-75762802D01*
X79806427Y-75545480D01*
X79860309Y-75347915D01*
X79998604Y-75144961D01*
X80011177Y-75132388D01*
X80217723Y-74933027D01*
X80418880Y-74846816D01*
X80641591Y-74879145D01*
X80916387Y-75035402D01*
X81270209Y-75317382D01*
X81272005Y-75319178D01*
X81839557Y-75807704D01*
X81345643Y-76218999D01*
X81094196Y-76430933D01*
X80954104Y-76571025D01*
X80896630Y-76675196D01*
X80900222Y-76775775D01*
X80912795Y-76827861D01*
X81042110Y-77036203D01*
X81280985Y-77253525D01*
X81588110Y-77481623D01*
X82058675Y-77011058D01*
X82333471Y-76750631D01*
X82545405Y-76614131D01*
X82741175Y-76601558D01*
X82963885Y-76705729D01*
X83263826Y-76923051D01*
X83269214Y-76928440D01*
X83515273Y-77095472D01*
X83658957Y-77127801D01*
X83696674Y-77029018D01*
X83667937Y-76896111D01*
X83583523Y-76567433D01*
X83538621Y-76231572D01*
X83536825Y-75953184D01*
X83554786Y-75866973D01*
X83633812Y-75730473D01*
X83804437Y-75638875D01*
X83948121Y-75595770D01*
X84244470Y-75482618D01*
X84537226Y-75319178D01*
X84582127Y-75285053D01*
X84777897Y-75110836D01*
X84873088Y-74936619D01*
X84905416Y-74717501D01*
X84939541Y-74507363D01*
X85020364Y-74333146D01*
X85178416Y-74135580D01*
X85336469Y-73973935D01*
X85638205Y-73686567D01*
X85859120Y-73515942D01*
X86029744Y-73445896D01*
X86177021Y-73460265D01*
X86263231Y-73503370D01*
X86520066Y-73616521D01*
X86732001Y-73594969D01*
X86956507Y-73431528D01*
X86985244Y-73402791D01*
X87193586Y-73244739D01*
X87513283Y-73061541D01*
X87888658Y-72883732D01*
X87931763Y-72865772D01*
X88632223Y-72574811D01*
X88537032Y-72289239D01*
X88468782Y-72041384D01*
X88432861Y-71833042D01*
X88431065Y-71827654D01*
X88402328Y-71723483D01*
X88305341Y-71648049D01*
X88104184Y-71583391D01*
X87920986Y-71540286D01*
X87603085Y-71484608D01*
X87276204Y-71466648D01*
X86900829Y-71489996D01*
X86435652Y-71556450D01*
X85860916Y-71664213D01*
X85375982Y-71764792D01*
X85036528Y-71856391D01*
X84822798Y-71940805D01*
X84711443Y-72034200D01*
X84677318Y-72143759D01*
X84682706Y-72185068D01*
X84736588Y-72368266D01*
X84785081Y-72441904D01*
X84821002Y-72513746D01*
X84795857Y-72621509D01*
X84700667Y-72802910D01*
X84521061Y-73079502D01*
X84463588Y-73162120D01*
X84170831Y-73505166D01*
X83808029Y-73814087D01*
X83414694Y-74056554D01*
X83039319Y-74205626D01*
X82839958Y-74236159D01*
X82408905Y-74193054D01*
X81938340Y-74052962D01*
X81492919Y-73844620D01*
X81146281Y-73594969D01*
X81124729Y-73573416D01*
X80722413Y-73275271D01*
X80356019Y-73102850D01*
X80097387Y-73005864D01*
X79910598Y-72926837D01*
X79844144Y-72892712D01*
X79836960Y-72788542D01*
X79871085Y-72599956D01*
X79928558Y-72398798D01*
X79995012Y-72253318D01*
X80007585Y-72237154D01*
X80124328Y-72188660D01*
X80338058Y-72150943D01*
X80377571Y-72147351D01*
X80575137Y-72118614D01*
X80756538Y-72062937D01*
X80959492Y-71960562D01*
X81212735Y-71793529D01*
X81555781Y-71543878D01*
X81695873Y-71439707D01*
X82125129Y-71093069D01*
X82414293Y-70814681D01*
X82565162Y-70606339D01*
X82566958Y-70468043D01*
X82559774Y-70457267D01*
X82441234Y-70428530D01*
X82205951Y-70426734D01*
X81902419Y-70453675D01*
X81884458Y-70457267D01*
X81537820Y-70502168D01*
X81216327Y-70539885D01*
X81007985Y-70561438D01*
X80727801Y-70590175D01*
X80727801Y-70191451D01*
X80717025Y-69954373D01*
X80666736Y-69796320D01*
X80541012Y-69652636D01*
X80368591Y-69512544D01*
X80009381Y-69228768D01*
X80273400Y-69040183D01*
X80479946Y-68909071D01*
X80778091Y-68740242D01*
X81106768Y-68569617D01*
X81135505Y-68555249D01*
X81715629Y-68244532D01*
X82135905Y-67967940D01*
X82403517Y-67721881D01*
X82523853Y-67500967D01*
X82525649Y-67491986D01*
X82513076Y-67285441D01*
X82365800Y-67138164D01*
X82069452Y-67035789D01*
X81967077Y-67016033D01*
X81686893Y-66990888D01*
X81417485Y-67019625D01*
X81131913Y-67122000D01*
X80806828Y-67306993D01*
X80417084Y-67588973D01*
X79937539Y-67975124D01*
X79840552Y-68054150D01*
X79445421Y-68384624D01*
X79152664Y-68623499D01*
X78933546Y-68785143D01*
X78759329Y-68891110D01*
X78604869Y-68955768D01*
X78441428Y-68997077D01*
X78328277Y-69020426D01*
X78017560Y-69050959D01*
X77618837Y-69054551D01*
X77198561Y-69032998D01*
X77097982Y-69022222D01*
X76656153Y-68986301D01*
X76304127Y-69000669D01*
X75980838Y-69068919D01*
X75797641Y-69129985D01*
X75321687Y-69347307D01*
X74975049Y-69622103D01*
X74727194Y-69988498D01*
X74619431Y-70243537D01*
X74499096Y-70626096D01*
X74468563Y-70904484D01*
X74529629Y-71123602D01*
X74684089Y-71321168D01*
X74689477Y-71330148D01*
X74876266Y-71481016D01*
X75018154Y-71536694D01*
X75084608Y-71488200D01*
X75081016Y-71427135D01*
X75111549Y-71310391D01*
X75213924Y-71107438D01*
X75296542Y-70970938D01*
X75468963Y-70730267D01*
X75627016Y-70593767D01*
X75799437Y-70518333D01*
X76101173Y-70489596D01*
X76331068Y-70611727D01*
X76492712Y-70888319D01*
X76578923Y-71315780D01*
X76595087Y-71892312D01*
X76589699Y-72062937D01*
X76571739Y-72515542D01*
X76569943Y-72991495D01*
X76582515Y-73409975D01*
X76589699Y-73514146D01*
X76600476Y-73884133D01*
X76562758Y-74202034D01*
X76463976Y-74541488D01*
X76356213Y-74825264D01*
X76164035Y-75376651D01*
X76086805Y-75845421D01*
X76117338Y-76267493D01*
X76208936Y-76571025D01*
X76293351Y-76881742D01*
X76334660Y-77231972D01*
X76336456Y-77330755D01*
X76395726Y-77763603D01*
X76523245Y-78013255D01*
X76641785Y-78210820D01*
X76654357Y-78302419D01*
X76577127Y-78293439D01*
X76426259Y-78189268D01*
X76225101Y-77995294D01*
X76133502Y-77892919D01*
X75935937Y-77673801D01*
X75774292Y-77515748D01*
X75688082Y-77454683D01*
X75650364Y-77528321D01*
X75643180Y-77707926D01*
X75644976Y-77724090D01*
X75646772Y-77894715D01*
X75594687Y-78007866D01*
X75451003Y-78115629D01*
X75323483Y-78189268D01*
X75072036Y-78329360D01*
X74854714Y-78446103D01*
X74800832Y-78474840D01*
X74680497Y-78559254D01*
X74705642Y-78631096D01*
X74881655Y-78688570D01*
X75215720Y-78738859D01*
X75350424Y-78755024D01*
X75885647Y-78826866D01*
X76261022Y-78922056D01*
X76472956Y-79033412D01*
X76519653Y-79162727D01*
X76458588Y-79259714D01*
X76411890Y-79392622D01*
X76420870Y-79433931D01*
X76356213Y-79473444D01*
X76142483Y-79529122D01*
X75799437Y-79599168D01*
X75343240Y-79678194D01*
X74799036Y-79766201D01*
X74181195Y-79856003D01*
X73511267Y-79947602D01*
X72810807Y-80037404D01*
X72588097Y-80062549D01*
X72018749Y-80139779D01*
X71603861Y-80209825D01*
X71350618Y-80276279D01*
X71259019Y-80339141D01*
X71269796Y-80360693D01*
G37*
X71269796Y-80360693D02*
X71366782Y-80410983D01*
X71596677Y-80507970D01*
X71923558Y-80637285D01*
X72324078Y-80793542D01*
X72543196Y-80876160D01*
X72995801Y-81052173D01*
X73421465Y-81233574D01*
X73777083Y-81402403D01*
X74026734Y-81537107D01*
X74084208Y-81576620D01*
X74441622Y-81779574D01*
X74772095Y-81837048D01*
X75027135Y-81872969D01*
X75262417Y-81978936D01*
X75524641Y-82169317D01*
X75659345Y-82282468D01*
X75770700Y-82393823D01*
X75871279Y-82523139D01*
X75970062Y-82697356D01*
X76085009Y-82941619D01*
X76226897Y-83281073D01*
X76406502Y-83737270D01*
X76541206Y-84083908D01*
X76785469Y-84705341D01*
X76979442Y-85183091D01*
X77124923Y-85533321D01*
X77236278Y-85770400D01*
X77317100Y-85908696D01*
X77374574Y-85966169D01*
X77415883Y-85957189D01*
X77417679Y-85955393D01*
X77458988Y-85856610D01*
X77532626Y-85628512D01*
X77633205Y-85301630D01*
X77748152Y-84906499D01*
X77769705Y-84827473D01*
X77945718Y-84206039D01*
X78087606Y-83686980D01*
X78218718Y-83207435D01*
X78349829Y-82702744D01*
X78500698Y-82113639D01*
X78504290Y-82106455D01*
X78599481Y-81723896D01*
X78694671Y-81355706D01*
X78768309Y-81066542D01*
X78777290Y-81028825D01*
X78928158Y-80662430D01*
X79215526Y-80202641D01*
X79364598Y-79999687D01*
X79583717Y-79690766D01*
X79765118Y-79408786D01*
X79878269Y-79195056D01*
X79901618Y-79128602D01*
X79937539Y-79017247D01*
X80009381Y-78931037D01*
X80154861Y-78850214D01*
X80404512Y-78755024D01*
X80661347Y-78667017D01*
X81056479Y-78519741D01*
X81322294Y-78386833D01*
X81439038Y-78280866D01*
X81478551Y-78083301D01*
X81424669Y-77853406D01*
X81270209Y-77569630D01*
X81000801Y-77214012D01*
X80611058Y-76770387D01*
X80605670Y-76764999D01*
X80235683Y-76351907D01*
X79984236Y-76025026D01*
X79844144Y-75762802D01*
X79806427Y-75545480D01*
X79860309Y-75347915D01*
X79998604Y-75144961D01*
X80011177Y-75132388D01*
X80217723Y-74933027D01*
X80418880Y-74846816D01*
X80641591Y-74879145D01*
X80916387Y-75035402D01*
X81270209Y-75317382D01*
X81272005Y-75319178D01*
X81839557Y-75807704D01*
X81345643Y-76218999D01*
X81094196Y-76430933D01*
X80954104Y-76571025D01*
X80896630Y-76675196D01*
X80900222Y-76775775D01*
X80912795Y-76827861D01*
X81042110Y-77036203D01*
X81280985Y-77253525D01*
X81588110Y-77481623D01*
X82058675Y-77011058D01*
X82333471Y-76750631D01*
X82545405Y-76614131D01*
X82741175Y-76601558D01*
X82963885Y-76705729D01*
X83263826Y-76923051D01*
X83269214Y-76928440D01*
X83515273Y-77095472D01*
X83658957Y-77127801D01*
X83696674Y-77029018D01*
X83667937Y-76896111D01*
X83583523Y-76567433D01*
X83538621Y-76231572D01*
X83536825Y-75953184D01*
X83554786Y-75866973D01*
X83633812Y-75730473D01*
X83804437Y-75638875D01*
X83948121Y-75595770D01*
X84244470Y-75482618D01*
X84537226Y-75319178D01*
X84582127Y-75285053D01*
X84777897Y-75110836D01*
X84873088Y-74936619D01*
X84905416Y-74717501D01*
X84939541Y-74507363D01*
X85020364Y-74333146D01*
X85178416Y-74135580D01*
X85336469Y-73973935D01*
X85638205Y-73686567D01*
X85859120Y-73515942D01*
X86029744Y-73445896D01*
X86177021Y-73460265D01*
X86263231Y-73503370D01*
X86520066Y-73616521D01*
X86732001Y-73594969D01*
X86956507Y-73431528D01*
X86985244Y-73402791D01*
X87193586Y-73244739D01*
X87513283Y-73061541D01*
X87888658Y-72883732D01*
X87931763Y-72865772D01*
X88632223Y-72574811D01*
X88537032Y-72289239D01*
X88468782Y-72041384D01*
X88432861Y-71833042D01*
X88431065Y-71827654D01*
X88402328Y-71723483D01*
X88305341Y-71648049D01*
X88104184Y-71583391D01*
X87920986Y-71540286D01*
X87603085Y-71484608D01*
X87276204Y-71466648D01*
X86900829Y-71489996D01*
X86435652Y-71556450D01*
X85860916Y-71664213D01*
X85375982Y-71764792D01*
X85036528Y-71856391D01*
X84822798Y-71940805D01*
X84711443Y-72034200D01*
X84677318Y-72143759D01*
X84682706Y-72185068D01*
X84736588Y-72368266D01*
X84785081Y-72441904D01*
X84821002Y-72513746D01*
X84795857Y-72621509D01*
X84700667Y-72802910D01*
X84521061Y-73079502D01*
X84463588Y-73162120D01*
X84170831Y-73505166D01*
X83808029Y-73814087D01*
X83414694Y-74056554D01*
X83039319Y-74205626D01*
X82839958Y-74236159D01*
X82408905Y-74193054D01*
X81938340Y-74052962D01*
X81492919Y-73844620D01*
X81146281Y-73594969D01*
X81124729Y-73573416D01*
X80722413Y-73275271D01*
X80356019Y-73102850D01*
X80097387Y-73005864D01*
X79910598Y-72926837D01*
X79844144Y-72892712D01*
X79836960Y-72788542D01*
X79871085Y-72599956D01*
X79928558Y-72398798D01*
X79995012Y-72253318D01*
X80007585Y-72237154D01*
X80124328Y-72188660D01*
X80338058Y-72150943D01*
X80377571Y-72147351D01*
X80575137Y-72118614D01*
X80756538Y-72062937D01*
X80959492Y-71960562D01*
X81212735Y-71793529D01*
X81555781Y-71543878D01*
X81695873Y-71439707D01*
X82125129Y-71093069D01*
X82414293Y-70814681D01*
X82565162Y-70606339D01*
X82566958Y-70468043D01*
X82559774Y-70457267D01*
X82441234Y-70428530D01*
X82205951Y-70426734D01*
X81902419Y-70453675D01*
X81884458Y-70457267D01*
X81537820Y-70502168D01*
X81216327Y-70539885D01*
X81007985Y-70561438D01*
X80727801Y-70590175D01*
X80727801Y-70191451D01*
X80717025Y-69954373D01*
X80666736Y-69796320D01*
X80541012Y-69652636D01*
X80368591Y-69512544D01*
X80009381Y-69228768D01*
X80273400Y-69040183D01*
X80479946Y-68909071D01*
X80778091Y-68740242D01*
X81106768Y-68569617D01*
X81135505Y-68555249D01*
X81715629Y-68244532D01*
X82135905Y-67967940D01*
X82403517Y-67721881D01*
X82523853Y-67500967D01*
X82525649Y-67491986D01*
X82513076Y-67285441D01*
X82365800Y-67138164D01*
X82069452Y-67035789D01*
X81967077Y-67016033D01*
X81686893Y-66990888D01*
X81417485Y-67019625D01*
X81131913Y-67122000D01*
X80806828Y-67306993D01*
X80417084Y-67588973D01*
X79937539Y-67975124D01*
X79840552Y-68054150D01*
X79445421Y-68384624D01*
X79152664Y-68623499D01*
X78933546Y-68785143D01*
X78759329Y-68891110D01*
X78604869Y-68955768D01*
X78441428Y-68997077D01*
X78328277Y-69020426D01*
X78017560Y-69050959D01*
X77618837Y-69054551D01*
X77198561Y-69032998D01*
X77097982Y-69022222D01*
X76656153Y-68986301D01*
X76304127Y-69000669D01*
X75980838Y-69068919D01*
X75797641Y-69129985D01*
X75321687Y-69347307D01*
X74975049Y-69622103D01*
X74727194Y-69988498D01*
X74619431Y-70243537D01*
X74499096Y-70626096D01*
X74468563Y-70904484D01*
X74529629Y-71123602D01*
X74684089Y-71321168D01*
X74689477Y-71330148D01*
X74876266Y-71481016D01*
X75018154Y-71536694D01*
X75084608Y-71488200D01*
X75081016Y-71427135D01*
X75111549Y-71310391D01*
X75213924Y-71107438D01*
X75296542Y-70970938D01*
X75468963Y-70730267D01*
X75627016Y-70593767D01*
X75799437Y-70518333D01*
X76101173Y-70489596D01*
X76331068Y-70611727D01*
X76492712Y-70888319D01*
X76578923Y-71315780D01*
X76595087Y-71892312D01*
X76589699Y-72062937D01*
X76571739Y-72515542D01*
X76569943Y-72991495D01*
X76582515Y-73409975D01*
X76589699Y-73514146D01*
X76600476Y-73884133D01*
X76562758Y-74202034D01*
X76463976Y-74541488D01*
X76356213Y-74825264D01*
X76164035Y-75376651D01*
X76086805Y-75845421D01*
X76117338Y-76267493D01*
X76208936Y-76571025D01*
X76293351Y-76881742D01*
X76334660Y-77231972D01*
X76336456Y-77330755D01*
X76395726Y-77763603D01*
X76523245Y-78013255D01*
X76641785Y-78210820D01*
X76654357Y-78302419D01*
X76577127Y-78293439D01*
X76426259Y-78189268D01*
X76225101Y-77995294D01*
X76133502Y-77892919D01*
X75935937Y-77673801D01*
X75774292Y-77515748D01*
X75688082Y-77454683D01*
X75650364Y-77528321D01*
X75643180Y-77707926D01*
X75644976Y-77724090D01*
X75646772Y-77894715D01*
X75594687Y-78007866D01*
X75451003Y-78115629D01*
X75323483Y-78189268D01*
X75072036Y-78329360D01*
X74854714Y-78446103D01*
X74800832Y-78474840D01*
X74680497Y-78559254D01*
X74705642Y-78631096D01*
X74881655Y-78688570D01*
X75215720Y-78738859D01*
X75350424Y-78755024D01*
X75885647Y-78826866D01*
X76261022Y-78922056D01*
X76472956Y-79033412D01*
X76519653Y-79162727D01*
X76458588Y-79259714D01*
X76411890Y-79392622D01*
X76420870Y-79433931D01*
X76356213Y-79473444D01*
X76142483Y-79529122D01*
X75799437Y-79599168D01*
X75343240Y-79678194D01*
X74799036Y-79766201D01*
X74181195Y-79856003D01*
X73511267Y-79947602D01*
X72810807Y-80037404D01*
X72588097Y-80062549D01*
X72018749Y-80139779D01*
X71603861Y-80209825D01*
X71350618Y-80276279D01*
X71259019Y-80339141D01*
X71269796Y-80360693D01*
D12*
G36*
X122339905Y-67686745D02*
G01*
X122237231Y-67789414D01*
X122141760Y-67884860D01*
X122053221Y-67973358D01*
X121971340Y-68055176D01*
X121895844Y-68130581D01*
X121826461Y-68199847D01*
X121762918Y-68263242D01*
X121704940Y-68321036D01*
X121652257Y-68373498D01*
X121604594Y-68420898D01*
X121561679Y-68463508D01*
X121523239Y-68501595D01*
X121489000Y-68535431D01*
X121458691Y-68565284D01*
X121432038Y-68591425D01*
X121408767Y-68614124D01*
X121388606Y-68633650D01*
X121371283Y-68650273D01*
X121356525Y-68664263D01*
X121344057Y-68675891D01*
X121333608Y-68685424D01*
X121324904Y-68693135D01*
X121317672Y-68699292D01*
X121311641Y-68704165D01*
X121307853Y-68707055D01*
X121253734Y-68743318D01*
X121202264Y-68769676D01*
X121153003Y-68786353D01*
X121149091Y-68787289D01*
X121130395Y-68791773D01*
X121116252Y-68795465D01*
X121109347Y-68797657D01*
X121109101Y-68797813D01*
X121112464Y-68801732D01*
X121122720Y-68812514D01*
X121139268Y-68829551D01*
X121161505Y-68852233D01*
X121188831Y-68879951D01*
X121220645Y-68912096D01*
X121256346Y-68948060D01*
X121295330Y-68987231D01*
X121336998Y-69029001D01*
X121363758Y-69055779D01*
X121620069Y-69312090D01*
X121733074Y-69199086D01*
X121734810Y-69237122D01*
X121743264Y-69311146D01*
X121761639Y-69386150D01*
X121789483Y-69461023D01*
X121826341Y-69534655D01*
X121871759Y-69605936D01*
X121901746Y-69645640D01*
X121918625Y-69665621D01*
X121939373Y-69688577D01*
X121962006Y-69712476D01*
X121984542Y-69735288D01*
X122005001Y-69754980D01*
X122021398Y-69769521D01*
X122026626Y-69773625D01*
X122061801Y-69799242D01*
X122090473Y-69819478D01*
X122114444Y-69835511D01*
X122135516Y-69848519D01*
X122155491Y-69859681D01*
X122168115Y-69866192D01*
X122245251Y-69899245D01*
X122326864Y-69923623D01*
X122410968Y-69938938D01*
X122495573Y-69944806D01*
X122560832Y-69942559D01*
X122658055Y-69929380D01*
X122753668Y-69905988D01*
X122847766Y-69872333D01*
X122940443Y-69828369D01*
X123031793Y-69774046D01*
X123121909Y-69709315D01*
X123210886Y-69634129D01*
X123271985Y-69575809D01*
X123309739Y-69536141D01*
X122814728Y-69041131D01*
X122779478Y-69075935D01*
X122744666Y-69109222D01*
X122711873Y-69139431D01*
X122682685Y-69165003D01*
X122658683Y-69184376D01*
X122656038Y-69186349D01*
X122599532Y-69225267D01*
X122547217Y-69255394D01*
X122498076Y-69277152D01*
X122451092Y-69290963D01*
X122405245Y-69297248D01*
X122387254Y-69297751D01*
X122349182Y-69296040D01*
X122317147Y-69290403D01*
X122287003Y-69279795D01*
X122258168Y-69265192D01*
X122236685Y-69250144D01*
X122212207Y-69228220D01*
X122186907Y-69201782D01*
X122162961Y-69173190D01*
X122142541Y-69144805D01*
X122133285Y-69129572D01*
X122116268Y-69094408D01*
X122100299Y-69052869D01*
X122086782Y-69009155D01*
X122077127Y-68967467D01*
X122075211Y-68956106D01*
X122069067Y-68915479D01*
X122745965Y-68238580D01*
X122786608Y-68245372D01*
X122851811Y-68260880D01*
X122911134Y-68284850D01*
X122965705Y-68317821D01*
X123003280Y-68347958D01*
X123040652Y-68385931D01*
X123068136Y-68425004D01*
X123086419Y-68466683D01*
X123096187Y-68512471D01*
X123098307Y-68556015D01*
X123093853Y-68605199D01*
X123081571Y-68656320D01*
X123061188Y-68709957D01*
X123032431Y-68766693D01*
X122995029Y-68827105D01*
X122948710Y-68891774D01*
X122928430Y-68917944D01*
X122907266Y-68943216D01*
X122880205Y-68973212D01*
X122848831Y-69006370D01*
X122814728Y-69041131D01*
X123309739Y-69536141D01*
X123364249Y-69478866D01*
X123446535Y-69382569D01*
X123518805Y-69287024D01*
X123581024Y-69192332D01*
X123633153Y-69098598D01*
X123675156Y-69005926D01*
X123706997Y-68914419D01*
X123728638Y-68824182D01*
X123740043Y-68735317D01*
X123741173Y-68647929D01*
X123731994Y-68562122D01*
X123712466Y-68477998D01*
X123687740Y-68407979D01*
X123655143Y-68340801D01*
X123613584Y-68274903D01*
X123564373Y-68211518D01*
X123508820Y-68151884D01*
X123448236Y-68097234D01*
X123383933Y-68048802D01*
X123317222Y-68007822D01*
X123249414Y-67975529D01*
X123215077Y-67962884D01*
X123172042Y-67950368D01*
X123128271Y-67940670D01*
X123088094Y-67934704D01*
X123076347Y-67933707D01*
X123051586Y-67932099D01*
X123367020Y-67619634D01*
X123427060Y-67560213D01*
X123480033Y-67507909D01*
X123526335Y-67462340D01*
X123566365Y-67423123D01*
X123600521Y-67389873D01*
X123629202Y-67362208D01*
X123652803Y-67339745D01*
X123671725Y-67322100D01*
X123686365Y-67308890D01*
X123697120Y-67299733D01*
X123704389Y-67294243D01*
X123705955Y-67293251D01*
X123740677Y-67275819D01*
X123779307Y-67261523D01*
X123816740Y-67252165D01*
X123826225Y-67250688D01*
X123843625Y-67247909D01*
X123856549Y-67244916D01*
X123861424Y-67242857D01*
X123858492Y-67238344D01*
X123848098Y-67226551D01*
X123830352Y-67207591D01*
X123805364Y-67181578D01*
X123773246Y-67148627D01*
X123734107Y-67108850D01*
X123688058Y-67062360D01*
X123635210Y-67009272D01*
X123595725Y-66969741D01*
X123326317Y-66700333D01*
X122339905Y-67686745D01*
G37*
X122339905Y-67686745D02*
X122237231Y-67789414D01*
X122141760Y-67884860D01*
X122053221Y-67973358D01*
X121971340Y-68055176D01*
X121895844Y-68130581D01*
X121826461Y-68199847D01*
X121762918Y-68263242D01*
X121704940Y-68321036D01*
X121652257Y-68373498D01*
X121604594Y-68420898D01*
X121561679Y-68463508D01*
X121523239Y-68501595D01*
X121489000Y-68535431D01*
X121458691Y-68565284D01*
X121432038Y-68591425D01*
X121408767Y-68614124D01*
X121388606Y-68633650D01*
X121371283Y-68650273D01*
X121356525Y-68664263D01*
X121344057Y-68675891D01*
X121333608Y-68685424D01*
X121324904Y-68693135D01*
X121317672Y-68699292D01*
X121311641Y-68704165D01*
X121307853Y-68707055D01*
X121253734Y-68743318D01*
X121202264Y-68769676D01*
X121153003Y-68786353D01*
X121149091Y-68787289D01*
X121130395Y-68791773D01*
X121116252Y-68795465D01*
X121109347Y-68797657D01*
X121109101Y-68797813D01*
X121112464Y-68801732D01*
X121122720Y-68812514D01*
X121139268Y-68829551D01*
X121161505Y-68852233D01*
X121188831Y-68879951D01*
X121220645Y-68912096D01*
X121256346Y-68948060D01*
X121295330Y-68987231D01*
X121336998Y-69029001D01*
X121363758Y-69055779D01*
X121620069Y-69312090D01*
X121733074Y-69199086D01*
X121734810Y-69237122D01*
X121743264Y-69311146D01*
X121761639Y-69386150D01*
X121789483Y-69461023D01*
X121826341Y-69534655D01*
X121871759Y-69605936D01*
X121901746Y-69645640D01*
X121918625Y-69665621D01*
X121939373Y-69688577D01*
X121962006Y-69712476D01*
X121984542Y-69735288D01*
X122005001Y-69754980D01*
X122021398Y-69769521D01*
X122026626Y-69773625D01*
X122061801Y-69799242D01*
X122090473Y-69819478D01*
X122114444Y-69835511D01*
X122135516Y-69848519D01*
X122155491Y-69859681D01*
X122168115Y-69866192D01*
X122245251Y-69899245D01*
X122326864Y-69923623D01*
X122410968Y-69938938D01*
X122495573Y-69944806D01*
X122560832Y-69942559D01*
X122658055Y-69929380D01*
X122753668Y-69905988D01*
X122847766Y-69872333D01*
X122940443Y-69828369D01*
X123031793Y-69774046D01*
X123121909Y-69709315D01*
X123210886Y-69634129D01*
X123271985Y-69575809D01*
X123309739Y-69536141D01*
X122814728Y-69041131D01*
X122779478Y-69075935D01*
X122744666Y-69109222D01*
X122711873Y-69139431D01*
X122682685Y-69165003D01*
X122658683Y-69184376D01*
X122656038Y-69186349D01*
X122599532Y-69225267D01*
X122547217Y-69255394D01*
X122498076Y-69277152D01*
X122451092Y-69290963D01*
X122405245Y-69297248D01*
X122387254Y-69297751D01*
X122349182Y-69296040D01*
X122317147Y-69290403D01*
X122287003Y-69279795D01*
X122258168Y-69265192D01*
X122236685Y-69250144D01*
X122212207Y-69228220D01*
X122186907Y-69201782D01*
X122162961Y-69173190D01*
X122142541Y-69144805D01*
X122133285Y-69129572D01*
X122116268Y-69094408D01*
X122100299Y-69052869D01*
X122086782Y-69009155D01*
X122077127Y-68967467D01*
X122075211Y-68956106D01*
X122069067Y-68915479D01*
X122745965Y-68238580D01*
X122786608Y-68245372D01*
X122851811Y-68260880D01*
X122911134Y-68284850D01*
X122965705Y-68317821D01*
X123003280Y-68347958D01*
X123040652Y-68385931D01*
X123068136Y-68425004D01*
X123086419Y-68466683D01*
X123096187Y-68512471D01*
X123098307Y-68556015D01*
X123093853Y-68605199D01*
X123081571Y-68656320D01*
X123061188Y-68709957D01*
X123032431Y-68766693D01*
X122995029Y-68827105D01*
X122948710Y-68891774D01*
X122928430Y-68917944D01*
X122907266Y-68943216D01*
X122880205Y-68973212D01*
X122848831Y-69006370D01*
X122814728Y-69041131D01*
X123309739Y-69536141D01*
X123364249Y-69478866D01*
X123446535Y-69382569D01*
X123518805Y-69287024D01*
X123581024Y-69192332D01*
X123633153Y-69098598D01*
X123675156Y-69005926D01*
X123706997Y-68914419D01*
X123728638Y-68824182D01*
X123740043Y-68735317D01*
X123741173Y-68647929D01*
X123731994Y-68562122D01*
X123712466Y-68477998D01*
X123687740Y-68407979D01*
X123655143Y-68340801D01*
X123613584Y-68274903D01*
X123564373Y-68211518D01*
X123508820Y-68151884D01*
X123448236Y-68097234D01*
X123383933Y-68048802D01*
X123317222Y-68007822D01*
X123249414Y-67975529D01*
X123215077Y-67962884D01*
X123172042Y-67950368D01*
X123128271Y-67940670D01*
X123088094Y-67934704D01*
X123076347Y-67933707D01*
X123051586Y-67932099D01*
X123367020Y-67619634D01*
X123427060Y-67560213D01*
X123480033Y-67507909D01*
X123526335Y-67462340D01*
X123566365Y-67423123D01*
X123600521Y-67389873D01*
X123629202Y-67362208D01*
X123652803Y-67339745D01*
X123671725Y-67322100D01*
X123686365Y-67308890D01*
X123697120Y-67299733D01*
X123704389Y-67294243D01*
X123705955Y-67293251D01*
X123740677Y-67275819D01*
X123779307Y-67261523D01*
X123816740Y-67252165D01*
X123826225Y-67250688D01*
X123843625Y-67247909D01*
X123856549Y-67244916D01*
X123861424Y-67242857D01*
X123858492Y-67238344D01*
X123848098Y-67226551D01*
X123830352Y-67207591D01*
X123805364Y-67181578D01*
X123773246Y-67148627D01*
X123734107Y-67108850D01*
X123688058Y-67062360D01*
X123635210Y-67009272D01*
X123595725Y-66969741D01*
X123326317Y-66700333D01*
X122339905Y-67686745D01*
G36*
X124980126Y-69625045D02*
G01*
X124923104Y-69573948D01*
X124867891Y-69529118D01*
X124853449Y-69518281D01*
X124774489Y-69465212D01*
X124695979Y-69422514D01*
X124618021Y-69390205D01*
X124540717Y-69368303D01*
X124464170Y-69356830D01*
X124388483Y-69355804D01*
X124313759Y-69365245D01*
X124240101Y-69385173D01*
X124209981Y-69396481D01*
X124176751Y-69411306D01*
X124138801Y-69430340D01*
X124099940Y-69451528D01*
X124063978Y-69472815D01*
X124042078Y-69487010D01*
X124027232Y-69497150D01*
X124013573Y-69506584D01*
X124000631Y-69515752D01*
X123987935Y-69525096D01*
X123975011Y-69535055D01*
X123961389Y-69546072D01*
X123946596Y-69558586D01*
X123930162Y-69573040D01*
X123911614Y-69589874D01*
X123890479Y-69609528D01*
X123866287Y-69632444D01*
X123838567Y-69659063D01*
X123806844Y-69689825D01*
X123770648Y-69725171D01*
X123729509Y-69765542D01*
X123682952Y-69811381D01*
X123630508Y-69863125D01*
X123571703Y-69921218D01*
X123506066Y-69986100D01*
X123472372Y-70019411D01*
X123403744Y-70087244D01*
X123342217Y-70148021D01*
X123287378Y-70202136D01*
X123238816Y-70249986D01*
X123196119Y-70291969D01*
X123158877Y-70328480D01*
X123126676Y-70359918D01*
X123099106Y-70386679D01*
X123075753Y-70409160D01*
X123056209Y-70427756D01*
X123040059Y-70442867D01*
X123026893Y-70454886D01*
X123016299Y-70464213D01*
X123007864Y-70471244D01*
X123001178Y-70476374D01*
X122995828Y-70480001D01*
X122992383Y-70482009D01*
X122959990Y-70497170D01*
X122924639Y-70509956D01*
X122890508Y-70519008D01*
X122867628Y-70522583D01*
X122851573Y-70524256D01*
X122840582Y-70525844D01*
X122837663Y-70526650D01*
X122841049Y-70530546D01*
X122851326Y-70541306D01*
X122867894Y-70558323D01*
X122890151Y-70580986D01*
X122917493Y-70608688D01*
X122949321Y-70640820D01*
X122985032Y-70676772D01*
X123024024Y-70715935D01*
X123065697Y-70757701D01*
X123092457Y-70784478D01*
X123348769Y-71040790D01*
X123461773Y-70927786D01*
X123463558Y-70967467D01*
X123471540Y-71039028D01*
X123488704Y-71112234D01*
X123514319Y-71185015D01*
X123547652Y-71255305D01*
X123587975Y-71321035D01*
X123588984Y-71322486D01*
X123601484Y-71338932D01*
X123619130Y-71360211D01*
X123640298Y-71384556D01*
X123663367Y-71410199D01*
X123686711Y-71435370D01*
X123708710Y-71458304D01*
X123727739Y-71477231D01*
X123742175Y-71490383D01*
X123745730Y-71493211D01*
X123799008Y-71531698D01*
X123847072Y-71563419D01*
X123891830Y-71589442D01*
X123935184Y-71610834D01*
X123979044Y-71628659D01*
X124002499Y-71636811D01*
X124062328Y-71654354D01*
X124118099Y-71665758D01*
X124173851Y-71671702D01*
X124216696Y-71672986D01*
X124297380Y-71667955D01*
X124376452Y-71652554D01*
X124453618Y-71626913D01*
X124528590Y-71591163D01*
X124601073Y-71545433D01*
X124670776Y-71489856D01*
X124697336Y-71464857D01*
X124243996Y-71011518D01*
X124206208Y-71039780D01*
X124167844Y-71058038D01*
X124131802Y-71066358D01*
X124090964Y-71067620D01*
X124048067Y-71062199D01*
X124005848Y-71050469D01*
X123967046Y-71032805D01*
X123962081Y-71029903D01*
X123942387Y-71015752D01*
X123918930Y-70995415D01*
X123894112Y-70971308D01*
X123870336Y-70945848D01*
X123850004Y-70921450D01*
X123838957Y-70906070D01*
X123815210Y-70861128D01*
X123798587Y-70811249D01*
X123789612Y-70759182D01*
X123788809Y-70707675D01*
X123794026Y-70670418D01*
X123800308Y-70641636D01*
X124028862Y-70413082D01*
X124061274Y-70437101D01*
X124086492Y-70457569D01*
X124115642Y-70484065D01*
X124146318Y-70514149D01*
X124176113Y-70545373D01*
X124202621Y-70575294D01*
X124223435Y-70601465D01*
X124224535Y-70602981D01*
X124258355Y-70655209D01*
X124285144Y-70707849D01*
X124304320Y-70759407D01*
X124315298Y-70808383D01*
X124317803Y-70842539D01*
X124312698Y-70890667D01*
X124298113Y-70935708D01*
X124274922Y-70976410D01*
X124243996Y-71011518D01*
X124697336Y-71464857D01*
X124710683Y-71452295D01*
X124767853Y-71388604D01*
X124814937Y-71321740D01*
X124851916Y-71251800D01*
X124878770Y-71178884D01*
X124895478Y-71103092D01*
X124902021Y-71024519D01*
X124898378Y-70943267D01*
X124884529Y-70859435D01*
X124860453Y-70773119D01*
X124853688Y-70753542D01*
X124827126Y-70687278D01*
X124794861Y-70621639D01*
X124756350Y-70555878D01*
X124711047Y-70489239D01*
X124658407Y-70420977D01*
X124597885Y-70350336D01*
X124528936Y-70276570D01*
X124451015Y-70198925D01*
X124450962Y-70198875D01*
X124341445Y-70093015D01*
X124363500Y-70070960D01*
X124396313Y-70042873D01*
X124435404Y-70016902D01*
X124476482Y-69995744D01*
X124494591Y-69988471D01*
X124542004Y-69975874D01*
X124587928Y-69973135D01*
X124632821Y-69980387D01*
X124677140Y-69997764D01*
X124721343Y-70025402D01*
X124765887Y-70063432D01*
X124772547Y-70069963D01*
X124831111Y-70135165D01*
X124885034Y-70209145D01*
X124933727Y-70290907D01*
X124976600Y-70379452D01*
X125013065Y-70473783D01*
X125016034Y-70482588D01*
X125023374Y-70503254D01*
X125029958Y-70519344D01*
X125034873Y-70528753D01*
X125036686Y-70530303D01*
X125045680Y-70527205D01*
X125062743Y-70520583D01*
X125086705Y-70510933D01*
X125116398Y-70498752D01*
X125150651Y-70484538D01*
X125188298Y-70468786D01*
X125228169Y-70451994D01*
X125269095Y-70434659D01*
X125309907Y-70417276D01*
X125349437Y-70400345D01*
X125386515Y-70384359D01*
X125419975Y-70369818D01*
X125448646Y-70357216D01*
X125471358Y-70347052D01*
X125486945Y-70339822D01*
X125494237Y-70336023D01*
X125494631Y-70335654D01*
X125492125Y-70328284D01*
X125484071Y-70317555D01*
X125480852Y-70314159D01*
X125470753Y-70302561D01*
X125457184Y-70284405D01*
X125439887Y-70259287D01*
X125418602Y-70226809D01*
X125393070Y-70186572D01*
X125363032Y-70138174D01*
X125328228Y-70081215D01*
X125302902Y-70039370D01*
X125279648Y-70001108D01*
X125256582Y-69963676D01*
X125234668Y-69928601D01*
X125214870Y-69897408D01*
X125198151Y-69871622D01*
X125185475Y-69852769D01*
X125181605Y-69847308D01*
X125139694Y-69793542D01*
X125090655Y-69737082D01*
X125036720Y-69680171D01*
X124980126Y-69625045D01*
G37*
X124980126Y-69625045D02*
X124923104Y-69573948D01*
X124867891Y-69529118D01*
X124853449Y-69518281D01*
X124774489Y-69465212D01*
X124695979Y-69422514D01*
X124618021Y-69390205D01*
X124540717Y-69368303D01*
X124464170Y-69356830D01*
X124388483Y-69355804D01*
X124313759Y-69365245D01*
X124240101Y-69385173D01*
X124209981Y-69396481D01*
X124176751Y-69411306D01*
X124138801Y-69430340D01*
X124099940Y-69451528D01*
X124063978Y-69472815D01*
X124042078Y-69487010D01*
X124027232Y-69497150D01*
X124013573Y-69506584D01*
X124000631Y-69515752D01*
X123987935Y-69525096D01*
X123975011Y-69535055D01*
X123961389Y-69546072D01*
X123946596Y-69558586D01*
X123930162Y-69573040D01*
X123911614Y-69589874D01*
X123890479Y-69609528D01*
X123866287Y-69632444D01*
X123838567Y-69659063D01*
X123806844Y-69689825D01*
X123770648Y-69725171D01*
X123729509Y-69765542D01*
X123682952Y-69811381D01*
X123630508Y-69863125D01*
X123571703Y-69921218D01*
X123506066Y-69986100D01*
X123472372Y-70019411D01*
X123403744Y-70087244D01*
X123342217Y-70148021D01*
X123287378Y-70202136D01*
X123238816Y-70249986D01*
X123196119Y-70291969D01*
X123158877Y-70328480D01*
X123126676Y-70359918D01*
X123099106Y-70386679D01*
X123075753Y-70409160D01*
X123056209Y-70427756D01*
X123040059Y-70442867D01*
X123026893Y-70454886D01*
X123016299Y-70464213D01*
X123007864Y-70471244D01*
X123001178Y-70476374D01*
X122995828Y-70480001D01*
X122992383Y-70482009D01*
X122959990Y-70497170D01*
X122924639Y-70509956D01*
X122890508Y-70519008D01*
X122867628Y-70522583D01*
X122851573Y-70524256D01*
X122840582Y-70525844D01*
X122837663Y-70526650D01*
X122841049Y-70530546D01*
X122851326Y-70541306D01*
X122867894Y-70558323D01*
X122890151Y-70580986D01*
X122917493Y-70608688D01*
X122949321Y-70640820D01*
X122985032Y-70676772D01*
X123024024Y-70715935D01*
X123065697Y-70757701D01*
X123092457Y-70784478D01*
X123348769Y-71040790D01*
X123461773Y-70927786D01*
X123463558Y-70967467D01*
X123471540Y-71039028D01*
X123488704Y-71112234D01*
X123514319Y-71185015D01*
X123547652Y-71255305D01*
X123587975Y-71321035D01*
X123588984Y-71322486D01*
X123601484Y-71338932D01*
X123619130Y-71360211D01*
X123640298Y-71384556D01*
X123663367Y-71410199D01*
X123686711Y-71435370D01*
X123708710Y-71458304D01*
X123727739Y-71477231D01*
X123742175Y-71490383D01*
X123745730Y-71493211D01*
X123799008Y-71531698D01*
X123847072Y-71563419D01*
X123891830Y-71589442D01*
X123935184Y-71610834D01*
X123979044Y-71628659D01*
X124002499Y-71636811D01*
X124062328Y-71654354D01*
X124118099Y-71665758D01*
X124173851Y-71671702D01*
X124216696Y-71672986D01*
X124297380Y-71667955D01*
X124376452Y-71652554D01*
X124453618Y-71626913D01*
X124528590Y-71591163D01*
X124601073Y-71545433D01*
X124670776Y-71489856D01*
X124697336Y-71464857D01*
X124243996Y-71011518D01*
X124206208Y-71039780D01*
X124167844Y-71058038D01*
X124131802Y-71066358D01*
X124090964Y-71067620D01*
X124048067Y-71062199D01*
X124005848Y-71050469D01*
X123967046Y-71032805D01*
X123962081Y-71029903D01*
X123942387Y-71015752D01*
X123918930Y-70995415D01*
X123894112Y-70971308D01*
X123870336Y-70945848D01*
X123850004Y-70921450D01*
X123838957Y-70906070D01*
X123815210Y-70861128D01*
X123798587Y-70811249D01*
X123789612Y-70759182D01*
X123788809Y-70707675D01*
X123794026Y-70670418D01*
X123800308Y-70641636D01*
X124028862Y-70413082D01*
X124061274Y-70437101D01*
X124086492Y-70457569D01*
X124115642Y-70484065D01*
X124146318Y-70514149D01*
X124176113Y-70545373D01*
X124202621Y-70575294D01*
X124223435Y-70601465D01*
X124224535Y-70602981D01*
X124258355Y-70655209D01*
X124285144Y-70707849D01*
X124304320Y-70759407D01*
X124315298Y-70808383D01*
X124317803Y-70842539D01*
X124312698Y-70890667D01*
X124298113Y-70935708D01*
X124274922Y-70976410D01*
X124243996Y-71011518D01*
X124697336Y-71464857D01*
X124710683Y-71452295D01*
X124767853Y-71388604D01*
X124814937Y-71321740D01*
X124851916Y-71251800D01*
X124878770Y-71178884D01*
X124895478Y-71103092D01*
X124902021Y-71024519D01*
X124898378Y-70943267D01*
X124884529Y-70859435D01*
X124860453Y-70773119D01*
X124853688Y-70753542D01*
X124827126Y-70687278D01*
X124794861Y-70621639D01*
X124756350Y-70555878D01*
X124711047Y-70489239D01*
X124658407Y-70420977D01*
X124597885Y-70350336D01*
X124528936Y-70276570D01*
X124451015Y-70198925D01*
X124450962Y-70198875D01*
X124341445Y-70093015D01*
X124363500Y-70070960D01*
X124396313Y-70042873D01*
X124435404Y-70016902D01*
X124476482Y-69995744D01*
X124494591Y-69988471D01*
X124542004Y-69975874D01*
X124587928Y-69973135D01*
X124632821Y-69980387D01*
X124677140Y-69997764D01*
X124721343Y-70025402D01*
X124765887Y-70063432D01*
X124772547Y-70069963D01*
X124831111Y-70135165D01*
X124885034Y-70209145D01*
X124933727Y-70290907D01*
X124976600Y-70379452D01*
X125013065Y-70473783D01*
X125016034Y-70482588D01*
X125023374Y-70503254D01*
X125029958Y-70519344D01*
X125034873Y-70528753D01*
X125036686Y-70530303D01*
X125045680Y-70527205D01*
X125062743Y-70520583D01*
X125086705Y-70510933D01*
X125116398Y-70498752D01*
X125150651Y-70484538D01*
X125188298Y-70468786D01*
X125228169Y-70451994D01*
X125269095Y-70434659D01*
X125309907Y-70417276D01*
X125349437Y-70400345D01*
X125386515Y-70384359D01*
X125419975Y-70369818D01*
X125448646Y-70357216D01*
X125471358Y-70347052D01*
X125486945Y-70339822D01*
X125494237Y-70336023D01*
X125494631Y-70335654D01*
X125492125Y-70328284D01*
X125484071Y-70317555D01*
X125480852Y-70314159D01*
X125470753Y-70302561D01*
X125457184Y-70284405D01*
X125439887Y-70259287D01*
X125418602Y-70226809D01*
X125393070Y-70186572D01*
X125363032Y-70138174D01*
X125328228Y-70081215D01*
X125302902Y-70039370D01*
X125279648Y-70001108D01*
X125256582Y-69963676D01*
X125234668Y-69928601D01*
X125214870Y-69897408D01*
X125198151Y-69871622D01*
X125185475Y-69852769D01*
X125181605Y-69847308D01*
X125139694Y-69793542D01*
X125090655Y-69737082D01*
X125036720Y-69680171D01*
X124980126Y-69625045D01*
G36*
X126924714Y-70498382D02*
G01*
X126831668Y-70430684D01*
X126731128Y-70370020D01*
X126623332Y-70316755D01*
X126619087Y-70314877D01*
X126598336Y-70306297D01*
X126569716Y-70295255D01*
X126535425Y-70282561D01*
X126497659Y-70269017D01*
X126458619Y-70255430D01*
X126435628Y-70247637D01*
X126399017Y-70235102D01*
X126364351Y-70222744D01*
X126333339Y-70211213D01*
X126307697Y-70201157D01*
X126289134Y-70193223D01*
X126280914Y-70189070D01*
X126264144Y-70180513D01*
X126253250Y-70178014D01*
X126250422Y-70179241D01*
X126248653Y-70185278D01*
X126245241Y-70200564D01*
X126240397Y-70223954D01*
X126234334Y-70254305D01*
X126227265Y-70290473D01*
X126219402Y-70331316D01*
X126210958Y-70375690D01*
X126202145Y-70422452D01*
X126193177Y-70470458D01*
X126184265Y-70518565D01*
X126175621Y-70565629D01*
X126167460Y-70610508D01*
X126159993Y-70652057D01*
X126153432Y-70689134D01*
X126147991Y-70720593D01*
X126143881Y-70745295D01*
X126141316Y-70762094D01*
X126140508Y-70769846D01*
X126140563Y-70770190D01*
X126146292Y-70771689D01*
X126160476Y-70772796D01*
X126180992Y-70773404D01*
X126205714Y-70773411D01*
X126206200Y-70773404D01*
X126281959Y-70776970D01*
X126353410Y-70789847D01*
X126421010Y-70812240D01*
X126485221Y-70844355D01*
X126546496Y-70886397D01*
X126605298Y-70938573D01*
X126629100Y-70963270D01*
X126678049Y-71022444D01*
X126716625Y-71082993D01*
X126745010Y-71145480D01*
X126763382Y-71210466D01*
X126771922Y-71278516D01*
X126770811Y-71350191D01*
X126766129Y-71391509D01*
X126750067Y-71469022D01*
X126724127Y-71549392D01*
X126688501Y-71632213D01*
X126643380Y-71717082D01*
X126588955Y-71803593D01*
X126537308Y-71875753D01*
X126516119Y-71902042D01*
X126488372Y-71933750D01*
X126455541Y-71969405D01*
X126419098Y-72007533D01*
X126380514Y-72046660D01*
X126341266Y-72085317D01*
X126302824Y-72122027D01*
X126266661Y-72155319D01*
X126234252Y-72183720D01*
X126208026Y-72205025D01*
X126122379Y-72266351D01*
X126038669Y-72317403D01*
X125956683Y-72358268D01*
X125876204Y-72389032D01*
X125797016Y-72409785D01*
X125718904Y-72420612D01*
X125672410Y-72422381D01*
X125593097Y-72417584D01*
X125518370Y-72403278D01*
X125448439Y-72379589D01*
X125383514Y-72346646D01*
X125323807Y-72304572D01*
X125269526Y-72253498D01*
X125220883Y-72193549D01*
X125178087Y-72124853D01*
X125177283Y-72123374D01*
X125144698Y-72052273D01*
X125120718Y-71975160D01*
X125105399Y-71892259D01*
X125098797Y-71803790D01*
X125098769Y-71802601D01*
X125096996Y-71726000D01*
X125052921Y-71736357D01*
X125019866Y-71744169D01*
X124981492Y-71753314D01*
X124938898Y-71763524D01*
X124893185Y-71774530D01*
X124845450Y-71786065D01*
X124796795Y-71797860D01*
X124748320Y-71809646D01*
X124701125Y-71821155D01*
X124656309Y-71832119D01*
X124614972Y-71842270D01*
X124578214Y-71851339D01*
X124547136Y-71859059D01*
X124522835Y-71865160D01*
X124506415Y-71869374D01*
X124498972Y-71871433D01*
X124498663Y-71871560D01*
X124498637Y-71877279D01*
X124502910Y-71888905D01*
X124506466Y-71896166D01*
X124511813Y-71908453D01*
X124519365Y-71928748D01*
X124528374Y-71954901D01*
X124538096Y-71984757D01*
X124545955Y-72010091D01*
X124568214Y-72081665D01*
X124589040Y-72144414D01*
X124609063Y-72199891D01*
X124628915Y-72249652D01*
X124649224Y-72295252D01*
X124670623Y-72338246D01*
X124693740Y-72380186D01*
X124701161Y-72392892D01*
X124747030Y-72464691D01*
X124799781Y-72537260D01*
X124857231Y-72607942D01*
X124917199Y-72674079D01*
X124977503Y-72733011D01*
X124988272Y-72742690D01*
X125080788Y-72818601D01*
X125175387Y-72884149D01*
X125272222Y-72939373D01*
X125371443Y-72984314D01*
X125473202Y-73019011D01*
X125577648Y-73043506D01*
X125684934Y-73057837D01*
X125795211Y-73062045D01*
X125908630Y-73056171D01*
X126025341Y-73040254D01*
X126073186Y-73031041D01*
X126186626Y-73002345D01*
X126298311Y-72963794D01*
X126408539Y-72915244D01*
X126517610Y-72856549D01*
X126625823Y-72787563D01*
X126731447Y-72709736D01*
X126755345Y-72689909D01*
X126784757Y-72663868D01*
X126818047Y-72633203D01*
X126853576Y-72599503D01*
X126889709Y-72564357D01*
X126924810Y-72529354D01*
X126957241Y-72496085D01*
X126985365Y-72466136D01*
X127004820Y-72444295D01*
X127087965Y-72341281D01*
X127160675Y-72237814D01*
X127223100Y-72133523D01*
X127275387Y-72028036D01*
X127317686Y-71920983D01*
X127350146Y-71811992D01*
X127372913Y-71700690D01*
X127386140Y-71586708D01*
X127390006Y-71482200D01*
X127385141Y-71364174D01*
X127370376Y-71249543D01*
X127345952Y-71138671D01*
X127312109Y-71031921D01*
X127269087Y-70929657D01*
X127217127Y-70832245D01*
X127156469Y-70740047D01*
X127087354Y-70653428D01*
X127010023Y-70572752D01*
X126924714Y-70498382D01*
G37*
X126924714Y-70498382D02*
X126831668Y-70430684D01*
X126731128Y-70370020D01*
X126623332Y-70316755D01*
X126619087Y-70314877D01*
X126598336Y-70306297D01*
X126569716Y-70295255D01*
X126535425Y-70282561D01*
X126497659Y-70269017D01*
X126458619Y-70255430D01*
X126435628Y-70247637D01*
X126399017Y-70235102D01*
X126364351Y-70222744D01*
X126333339Y-70211213D01*
X126307697Y-70201157D01*
X126289134Y-70193223D01*
X126280914Y-70189070D01*
X126264144Y-70180513D01*
X126253250Y-70178014D01*
X126250422Y-70179241D01*
X126248653Y-70185278D01*
X126245241Y-70200564D01*
X126240397Y-70223954D01*
X126234334Y-70254305D01*
X126227265Y-70290473D01*
X126219402Y-70331316D01*
X126210958Y-70375690D01*
X126202145Y-70422452D01*
X126193177Y-70470458D01*
X126184265Y-70518565D01*
X126175621Y-70565629D01*
X126167460Y-70610508D01*
X126159993Y-70652057D01*
X126153432Y-70689134D01*
X126147991Y-70720593D01*
X126143881Y-70745295D01*
X126141316Y-70762094D01*
X126140508Y-70769846D01*
X126140563Y-70770190D01*
X126146292Y-70771689D01*
X126160476Y-70772796D01*
X126180992Y-70773404D01*
X126205714Y-70773411D01*
X126206200Y-70773404D01*
X126281959Y-70776970D01*
X126353410Y-70789847D01*
X126421010Y-70812240D01*
X126485221Y-70844355D01*
X126546496Y-70886397D01*
X126605298Y-70938573D01*
X126629100Y-70963270D01*
X126678049Y-71022444D01*
X126716625Y-71082993D01*
X126745010Y-71145480D01*
X126763382Y-71210466D01*
X126771922Y-71278516D01*
X126770811Y-71350191D01*
X126766129Y-71391509D01*
X126750067Y-71469022D01*
X126724127Y-71549392D01*
X126688501Y-71632213D01*
X126643380Y-71717082D01*
X126588955Y-71803593D01*
X126537308Y-71875753D01*
X126516119Y-71902042D01*
X126488372Y-71933750D01*
X126455541Y-71969405D01*
X126419098Y-72007533D01*
X126380514Y-72046660D01*
X126341266Y-72085317D01*
X126302824Y-72122027D01*
X126266661Y-72155319D01*
X126234252Y-72183720D01*
X126208026Y-72205025D01*
X126122379Y-72266351D01*
X126038669Y-72317403D01*
X125956683Y-72358268D01*
X125876204Y-72389032D01*
X125797016Y-72409785D01*
X125718904Y-72420612D01*
X125672410Y-72422381D01*
X125593097Y-72417584D01*
X125518370Y-72403278D01*
X125448439Y-72379589D01*
X125383514Y-72346646D01*
X125323807Y-72304572D01*
X125269526Y-72253498D01*
X125220883Y-72193549D01*
X125178087Y-72124853D01*
X125177283Y-72123374D01*
X125144698Y-72052273D01*
X125120718Y-71975160D01*
X125105399Y-71892259D01*
X125098797Y-71803790D01*
X125098769Y-71802601D01*
X125096996Y-71726000D01*
X125052921Y-71736357D01*
X125019866Y-71744169D01*
X124981492Y-71753314D01*
X124938898Y-71763524D01*
X124893185Y-71774530D01*
X124845450Y-71786065D01*
X124796795Y-71797860D01*
X124748320Y-71809646D01*
X124701125Y-71821155D01*
X124656309Y-71832119D01*
X124614972Y-71842270D01*
X124578214Y-71851339D01*
X124547136Y-71859059D01*
X124522835Y-71865160D01*
X124506415Y-71869374D01*
X124498972Y-71871433D01*
X124498663Y-71871560D01*
X124498637Y-71877279D01*
X124502910Y-71888905D01*
X124506466Y-71896166D01*
X124511813Y-71908453D01*
X124519365Y-71928748D01*
X124528374Y-71954901D01*
X124538096Y-71984757D01*
X124545955Y-72010091D01*
X124568214Y-72081665D01*
X124589040Y-72144414D01*
X124609063Y-72199891D01*
X124628915Y-72249652D01*
X124649224Y-72295252D01*
X124670623Y-72338246D01*
X124693740Y-72380186D01*
X124701161Y-72392892D01*
X124747030Y-72464691D01*
X124799781Y-72537260D01*
X124857231Y-72607942D01*
X124917199Y-72674079D01*
X124977503Y-72733011D01*
X124988272Y-72742690D01*
X125080788Y-72818601D01*
X125175387Y-72884149D01*
X125272222Y-72939373D01*
X125371443Y-72984314D01*
X125473202Y-73019011D01*
X125577648Y-73043506D01*
X125684934Y-73057837D01*
X125795211Y-73062045D01*
X125908630Y-73056171D01*
X126025341Y-73040254D01*
X126073186Y-73031041D01*
X126186626Y-73002345D01*
X126298311Y-72963794D01*
X126408539Y-72915244D01*
X126517610Y-72856549D01*
X126625823Y-72787563D01*
X126731447Y-72709736D01*
X126755345Y-72689909D01*
X126784757Y-72663868D01*
X126818047Y-72633203D01*
X126853576Y-72599503D01*
X126889709Y-72564357D01*
X126924810Y-72529354D01*
X126957241Y-72496085D01*
X126985365Y-72466136D01*
X127004820Y-72444295D01*
X127087965Y-72341281D01*
X127160675Y-72237814D01*
X127223100Y-72133523D01*
X127275387Y-72028036D01*
X127317686Y-71920983D01*
X127350146Y-71811992D01*
X127372913Y-71700690D01*
X127386140Y-71586708D01*
X127390006Y-71482200D01*
X127385141Y-71364174D01*
X127370376Y-71249543D01*
X127345952Y-71138671D01*
X127312109Y-71031921D01*
X127269087Y-70929657D01*
X127217127Y-70832245D01*
X127156469Y-70740047D01*
X127087354Y-70653428D01*
X127010023Y-70572752D01*
X126924714Y-70498382D01*
G36*
X129134490Y-71480439D02*
G01*
X129115147Y-71461952D01*
X129099662Y-71448143D01*
X129086263Y-71437571D01*
X129073177Y-71428795D01*
X129058631Y-71420371D01*
X129048879Y-71415107D01*
X128985448Y-71385663D01*
X128922406Y-71365579D01*
X128857003Y-71354164D01*
X128792784Y-71350727D01*
X128717877Y-71355414D01*
X128646162Y-71369976D01*
X128578197Y-71394220D01*
X128514544Y-71427958D01*
X128466923Y-71461798D01*
X128441410Y-71482232D01*
X128421597Y-71467373D01*
X128395176Y-71452448D01*
X128368591Y-71447640D01*
X128353390Y-71449164D01*
X128351630Y-71449657D01*
X128349422Y-71450680D01*
X128346525Y-71452471D01*
X128342695Y-71455268D01*
X128337692Y-71459314D01*
X128331271Y-71464845D01*
X128323193Y-71472104D01*
X128313214Y-71481327D01*
X128301092Y-71492755D01*
X128286586Y-71506627D01*
X128269453Y-71523184D01*
X128249451Y-71542662D01*
X128226338Y-71565305D01*
X128199871Y-71591349D01*
X128169809Y-71621035D01*
X128135909Y-71654602D01*
X128097930Y-71692289D01*
X128055630Y-71734336D01*
X128008766Y-71780983D01*
X127957095Y-71832469D01*
X127900377Y-71889032D01*
X127838368Y-71950914D01*
X127770826Y-72018352D01*
X127697511Y-72091588D01*
X127618179Y-72170860D01*
X127532589Y-72256407D01*
X127440497Y-72348469D01*
X127341663Y-72447286D01*
X127235843Y-72553097D01*
X127122797Y-72666141D01*
X127116735Y-72672203D01*
X127003365Y-72785575D01*
X126897240Y-72891707D01*
X126798119Y-72990842D01*
X126705763Y-73083223D01*
X126619932Y-73169093D01*
X126540385Y-73248695D01*
X126466883Y-73322270D01*
X126399186Y-73390064D01*
X126337051Y-73452317D01*
X126280242Y-73509273D01*
X126228519Y-73561174D01*
X126181639Y-73608264D01*
X126139363Y-73650786D01*
X126101451Y-73688981D01*
X126067664Y-73723093D01*
X126037761Y-73753365D01*
X126011502Y-73780039D01*
X125988647Y-73803358D01*
X125968956Y-73823567D01*
X125952190Y-73840904D01*
X125938107Y-73855616D01*
X125926469Y-73867945D01*
X125917034Y-73878132D01*
X125909564Y-73886421D01*
X125903817Y-73893056D01*
X125899554Y-73898278D01*
X125896535Y-73902331D01*
X125894520Y-73905456D01*
X125893269Y-73907898D01*
X125892541Y-73909898D01*
X125892318Y-73910730D01*
X125890318Y-73928571D01*
X125891883Y-73945613D01*
X125891960Y-73945919D01*
X125892727Y-73947776D01*
X125894403Y-73950475D01*
X125897211Y-73954242D01*
X125901379Y-73959308D01*
X125907133Y-73965898D01*
X125914700Y-73974243D01*
X125924305Y-73984570D01*
X125936174Y-73997107D01*
X125950533Y-74012083D01*
X125967611Y-74029724D01*
X125987631Y-74050262D01*
X126010821Y-74073923D01*
X126037406Y-74100935D01*
X126067612Y-74131527D01*
X126101667Y-74165927D01*
X126139796Y-74204363D01*
X126182225Y-74247063D01*
X126229181Y-74294256D01*
X126280889Y-74346170D01*
X126337578Y-74403032D01*
X126399470Y-74465071D01*
X126466794Y-74532517D01*
X126539775Y-74605596D01*
X126618641Y-74684536D01*
X126703616Y-74769567D01*
X126794928Y-74860916D01*
X126892802Y-74958812D01*
X126997464Y-75063482D01*
X127109141Y-75175155D01*
X127228059Y-75294060D01*
X127239018Y-75305018D01*
X127358611Y-75424590D01*
X127470952Y-75536901D01*
X127576267Y-75642178D01*
X127674785Y-75740646D01*
X127766735Y-75832533D01*
X127852345Y-75918062D01*
X127931842Y-75997461D01*
X128005454Y-76070956D01*
X128073409Y-76138772D01*
X128135937Y-76201136D01*
X128193264Y-76258273D01*
X128245618Y-76310409D01*
X128293228Y-76357770D01*
X128336323Y-76400583D01*
X128375128Y-76439073D01*
X128409874Y-76473467D01*
X128440788Y-76503989D01*
X128468097Y-76530867D01*
X128492031Y-76554326D01*
X128512816Y-76574592D01*
X128530682Y-76591891D01*
X128545856Y-76606449D01*
X128558566Y-76618492D01*
X128569040Y-76628246D01*
X128577507Y-76635936D01*
X128584193Y-76641790D01*
X128589328Y-76646032D01*
X128593140Y-76648890D01*
X128595856Y-76650587D01*
X128597704Y-76651353D01*
X128597769Y-76651368D01*
X128615004Y-76652741D01*
X128630052Y-76650890D01*
X128631988Y-76650086D01*
X128634808Y-76648325D01*
X128638753Y-76645373D01*
X128644058Y-76640989D01*
X128650966Y-76634940D01*
X128659715Y-76626987D01*
X128670543Y-76616893D01*
X128683690Y-76604423D01*
X128699395Y-76589339D01*
X128717898Y-76571404D01*
X128739438Y-76550383D01*
X128764253Y-76526036D01*
X128792583Y-76498128D01*
X128824667Y-76466422D01*
X128860743Y-76430682D01*
X128901052Y-76390670D01*
X128945834Y-76346150D01*
X128995325Y-76296884D01*
X129049767Y-76242637D01*
X129109397Y-76183170D01*
X129174455Y-76118248D01*
X129245181Y-76047635D01*
X129321813Y-75971090D01*
X129404590Y-75888381D01*
X129493753Y-75799268D01*
X129589539Y-75703516D01*
X129692189Y-75600887D01*
X129801941Y-75491144D01*
X129982255Y-75310830D01*
X130088458Y-75204623D01*
X130187655Y-75105415D01*
X130280087Y-75012961D01*
X130365995Y-74927021D01*
X130445616Y-74847352D01*
X130519191Y-74773710D01*
X130586960Y-74705854D01*
X130649163Y-74643541D01*
X130706037Y-74586528D01*
X130757824Y-74534573D01*
X130804764Y-74487434D01*
X130831796Y-74460251D01*
X130675247Y-74303702D01*
X130636286Y-74307685D01*
X130590161Y-74316234D01*
X130542405Y-74331892D01*
X130497484Y-74353121D01*
X130487228Y-74359113D01*
X130483132Y-74361775D01*
X130478299Y-74365282D01*
X130472427Y-74369931D01*
X130465214Y-74376019D01*
X130456355Y-74383846D01*
X130445550Y-74393705D01*
X130432494Y-74405895D01*
X130416885Y-74420716D01*
X130398420Y-74438463D01*
X130376797Y-74459433D01*
X130351712Y-74483922D01*
X130322863Y-74512232D01*
X130289947Y-74544656D01*
X130252661Y-74581494D01*
X130210702Y-74623041D01*
X130163768Y-74669597D01*
X130111556Y-74721457D01*
X130053762Y-74778919D01*
X129990085Y-74842281D01*
X129920220Y-74911840D01*
X129843866Y-74987893D01*
X129760720Y-75070738D01*
X129670479Y-75160672D01*
X129641535Y-75189520D01*
X129548308Y-75282475D01*
X129459049Y-75371547D01*
X129374001Y-75456488D01*
X129293407Y-75537057D01*
X129217510Y-75613008D01*
X129146551Y-75684098D01*
X129080776Y-75750081D01*
X129020427Y-75810713D01*
X128965747Y-75865751D01*
X128916979Y-75914950D01*
X128874366Y-75958065D01*
X128838150Y-75994854D01*
X128808575Y-76025069D01*
X128785884Y-76048470D01*
X128770320Y-76064810D01*
X128764504Y-76071123D01*
X128739744Y-76099022D01*
X128721002Y-76121047D01*
X128706951Y-76138942D01*
X128696265Y-76154452D01*
X128687617Y-76169323D01*
X128682974Y-76178423D01*
X128664490Y-76222158D01*
X128653282Y-76264350D01*
X128649023Y-76295744D01*
X128647336Y-76312009D01*
X128645740Y-76323240D01*
X128644895Y-76326399D01*
X128641013Y-76322979D01*
X128630207Y-76312614D01*
X128613026Y-76295848D01*
X128590022Y-76273226D01*
X128561746Y-76245294D01*
X128528747Y-76212597D01*
X128491577Y-76175681D01*
X128450787Y-76135090D01*
X128406925Y-76091371D01*
X128360545Y-76045069D01*
X128330718Y-76015257D01*
X128273243Y-75957740D01*
X128222896Y-75907265D01*
X128179287Y-75863426D01*
X128142023Y-75825822D01*
X128110714Y-75794046D01*
X128084964Y-75767695D01*
X128064386Y-75746366D01*
X128048585Y-75729653D01*
X128037169Y-75717153D01*
X128029747Y-75708463D01*
X128025926Y-75703178D01*
X128025316Y-75700894D01*
X128025571Y-75700754D01*
X128034789Y-75698851D01*
X128050332Y-75695961D01*
X128061783Y-75693936D01*
X128092594Y-75685885D01*
X128128788Y-75671939D01*
X128167839Y-75653232D01*
X128207219Y-75630898D01*
X128219348Y-75623253D01*
X128227619Y-75617833D01*
X128235606Y-75612343D01*
X128243855Y-75606269D01*
X128252908Y-75599098D01*
X128263306Y-75590315D01*
X128275595Y-75579406D01*
X128290315Y-75565856D01*
X128308010Y-75549151D01*
X128329222Y-75528778D01*
X128354495Y-75504222D01*
X128384370Y-75474968D01*
X128419391Y-75440502D01*
X128460100Y-75400311D01*
X128507041Y-75353879D01*
X128560755Y-75300694D01*
X128581924Y-75279727D01*
X128642319Y-75219821D01*
X128696691Y-75165713D01*
X128744860Y-75117590D01*
X128786644Y-75075635D01*
X128821860Y-75040033D01*
X128850327Y-75010967D01*
X128871864Y-74988623D01*
X128886287Y-74973185D01*
X128893415Y-74964838D01*
X128894130Y-74963315D01*
X128888280Y-74963756D01*
X128872858Y-74965702D01*
X128848747Y-74969017D01*
X128816830Y-74973566D01*
X128777992Y-74979215D01*
X128733115Y-74985828D01*
X128683081Y-74993271D01*
X128628776Y-75001409D01*
X128571082Y-75010106D01*
X128510883Y-75019228D01*
X128449062Y-75028641D01*
X128386501Y-75038209D01*
X128324087Y-75047796D01*
X128262699Y-75057269D01*
X128203224Y-75066491D01*
X128146543Y-75075330D01*
X128093540Y-75083649D01*
X128045098Y-75091313D01*
X128002102Y-75098188D01*
X127965434Y-75104138D01*
X127935976Y-75109029D01*
X127914614Y-75112726D01*
X127908161Y-75113910D01*
X127853029Y-75125539D01*
X127800987Y-75138861D01*
X127754458Y-75153193D01*
X127715864Y-75167847D01*
X127712867Y-75169157D01*
X127697903Y-75176403D01*
X127684533Y-75184699D01*
X127670460Y-75195821D01*
X127653392Y-75211547D01*
X127635905Y-75228771D01*
X127590067Y-75274609D01*
X127246664Y-74931204D01*
X126903261Y-74587799D01*
X126907781Y-74588137D01*
X126785807Y-74466163D01*
X126781831Y-74462845D01*
X126770953Y-74452592D01*
X126753742Y-74435967D01*
X126730767Y-74413529D01*
X126702599Y-74385843D01*
X126669807Y-74353468D01*
X126632959Y-74316967D01*
X126592625Y-74276899D01*
X126549377Y-74233827D01*
X126503781Y-74188314D01*
X126490012Y-74174551D01*
X126196307Y-73880846D01*
X126227727Y-73876718D01*
X126270535Y-73867349D01*
X126316019Y-73850628D01*
X126342812Y-73837727D01*
X126346467Y-73835550D01*
X126351133Y-73832244D01*
X126357134Y-73827488D01*
X126364794Y-73820964D01*
X126374440Y-73812354D01*
X126386398Y-73801337D01*
X126400989Y-73787597D01*
X126418544Y-73770813D01*
X126439385Y-73750668D01*
X126463837Y-73726842D01*
X126492227Y-73699017D01*
X126524879Y-73666874D01*
X126562119Y-73630094D01*
X126604271Y-73588359D01*
X126651661Y-73541349D01*
X126704615Y-73488747D01*
X126763458Y-73430232D01*
X126828515Y-73365488D01*
X126900111Y-73294195D01*
X126978571Y-73216033D01*
X127056847Y-73138035D01*
X127745581Y-72451666D01*
X128009483Y-72715569D01*
X128062002Y-72768136D01*
X128107416Y-72813705D01*
X128146148Y-72852713D01*
X128178623Y-72885603D01*
X128205263Y-72912811D01*
X128226494Y-72934777D01*
X128242738Y-72951941D01*
X128254420Y-72964741D01*
X128261962Y-72973617D01*
X128265788Y-72979008D01*
X128266324Y-72981353D01*
X128266059Y-72981499D01*
X128255316Y-72983373D01*
X128244632Y-72984395D01*
X128228040Y-72987366D01*
X128205296Y-72993959D01*
X128179683Y-73002985D01*
X128154478Y-73013256D01*
X128132960Y-73023584D01*
X128126547Y-73027206D01*
X128119207Y-73033113D01*
X128104912Y-73046068D01*
X128084148Y-73065589D01*
X128057393Y-73091196D01*
X128025132Y-73122407D01*
X127987846Y-73158737D01*
X127946016Y-73199707D01*
X127900125Y-73244833D01*
X127850654Y-73293635D01*
X127798085Y-73345630D01*
X127742901Y-73400336D01*
X127685583Y-73457271D01*
X127626612Y-73515955D01*
X127566472Y-73575903D01*
X127505643Y-73636635D01*
X127444609Y-73697669D01*
X127383850Y-73758523D01*
X127323849Y-73818714D01*
X127265087Y-73877761D01*
X127208046Y-73935182D01*
X127153210Y-73990495D01*
X127101058Y-74043218D01*
X127052074Y-74092870D01*
X127006739Y-74138968D01*
X126965534Y-74181029D01*
X126928943Y-74218574D01*
X126897446Y-74251118D01*
X126871526Y-74278181D01*
X126851665Y-74299281D01*
X126838344Y-74313935D01*
X126832047Y-74321663D01*
X126831913Y-74321878D01*
X126816996Y-74351161D01*
X126803965Y-74384742D01*
X126794460Y-74417949D01*
X126790694Y-74439246D01*
X126788640Y-74454295D01*
X126786607Y-74464240D01*
X126785807Y-74466163D01*
X126907781Y-74588137D01*
X126951684Y-74591425D01*
X126976149Y-74592262D01*
X127009162Y-74591920D01*
X127048770Y-74590512D01*
X127093016Y-74588154D01*
X127139945Y-74584955D01*
X127187603Y-74581031D01*
X127234033Y-74576493D01*
X127259534Y-74573637D01*
X127271928Y-74571957D01*
X127294116Y-74568708D01*
X127325442Y-74563990D01*
X127365252Y-74557907D01*
X127412888Y-74550560D01*
X127467696Y-74542052D01*
X127529019Y-74532486D01*
X127596200Y-74521963D01*
X127668587Y-74510587D01*
X127745520Y-74498461D01*
X127826346Y-74485685D01*
X127910407Y-74472363D01*
X127997050Y-74458597D01*
X128055105Y-74449354D01*
X128790434Y-74332184D01*
X128793320Y-74304512D01*
X128794245Y-74295841D01*
X128796242Y-74277312D01*
X128799233Y-74249589D01*
X128803153Y-74213335D01*
X128807926Y-74169213D01*
X128813481Y-74117887D01*
X128819745Y-74060020D01*
X128826649Y-73996278D01*
X128834119Y-73927321D01*
X128842083Y-73853815D01*
X128850472Y-73776423D01*
X128859210Y-73695807D01*
X128867951Y-73615196D01*
X128877036Y-73531219D01*
X128885867Y-73449254D01*
X128894365Y-73370016D01*
X128902456Y-73294222D01*
X128910067Y-73222587D01*
X128917119Y-73155829D01*
X128923540Y-73094663D01*
X128929253Y-73039804D01*
X128934184Y-72991970D01*
X128938256Y-72951877D01*
X128941396Y-72920240D01*
X128943528Y-72897775D01*
X128944511Y-72886142D01*
X128946676Y-72845591D01*
X128947772Y-72801486D01*
X128947853Y-72756072D01*
X128946968Y-72711590D01*
X128945172Y-72670286D01*
X128942513Y-72634400D01*
X128939046Y-72606177D01*
X128937894Y-72599737D01*
X128929704Y-72558159D01*
X129608366Y-73236822D01*
X129592816Y-73244332D01*
X129581404Y-73252154D01*
X129566634Y-73265331D01*
X129552221Y-73280445D01*
X129529680Y-73311429D01*
X129509882Y-73350027D01*
X129492602Y-73396883D01*
X129477618Y-73452640D01*
X129464706Y-73517945D01*
X129460315Y-73545267D01*
X129458194Y-73560452D01*
X129455091Y-73584393D01*
X129451113Y-73616184D01*
X129446363Y-73654920D01*
X129440947Y-73699694D01*
X129434970Y-73749601D01*
X129428537Y-73803735D01*
X129421753Y-73861191D01*
X129414722Y-73921061D01*
X129407551Y-73982440D01*
X129400343Y-74044425D01*
X129393205Y-74106106D01*
X129386240Y-74166579D01*
X129379554Y-74224940D01*
X129373253Y-74280280D01*
X129367440Y-74331695D01*
X129362221Y-74378279D01*
X129357702Y-74419126D01*
X129353986Y-74453330D01*
X129351180Y-74479985D01*
X129349387Y-74498187D01*
X129348714Y-74507027D01*
X129348737Y-74507690D01*
X129352613Y-74505250D01*
X129363203Y-74495938D01*
X129379817Y-74480447D01*
X129401763Y-74459469D01*
X129428351Y-74433693D01*
X129458892Y-74403812D01*
X129492694Y-74370517D01*
X129529067Y-74334500D01*
X129567321Y-74296452D01*
X129606765Y-74257063D01*
X129646708Y-74217026D01*
X129686461Y-74177032D01*
X129725332Y-74137772D01*
X129762632Y-74099938D01*
X129797670Y-74064221D01*
X129829755Y-74031312D01*
X129858198Y-74001902D01*
X129882307Y-73976683D01*
X129901391Y-73956347D01*
X129914762Y-73941584D01*
X129918684Y-73936999D01*
X129960441Y-73882023D01*
X129993937Y-73828051D01*
X130018736Y-73775941D01*
X130034400Y-73726545D01*
X130038722Y-73702725D01*
X130042851Y-73671306D01*
X130675247Y-74303702D01*
X130831796Y-74460251D01*
X130847094Y-74444867D01*
X130885056Y-74406631D01*
X130918888Y-74372482D01*
X130948832Y-74342179D01*
X130975126Y-74315478D01*
X130998009Y-74292137D01*
X131017722Y-74271914D01*
X131034504Y-74254567D01*
X131048594Y-74239851D01*
X131060233Y-74227526D01*
X131069660Y-74217349D01*
X131077115Y-74209076D01*
X131082836Y-74202466D01*
X131087065Y-74197276D01*
X131090039Y-74193264D01*
X131092000Y-74190186D01*
X131093187Y-74187800D01*
X131093839Y-74185865D01*
X131094196Y-74184136D01*
X131094209Y-74184057D01*
X131094409Y-74166518D01*
X131094263Y-74165780D01*
X129067865Y-72139382D01*
X129032921Y-72172099D01*
X128997363Y-72199077D01*
X128986330Y-72206009D01*
X128931741Y-72232373D01*
X128873595Y-72249466D01*
X128813419Y-72257284D01*
X128752738Y-72255822D01*
X128693079Y-72245075D01*
X128635969Y-72225037D01*
X128601417Y-72207308D01*
X128573980Y-72188469D01*
X128543877Y-72163183D01*
X128513838Y-72134109D01*
X128486599Y-72103901D01*
X128464891Y-72075218D01*
X128463771Y-72073521D01*
X128440832Y-72030475D01*
X128423279Y-71981047D01*
X128411872Y-71928371D01*
X128407368Y-71875584D01*
X128408367Y-71844267D01*
X128417845Y-71787591D01*
X128436395Y-71731287D01*
X128447952Y-71705972D01*
X128456596Y-71689419D01*
X128465007Y-71675497D01*
X128474824Y-71662138D01*
X128487684Y-71647270D01*
X128505224Y-71628825D01*
X128523964Y-71609862D01*
X128546571Y-71587393D01*
X128563917Y-71570949D01*
X128578049Y-71558905D01*
X128591019Y-71549632D01*
X128604879Y-71541509D01*
X128619975Y-71533751D01*
X128673549Y-71512728D01*
X128731094Y-71500236D01*
X128790704Y-71496170D01*
X128850478Y-71500426D01*
X128908511Y-71512897D01*
X128962901Y-71533479D01*
X129001168Y-71554832D01*
X129035961Y-71581554D01*
X129070574Y-71615280D01*
X129102109Y-71652788D01*
X129127667Y-71690855D01*
X129134075Y-71702560D01*
X129157482Y-71759368D01*
X129171267Y-71818932D01*
X129175471Y-71879804D01*
X129170136Y-71940531D01*
X129155304Y-71999663D01*
X129131018Y-72055750D01*
X129123454Y-72069159D01*
X129099081Y-72104032D01*
X129067865Y-72139382D01*
X131094263Y-74165780D01*
X131090802Y-74148301D01*
X131090480Y-74147367D01*
X131089340Y-74144945D01*
X131087210Y-74141627D01*
X131083820Y-74137138D01*
X131078900Y-74131205D01*
X131072182Y-74123556D01*
X131063395Y-74113916D01*
X131052269Y-74102013D01*
X131038534Y-74087574D01*
X131021922Y-74070324D01*
X131002162Y-74049993D01*
X130978983Y-74026304D01*
X130952117Y-73998987D01*
X130921295Y-73967768D01*
X130886245Y-73932372D01*
X130846698Y-73892529D01*
X130802386Y-73847963D01*
X130753036Y-73798401D01*
X130698380Y-73743571D01*
X130638149Y-73683200D01*
X130572072Y-73617014D01*
X130499880Y-73544740D01*
X130421301Y-73466104D01*
X130336069Y-73380834D01*
X130243912Y-73288657D01*
X130144561Y-73189299D01*
X130135245Y-73179984D01*
X130035214Y-73079947D01*
X129942407Y-72987120D01*
X129856557Y-72901234D01*
X129777399Y-72822019D01*
X129704668Y-72749206D01*
X129638096Y-72682526D01*
X129577419Y-72621711D01*
X129522372Y-72566491D01*
X129472688Y-72516598D01*
X129428103Y-72471762D01*
X129388349Y-72431715D01*
X129353162Y-72396187D01*
X129322277Y-72364909D01*
X129295426Y-72337614D01*
X129272345Y-72314030D01*
X129252768Y-72293890D01*
X129236429Y-72276925D01*
X129223063Y-72262866D01*
X129212404Y-72251443D01*
X129204186Y-72242387D01*
X129198144Y-72235431D01*
X129194012Y-72230304D01*
X129191525Y-72226737D01*
X129190416Y-72224463D01*
X129190383Y-72223284D01*
X129196608Y-72213844D01*
X129206341Y-72202784D01*
X129218159Y-72188297D01*
X129232574Y-72166626D01*
X129248124Y-72140360D01*
X129263347Y-72112087D01*
X129276780Y-72084399D01*
X129286798Y-72060327D01*
X129305591Y-71995567D01*
X129316064Y-71927499D01*
X129318231Y-71858266D01*
X129312107Y-71790009D01*
X129297707Y-71724871D01*
X129284190Y-71685896D01*
X129269785Y-71651714D01*
X129255988Y-71623260D01*
X129241218Y-71598240D01*
X129223895Y-71574363D01*
X129202438Y-71549337D01*
X129175266Y-71520869D01*
X129159466Y-71505047D01*
X129134490Y-71480439D01*
G37*
X129134490Y-71480439D02*
X129115147Y-71461952D01*
X129099662Y-71448143D01*
X129086263Y-71437571D01*
X129073177Y-71428795D01*
X129058631Y-71420371D01*
X129048879Y-71415107D01*
X128985448Y-71385663D01*
X128922406Y-71365579D01*
X128857003Y-71354164D01*
X128792784Y-71350727D01*
X128717877Y-71355414D01*
X128646162Y-71369976D01*
X128578197Y-71394220D01*
X128514544Y-71427958D01*
X128466923Y-71461798D01*
X128441410Y-71482232D01*
X128421597Y-71467373D01*
X128395176Y-71452448D01*
X128368591Y-71447640D01*
X128353390Y-71449164D01*
X128351630Y-71449657D01*
X128349422Y-71450680D01*
X128346525Y-71452471D01*
X128342695Y-71455268D01*
X128337692Y-71459314D01*
X128331271Y-71464845D01*
X128323193Y-71472104D01*
X128313214Y-71481327D01*
X128301092Y-71492755D01*
X128286586Y-71506627D01*
X128269453Y-71523184D01*
X128249451Y-71542662D01*
X128226338Y-71565305D01*
X128199871Y-71591349D01*
X128169809Y-71621035D01*
X128135909Y-71654602D01*
X128097930Y-71692289D01*
X128055630Y-71734336D01*
X128008766Y-71780983D01*
X127957095Y-71832469D01*
X127900377Y-71889032D01*
X127838368Y-71950914D01*
X127770826Y-72018352D01*
X127697511Y-72091588D01*
X127618179Y-72170860D01*
X127532589Y-72256407D01*
X127440497Y-72348469D01*
X127341663Y-72447286D01*
X127235843Y-72553097D01*
X127122797Y-72666141D01*
X127116735Y-72672203D01*
X127003365Y-72785575D01*
X126897240Y-72891707D01*
X126798119Y-72990842D01*
X126705763Y-73083223D01*
X126619932Y-73169093D01*
X126540385Y-73248695D01*
X126466883Y-73322270D01*
X126399186Y-73390064D01*
X126337051Y-73452317D01*
X126280242Y-73509273D01*
X126228519Y-73561174D01*
X126181639Y-73608264D01*
X126139363Y-73650786D01*
X126101451Y-73688981D01*
X126067664Y-73723093D01*
X126037761Y-73753365D01*
X126011502Y-73780039D01*
X125988647Y-73803358D01*
X125968956Y-73823567D01*
X125952190Y-73840904D01*
X125938107Y-73855616D01*
X125926469Y-73867945D01*
X125917034Y-73878132D01*
X125909564Y-73886421D01*
X125903817Y-73893056D01*
X125899554Y-73898278D01*
X125896535Y-73902331D01*
X125894520Y-73905456D01*
X125893269Y-73907898D01*
X125892541Y-73909898D01*
X125892318Y-73910730D01*
X125890318Y-73928571D01*
X125891883Y-73945613D01*
X125891960Y-73945919D01*
X125892727Y-73947776D01*
X125894403Y-73950475D01*
X125897211Y-73954242D01*
X125901379Y-73959308D01*
X125907133Y-73965898D01*
X125914700Y-73974243D01*
X125924305Y-73984570D01*
X125936174Y-73997107D01*
X125950533Y-74012083D01*
X125967611Y-74029724D01*
X125987631Y-74050262D01*
X126010821Y-74073923D01*
X126037406Y-74100935D01*
X126067612Y-74131527D01*
X126101667Y-74165927D01*
X126139796Y-74204363D01*
X126182225Y-74247063D01*
X126229181Y-74294256D01*
X126280889Y-74346170D01*
X126337578Y-74403032D01*
X126399470Y-74465071D01*
X126466794Y-74532517D01*
X126539775Y-74605596D01*
X126618641Y-74684536D01*
X126703616Y-74769567D01*
X126794928Y-74860916D01*
X126892802Y-74958812D01*
X126997464Y-75063482D01*
X127109141Y-75175155D01*
X127228059Y-75294060D01*
X127239018Y-75305018D01*
X127358611Y-75424590D01*
X127470952Y-75536901D01*
X127576267Y-75642178D01*
X127674785Y-75740646D01*
X127766735Y-75832533D01*
X127852345Y-75918062D01*
X127931842Y-75997461D01*
X128005454Y-76070956D01*
X128073409Y-76138772D01*
X128135937Y-76201136D01*
X128193264Y-76258273D01*
X128245618Y-76310409D01*
X128293228Y-76357770D01*
X128336323Y-76400583D01*
X128375128Y-76439073D01*
X128409874Y-76473467D01*
X128440788Y-76503989D01*
X128468097Y-76530867D01*
X128492031Y-76554326D01*
X128512816Y-76574592D01*
X128530682Y-76591891D01*
X128545856Y-76606449D01*
X128558566Y-76618492D01*
X128569040Y-76628246D01*
X128577507Y-76635936D01*
X128584193Y-76641790D01*
X128589328Y-76646032D01*
X128593140Y-76648890D01*
X128595856Y-76650587D01*
X128597704Y-76651353D01*
X128597769Y-76651368D01*
X128615004Y-76652741D01*
X128630052Y-76650890D01*
X128631988Y-76650086D01*
X128634808Y-76648325D01*
X128638753Y-76645373D01*
X128644058Y-76640989D01*
X128650966Y-76634940D01*
X128659715Y-76626987D01*
X128670543Y-76616893D01*
X128683690Y-76604423D01*
X128699395Y-76589339D01*
X128717898Y-76571404D01*
X128739438Y-76550383D01*
X128764253Y-76526036D01*
X128792583Y-76498128D01*
X128824667Y-76466422D01*
X128860743Y-76430682D01*
X128901052Y-76390670D01*
X128945834Y-76346150D01*
X128995325Y-76296884D01*
X129049767Y-76242637D01*
X129109397Y-76183170D01*
X129174455Y-76118248D01*
X129245181Y-76047635D01*
X129321813Y-75971090D01*
X129404590Y-75888381D01*
X129493753Y-75799268D01*
X129589539Y-75703516D01*
X129692189Y-75600887D01*
X129801941Y-75491144D01*
X129982255Y-75310830D01*
X130088458Y-75204623D01*
X130187655Y-75105415D01*
X130280087Y-75012961D01*
X130365995Y-74927021D01*
X130445616Y-74847352D01*
X130519191Y-74773710D01*
X130586960Y-74705854D01*
X130649163Y-74643541D01*
X130706037Y-74586528D01*
X130757824Y-74534573D01*
X130804764Y-74487434D01*
X130831796Y-74460251D01*
X130675247Y-74303702D01*
X130636286Y-74307685D01*
X130590161Y-74316234D01*
X130542405Y-74331892D01*
X130497484Y-74353121D01*
X130487228Y-74359113D01*
X130483132Y-74361775D01*
X130478299Y-74365282D01*
X130472427Y-74369931D01*
X130465214Y-74376019D01*
X130456355Y-74383846D01*
X130445550Y-74393705D01*
X130432494Y-74405895D01*
X130416885Y-74420716D01*
X130398420Y-74438463D01*
X130376797Y-74459433D01*
X130351712Y-74483922D01*
X130322863Y-74512232D01*
X130289947Y-74544656D01*
X130252661Y-74581494D01*
X130210702Y-74623041D01*
X130163768Y-74669597D01*
X130111556Y-74721457D01*
X130053762Y-74778919D01*
X129990085Y-74842281D01*
X129920220Y-74911840D01*
X129843866Y-74987893D01*
X129760720Y-75070738D01*
X129670479Y-75160672D01*
X129641535Y-75189520D01*
X129548308Y-75282475D01*
X129459049Y-75371547D01*
X129374001Y-75456488D01*
X129293407Y-75537057D01*
X129217510Y-75613008D01*
X129146551Y-75684098D01*
X129080776Y-75750081D01*
X129020427Y-75810713D01*
X128965747Y-75865751D01*
X128916979Y-75914950D01*
X128874366Y-75958065D01*
X128838150Y-75994854D01*
X128808575Y-76025069D01*
X128785884Y-76048470D01*
X128770320Y-76064810D01*
X128764504Y-76071123D01*
X128739744Y-76099022D01*
X128721002Y-76121047D01*
X128706951Y-76138942D01*
X128696265Y-76154452D01*
X128687617Y-76169323D01*
X128682974Y-76178423D01*
X128664490Y-76222158D01*
X128653282Y-76264350D01*
X128649023Y-76295744D01*
X128647336Y-76312009D01*
X128645740Y-76323240D01*
X128644895Y-76326399D01*
X128641013Y-76322979D01*
X128630207Y-76312614D01*
X128613026Y-76295848D01*
X128590022Y-76273226D01*
X128561746Y-76245294D01*
X128528747Y-76212597D01*
X128491577Y-76175681D01*
X128450787Y-76135090D01*
X128406925Y-76091371D01*
X128360545Y-76045069D01*
X128330718Y-76015257D01*
X128273243Y-75957740D01*
X128222896Y-75907265D01*
X128179287Y-75863426D01*
X128142023Y-75825822D01*
X128110714Y-75794046D01*
X128084964Y-75767695D01*
X128064386Y-75746366D01*
X128048585Y-75729653D01*
X128037169Y-75717153D01*
X128029747Y-75708463D01*
X128025926Y-75703178D01*
X128025316Y-75700894D01*
X128025571Y-75700754D01*
X128034789Y-75698851D01*
X128050332Y-75695961D01*
X128061783Y-75693936D01*
X128092594Y-75685885D01*
X128128788Y-75671939D01*
X128167839Y-75653232D01*
X128207219Y-75630898D01*
X128219348Y-75623253D01*
X128227619Y-75617833D01*
X128235606Y-75612343D01*
X128243855Y-75606269D01*
X128252908Y-75599098D01*
X128263306Y-75590315D01*
X128275595Y-75579406D01*
X128290315Y-75565856D01*
X128308010Y-75549151D01*
X128329222Y-75528778D01*
X128354495Y-75504222D01*
X128384370Y-75474968D01*
X128419391Y-75440502D01*
X128460100Y-75400311D01*
X128507041Y-75353879D01*
X128560755Y-75300694D01*
X128581924Y-75279727D01*
X128642319Y-75219821D01*
X128696691Y-75165713D01*
X128744860Y-75117590D01*
X128786644Y-75075635D01*
X128821860Y-75040033D01*
X128850327Y-75010967D01*
X128871864Y-74988623D01*
X128886287Y-74973185D01*
X128893415Y-74964838D01*
X128894130Y-74963315D01*
X128888280Y-74963756D01*
X128872858Y-74965702D01*
X128848747Y-74969017D01*
X128816830Y-74973566D01*
X128777992Y-74979215D01*
X128733115Y-74985828D01*
X128683081Y-74993271D01*
X128628776Y-75001409D01*
X128571082Y-75010106D01*
X128510883Y-75019228D01*
X128449062Y-75028641D01*
X128386501Y-75038209D01*
X128324087Y-75047796D01*
X128262699Y-75057269D01*
X128203224Y-75066491D01*
X128146543Y-75075330D01*
X128093540Y-75083649D01*
X128045098Y-75091313D01*
X128002102Y-75098188D01*
X127965434Y-75104138D01*
X127935976Y-75109029D01*
X127914614Y-75112726D01*
X127908161Y-75113910D01*
X127853029Y-75125539D01*
X127800987Y-75138861D01*
X127754458Y-75153193D01*
X127715864Y-75167847D01*
X127712867Y-75169157D01*
X127697903Y-75176403D01*
X127684533Y-75184699D01*
X127670460Y-75195821D01*
X127653392Y-75211547D01*
X127635905Y-75228771D01*
X127590067Y-75274609D01*
X127246664Y-74931204D01*
X126903261Y-74587799D01*
X126907781Y-74588137D01*
X126785807Y-74466163D01*
X126781831Y-74462845D01*
X126770953Y-74452592D01*
X126753742Y-74435967D01*
X126730767Y-74413529D01*
X126702599Y-74385843D01*
X126669807Y-74353468D01*
X126632959Y-74316967D01*
X126592625Y-74276899D01*
X126549377Y-74233827D01*
X126503781Y-74188314D01*
X126490012Y-74174551D01*
X126196307Y-73880846D01*
X126227727Y-73876718D01*
X126270535Y-73867349D01*
X126316019Y-73850628D01*
X126342812Y-73837727D01*
X126346467Y-73835550D01*
X126351133Y-73832244D01*
X126357134Y-73827488D01*
X126364794Y-73820964D01*
X126374440Y-73812354D01*
X126386398Y-73801337D01*
X126400989Y-73787597D01*
X126418544Y-73770813D01*
X126439385Y-73750668D01*
X126463837Y-73726842D01*
X126492227Y-73699017D01*
X126524879Y-73666874D01*
X126562119Y-73630094D01*
X126604271Y-73588359D01*
X126651661Y-73541349D01*
X126704615Y-73488747D01*
X126763458Y-73430232D01*
X126828515Y-73365488D01*
X126900111Y-73294195D01*
X126978571Y-73216033D01*
X127056847Y-73138035D01*
X127745581Y-72451666D01*
X128009483Y-72715569D01*
X128062002Y-72768136D01*
X128107416Y-72813705D01*
X128146148Y-72852713D01*
X128178623Y-72885603D01*
X128205263Y-72912811D01*
X128226494Y-72934777D01*
X128242738Y-72951941D01*
X128254420Y-72964741D01*
X128261962Y-72973617D01*
X128265788Y-72979008D01*
X128266324Y-72981353D01*
X128266059Y-72981499D01*
X128255316Y-72983373D01*
X128244632Y-72984395D01*
X128228040Y-72987366D01*
X128205296Y-72993959D01*
X128179683Y-73002985D01*
X128154478Y-73013256D01*
X128132960Y-73023584D01*
X128126547Y-73027206D01*
X128119207Y-73033113D01*
X128104912Y-73046068D01*
X128084148Y-73065589D01*
X128057393Y-73091196D01*
X128025132Y-73122407D01*
X127987846Y-73158737D01*
X127946016Y-73199707D01*
X127900125Y-73244833D01*
X127850654Y-73293635D01*
X127798085Y-73345630D01*
X127742901Y-73400336D01*
X127685583Y-73457271D01*
X127626612Y-73515955D01*
X127566472Y-73575903D01*
X127505643Y-73636635D01*
X127444609Y-73697669D01*
X127383850Y-73758523D01*
X127323849Y-73818714D01*
X127265087Y-73877761D01*
X127208046Y-73935182D01*
X127153210Y-73990495D01*
X127101058Y-74043218D01*
X127052074Y-74092870D01*
X127006739Y-74138968D01*
X126965534Y-74181029D01*
X126928943Y-74218574D01*
X126897446Y-74251118D01*
X126871526Y-74278181D01*
X126851665Y-74299281D01*
X126838344Y-74313935D01*
X126832047Y-74321663D01*
X126831913Y-74321878D01*
X126816996Y-74351161D01*
X126803965Y-74384742D01*
X126794460Y-74417949D01*
X126790694Y-74439246D01*
X126788640Y-74454295D01*
X126786607Y-74464240D01*
X126785807Y-74466163D01*
X126907781Y-74588137D01*
X126951684Y-74591425D01*
X126976149Y-74592262D01*
X127009162Y-74591920D01*
X127048770Y-74590512D01*
X127093016Y-74588154D01*
X127139945Y-74584955D01*
X127187603Y-74581031D01*
X127234033Y-74576493D01*
X127259534Y-74573637D01*
X127271928Y-74571957D01*
X127294116Y-74568708D01*
X127325442Y-74563990D01*
X127365252Y-74557907D01*
X127412888Y-74550560D01*
X127467696Y-74542052D01*
X127529019Y-74532486D01*
X127596200Y-74521963D01*
X127668587Y-74510587D01*
X127745520Y-74498461D01*
X127826346Y-74485685D01*
X127910407Y-74472363D01*
X127997050Y-74458597D01*
X128055105Y-74449354D01*
X128790434Y-74332184D01*
X128793320Y-74304512D01*
X128794245Y-74295841D01*
X128796242Y-74277312D01*
X128799233Y-74249589D01*
X128803153Y-74213335D01*
X128807926Y-74169213D01*
X128813481Y-74117887D01*
X128819745Y-74060020D01*
X128826649Y-73996278D01*
X128834119Y-73927321D01*
X128842083Y-73853815D01*
X128850472Y-73776423D01*
X128859210Y-73695807D01*
X128867951Y-73615196D01*
X128877036Y-73531219D01*
X128885867Y-73449254D01*
X128894365Y-73370016D01*
X128902456Y-73294222D01*
X128910067Y-73222587D01*
X128917119Y-73155829D01*
X128923540Y-73094663D01*
X128929253Y-73039804D01*
X128934184Y-72991970D01*
X128938256Y-72951877D01*
X128941396Y-72920240D01*
X128943528Y-72897775D01*
X128944511Y-72886142D01*
X128946676Y-72845591D01*
X128947772Y-72801486D01*
X128947853Y-72756072D01*
X128946968Y-72711590D01*
X128945172Y-72670286D01*
X128942513Y-72634400D01*
X128939046Y-72606177D01*
X128937894Y-72599737D01*
X128929704Y-72558159D01*
X129608366Y-73236822D01*
X129592816Y-73244332D01*
X129581404Y-73252154D01*
X129566634Y-73265331D01*
X129552221Y-73280445D01*
X129529680Y-73311429D01*
X129509882Y-73350027D01*
X129492602Y-73396883D01*
X129477618Y-73452640D01*
X129464706Y-73517945D01*
X129460315Y-73545267D01*
X129458194Y-73560452D01*
X129455091Y-73584393D01*
X129451113Y-73616184D01*
X129446363Y-73654920D01*
X129440947Y-73699694D01*
X129434970Y-73749601D01*
X129428537Y-73803735D01*
X129421753Y-73861191D01*
X129414722Y-73921061D01*
X129407551Y-73982440D01*
X129400343Y-74044425D01*
X129393205Y-74106106D01*
X129386240Y-74166579D01*
X129379554Y-74224940D01*
X129373253Y-74280280D01*
X129367440Y-74331695D01*
X129362221Y-74378279D01*
X129357702Y-74419126D01*
X129353986Y-74453330D01*
X129351180Y-74479985D01*
X129349387Y-74498187D01*
X129348714Y-74507027D01*
X129348737Y-74507690D01*
X129352613Y-74505250D01*
X129363203Y-74495938D01*
X129379817Y-74480447D01*
X129401763Y-74459469D01*
X129428351Y-74433693D01*
X129458892Y-74403812D01*
X129492694Y-74370517D01*
X129529067Y-74334500D01*
X129567321Y-74296452D01*
X129606765Y-74257063D01*
X129646708Y-74217026D01*
X129686461Y-74177032D01*
X129725332Y-74137772D01*
X129762632Y-74099938D01*
X129797670Y-74064221D01*
X129829755Y-74031312D01*
X129858198Y-74001902D01*
X129882307Y-73976683D01*
X129901391Y-73956347D01*
X129914762Y-73941584D01*
X129918684Y-73936999D01*
X129960441Y-73882023D01*
X129993937Y-73828051D01*
X130018736Y-73775941D01*
X130034400Y-73726545D01*
X130038722Y-73702725D01*
X130042851Y-73671306D01*
X130675247Y-74303702D01*
X130831796Y-74460251D01*
X130847094Y-74444867D01*
X130885056Y-74406631D01*
X130918888Y-74372482D01*
X130948832Y-74342179D01*
X130975126Y-74315478D01*
X130998009Y-74292137D01*
X131017722Y-74271914D01*
X131034504Y-74254567D01*
X131048594Y-74239851D01*
X131060233Y-74227526D01*
X131069660Y-74217349D01*
X131077115Y-74209076D01*
X131082836Y-74202466D01*
X131087065Y-74197276D01*
X131090039Y-74193264D01*
X131092000Y-74190186D01*
X131093187Y-74187800D01*
X131093839Y-74185865D01*
X131094196Y-74184136D01*
X131094209Y-74184057D01*
X131094409Y-74166518D01*
X131094263Y-74165780D01*
X129067865Y-72139382D01*
X129032921Y-72172099D01*
X128997363Y-72199077D01*
X128986330Y-72206009D01*
X128931741Y-72232373D01*
X128873595Y-72249466D01*
X128813419Y-72257284D01*
X128752738Y-72255822D01*
X128693079Y-72245075D01*
X128635969Y-72225037D01*
X128601417Y-72207308D01*
X128573980Y-72188469D01*
X128543877Y-72163183D01*
X128513838Y-72134109D01*
X128486599Y-72103901D01*
X128464891Y-72075218D01*
X128463771Y-72073521D01*
X128440832Y-72030475D01*
X128423279Y-71981047D01*
X128411872Y-71928371D01*
X128407368Y-71875584D01*
X128408367Y-71844267D01*
X128417845Y-71787591D01*
X128436395Y-71731287D01*
X128447952Y-71705972D01*
X128456596Y-71689419D01*
X128465007Y-71675497D01*
X128474824Y-71662138D01*
X128487684Y-71647270D01*
X128505224Y-71628825D01*
X128523964Y-71609862D01*
X128546571Y-71587393D01*
X128563917Y-71570949D01*
X128578049Y-71558905D01*
X128591019Y-71549632D01*
X128604879Y-71541509D01*
X128619975Y-71533751D01*
X128673549Y-71512728D01*
X128731094Y-71500236D01*
X128790704Y-71496170D01*
X128850478Y-71500426D01*
X128908511Y-71512897D01*
X128962901Y-71533479D01*
X129001168Y-71554832D01*
X129035961Y-71581554D01*
X129070574Y-71615280D01*
X129102109Y-71652788D01*
X129127667Y-71690855D01*
X129134075Y-71702560D01*
X129157482Y-71759368D01*
X129171267Y-71818932D01*
X129175471Y-71879804D01*
X129170136Y-71940531D01*
X129155304Y-71999663D01*
X129131018Y-72055750D01*
X129123454Y-72069159D01*
X129099081Y-72104032D01*
X129067865Y-72139382D01*
X131094263Y-74165780D01*
X131090802Y-74148301D01*
X131090480Y-74147367D01*
X131089340Y-74144945D01*
X131087210Y-74141627D01*
X131083820Y-74137138D01*
X131078900Y-74131205D01*
X131072182Y-74123556D01*
X131063395Y-74113916D01*
X131052269Y-74102013D01*
X131038534Y-74087574D01*
X131021922Y-74070324D01*
X131002162Y-74049993D01*
X130978983Y-74026304D01*
X130952117Y-73998987D01*
X130921295Y-73967768D01*
X130886245Y-73932372D01*
X130846698Y-73892529D01*
X130802386Y-73847963D01*
X130753036Y-73798401D01*
X130698380Y-73743571D01*
X130638149Y-73683200D01*
X130572072Y-73617014D01*
X130499880Y-73544740D01*
X130421301Y-73466104D01*
X130336069Y-73380834D01*
X130243912Y-73288657D01*
X130144561Y-73189299D01*
X130135245Y-73179984D01*
X130035214Y-73079947D01*
X129942407Y-72987120D01*
X129856557Y-72901234D01*
X129777399Y-72822019D01*
X129704668Y-72749206D01*
X129638096Y-72682526D01*
X129577419Y-72621711D01*
X129522372Y-72566491D01*
X129472688Y-72516598D01*
X129428103Y-72471762D01*
X129388349Y-72431715D01*
X129353162Y-72396187D01*
X129322277Y-72364909D01*
X129295426Y-72337614D01*
X129272345Y-72314030D01*
X129252768Y-72293890D01*
X129236429Y-72276925D01*
X129223063Y-72262866D01*
X129212404Y-72251443D01*
X129204186Y-72242387D01*
X129198144Y-72235431D01*
X129194012Y-72230304D01*
X129191525Y-72226737D01*
X129190416Y-72224463D01*
X129190383Y-72223284D01*
X129196608Y-72213844D01*
X129206341Y-72202784D01*
X129218159Y-72188297D01*
X129232574Y-72166626D01*
X129248124Y-72140360D01*
X129263347Y-72112087D01*
X129276780Y-72084399D01*
X129286798Y-72060327D01*
X129305591Y-71995567D01*
X129316064Y-71927499D01*
X129318231Y-71858266D01*
X129312107Y-71790009D01*
X129297707Y-71724871D01*
X129284190Y-71685896D01*
X129269785Y-71651714D01*
X129255988Y-71623260D01*
X129241218Y-71598240D01*
X129223895Y-71574363D01*
X129202438Y-71549337D01*
X129175266Y-71520869D01*
X129159466Y-71505047D01*
X129134490Y-71480439D01*
D10*
X127967766Y-77228580D02*
X128392030Y-76804316D01*
X127756644Y-76775022D01*
X127727350Y-76139636D01*
X127303086Y-76563900D01*
X126997009Y-76015387D02*
X126522238Y-75540615D01*
X126970746Y-76231559D02*
X127062669Y-75474955D01*
X126306065Y-75566879D01*
X125973725Y-75234539D02*
X126397989Y-74810275D01*
X126160603Y-74572889D01*
X125997969Y-74450661D01*
X125862608Y-74396112D01*
X125774725Y-74389041D01*
X125646436Y-74422376D01*
X125585826Y-74482985D01*
X125552491Y-74611275D01*
X125559562Y-74699158D01*
X125614111Y-74834519D01*
X125736339Y-74997153D01*
X125973725Y-75234539D01*
X125198938Y-74015285D02*
X124866598Y-73682945D01*
X124501933Y-73762747D02*
X124976704Y-74237518D01*
X125400968Y-73813254D01*
X124926197Y-73338483D01*
X123834222Y-72246508D02*
X123172572Y-72433386D01*
X123285709Y-71940431D01*
X122792755Y-72053569D01*
X122979633Y-71391919D01*
X122175551Y-71436365D02*
X122599815Y-71012101D01*
X122267475Y-70679761D02*
X121697749Y-70110035D01*
X121558348Y-70819162D02*
X121982612Y-70394898D01*
X120941145Y-70201959D02*
X121365409Y-69777695D01*
X121163379Y-69979725D02*
X120593653Y-69409999D01*
X120371419Y-69632233D02*
X120795683Y-69207969D01*
%TD*%
M02*
