%TF.GenerationSoftware,KiCad,Pcbnew,5.1.12-84ad8e8a86~92~ubuntu20.04.1*%
%TF.CreationDate,2021-11-09T18:46:58+01:00*%
%TF.ProjectId,VacuumPick,56616375-756d-4506-9963-6b2e6b696361,rev?*%
%TF.SameCoordinates,Original*%
%TF.FileFunction,Soldermask,Top*%
%TF.FilePolarity,Negative*%
%FSLAX46Y46*%
G04 Gerber Fmt 4.6, Leading zero omitted, Abs format (unit mm)*
G04 Created by KiCad (PCBNEW 5.1.12-84ad8e8a86~92~ubuntu20.04.1) date 2021-11-09 18:46:58*
%MOMM*%
%LPD*%
G01*
G04 APERTURE LIST*
%ADD10C,4.700000*%
%ADD11C,4.500000*%
%ADD12O,4.000000X2.000000*%
%ADD13C,1.500000*%
%ADD14O,1.700000X1.700000*%
%ADD15R,1.700000X1.700000*%
%ADD16C,0.100000*%
%ADD17R,5.800000X6.400000*%
%ADD18R,1.200000X2.200000*%
%ADD19R,0.400000X0.650000*%
%ADD20C,1.800000*%
%ADD21R,1.800000X1.800000*%
%ADD22C,1.600000*%
%ADD23R,1.600000X1.600000*%
G04 APERTURE END LIST*
%TO.C,Q4*%
G36*
G01*
X96400000Y-71000000D02*
X96800000Y-71000000D01*
G75*
G02*
X97000000Y-71200000I0J-200000D01*
G01*
X97000000Y-71800000D01*
G75*
G02*
X96800000Y-72000000I-200000J0D01*
G01*
X96400000Y-72000000D01*
G75*
G02*
X96200000Y-71800000I0J200000D01*
G01*
X96200000Y-71200000D01*
G75*
G02*
X96400000Y-71000000I200000J0D01*
G01*
G37*
G36*
G01*
X94500000Y-71000000D02*
X94900000Y-71000000D01*
G75*
G02*
X95100000Y-71200000I0J-200000D01*
G01*
X95100000Y-71800000D01*
G75*
G02*
X94900000Y-72000000I-200000J0D01*
G01*
X94500000Y-72000000D01*
G75*
G02*
X94300000Y-71800000I0J200000D01*
G01*
X94300000Y-71200000D01*
G75*
G02*
X94500000Y-71000000I200000J0D01*
G01*
G37*
G36*
G01*
X95450000Y-73000000D02*
X95850000Y-73000000D01*
G75*
G02*
X96050000Y-73200000I0J-200000D01*
G01*
X96050000Y-73800000D01*
G75*
G02*
X95850000Y-74000000I-200000J0D01*
G01*
X95450000Y-74000000D01*
G75*
G02*
X95250000Y-73800000I0J200000D01*
G01*
X95250000Y-73200000D01*
G75*
G02*
X95450000Y-73000000I200000J0D01*
G01*
G37*
%TD*%
%TO.C,Q3*%
G36*
G01*
X80550000Y-84450000D02*
X80550000Y-84850000D01*
G75*
G02*
X80350000Y-85050000I-200000J0D01*
G01*
X79750000Y-85050000D01*
G75*
G02*
X79550000Y-84850000I0J200000D01*
G01*
X79550000Y-84450000D01*
G75*
G02*
X79750000Y-84250000I200000J0D01*
G01*
X80350000Y-84250000D01*
G75*
G02*
X80550000Y-84450000I0J-200000D01*
G01*
G37*
G36*
G01*
X80550000Y-82550000D02*
X80550000Y-82950000D01*
G75*
G02*
X80350000Y-83150000I-200000J0D01*
G01*
X79750000Y-83150000D01*
G75*
G02*
X79550000Y-82950000I0J200000D01*
G01*
X79550000Y-82550000D01*
G75*
G02*
X79750000Y-82350000I200000J0D01*
G01*
X80350000Y-82350000D01*
G75*
G02*
X80550000Y-82550000I0J-200000D01*
G01*
G37*
G36*
G01*
X78550000Y-83500000D02*
X78550000Y-83900000D01*
G75*
G02*
X78350000Y-84100000I-200000J0D01*
G01*
X77750000Y-84100000D01*
G75*
G02*
X77550000Y-83900000I0J200000D01*
G01*
X77550000Y-83500000D01*
G75*
G02*
X77750000Y-83300000I200000J0D01*
G01*
X78350000Y-83300000D01*
G75*
G02*
X78550000Y-83500000I0J-200000D01*
G01*
G37*
%TD*%
%TO.C,Q2*%
G36*
G01*
X80550000Y-78700000D02*
X80550000Y-79100000D01*
G75*
G02*
X80350000Y-79300000I-200000J0D01*
G01*
X79750000Y-79300000D01*
G75*
G02*
X79550000Y-79100000I0J200000D01*
G01*
X79550000Y-78700000D01*
G75*
G02*
X79750000Y-78500000I200000J0D01*
G01*
X80350000Y-78500000D01*
G75*
G02*
X80550000Y-78700000I0J-200000D01*
G01*
G37*
G36*
G01*
X80550000Y-76800000D02*
X80550000Y-77200000D01*
G75*
G02*
X80350000Y-77400000I-200000J0D01*
G01*
X79750000Y-77400000D01*
G75*
G02*
X79550000Y-77200000I0J200000D01*
G01*
X79550000Y-76800000D01*
G75*
G02*
X79750000Y-76600000I200000J0D01*
G01*
X80350000Y-76600000D01*
G75*
G02*
X80550000Y-76800000I0J-200000D01*
G01*
G37*
G36*
G01*
X78550000Y-77750000D02*
X78550000Y-78150000D01*
G75*
G02*
X78350000Y-78350000I-200000J0D01*
G01*
X77750000Y-78350000D01*
G75*
G02*
X77550000Y-78150000I0J200000D01*
G01*
X77550000Y-77750000D01*
G75*
G02*
X77750000Y-77550000I200000J0D01*
G01*
X78350000Y-77550000D01*
G75*
G02*
X78550000Y-77750000I0J-200000D01*
G01*
G37*
%TD*%
%TO.C,Q1*%
G36*
G01*
X80600000Y-73050000D02*
X80600000Y-73450000D01*
G75*
G02*
X80400000Y-73650000I-200000J0D01*
G01*
X79800000Y-73650000D01*
G75*
G02*
X79600000Y-73450000I0J200000D01*
G01*
X79600000Y-73050000D01*
G75*
G02*
X79800000Y-72850000I200000J0D01*
G01*
X80400000Y-72850000D01*
G75*
G02*
X80600000Y-73050000I0J-200000D01*
G01*
G37*
G36*
G01*
X80600000Y-71150000D02*
X80600000Y-71550000D01*
G75*
G02*
X80400000Y-71750000I-200000J0D01*
G01*
X79800000Y-71750000D01*
G75*
G02*
X79600000Y-71550000I0J200000D01*
G01*
X79600000Y-71150000D01*
G75*
G02*
X79800000Y-70950000I200000J0D01*
G01*
X80400000Y-70950000D01*
G75*
G02*
X80600000Y-71150000I0J-200000D01*
G01*
G37*
G36*
G01*
X78600000Y-72100000D02*
X78600000Y-72500000D01*
G75*
G02*
X78400000Y-72700000I-200000J0D01*
G01*
X77800000Y-72700000D01*
G75*
G02*
X77600000Y-72500000I0J200000D01*
G01*
X77600000Y-72100000D01*
G75*
G02*
X77800000Y-71900000I200000J0D01*
G01*
X78400000Y-71900000D01*
G75*
G02*
X78600000Y-72100000I0J-200000D01*
G01*
G37*
%TD*%
%TO.C,D4*%
G36*
G01*
X102750000Y-72500000D02*
X102750000Y-73100000D01*
G75*
G02*
X102450000Y-73400000I-300000J0D01*
G01*
X101850000Y-73400000D01*
G75*
G02*
X101550000Y-73100000I0J300000D01*
G01*
X101550000Y-72500000D01*
G75*
G02*
X101850000Y-72200000I300000J0D01*
G01*
X102450000Y-72200000D01*
G75*
G02*
X102750000Y-72500000I0J-300000D01*
G01*
G37*
G36*
G01*
X99450000Y-72500000D02*
X99450000Y-73100000D01*
G75*
G02*
X99150000Y-73400000I-300000J0D01*
G01*
X98550000Y-73400000D01*
G75*
G02*
X98250000Y-73100000I0J300000D01*
G01*
X98250000Y-72500000D01*
G75*
G02*
X98550000Y-72200000I300000J0D01*
G01*
X99150000Y-72200000D01*
G75*
G02*
X99450000Y-72500000I0J-300000D01*
G01*
G37*
%TD*%
%TO.C,D3*%
G36*
G01*
X75500000Y-80950000D02*
X76100000Y-80950000D01*
G75*
G02*
X76400000Y-81250000I0J-300000D01*
G01*
X76400000Y-81850000D01*
G75*
G02*
X76100000Y-82150000I-300000J0D01*
G01*
X75500000Y-82150000D01*
G75*
G02*
X75200000Y-81850000I0J300000D01*
G01*
X75200000Y-81250000D01*
G75*
G02*
X75500000Y-80950000I300000J0D01*
G01*
G37*
G36*
G01*
X75500000Y-84250000D02*
X76100000Y-84250000D01*
G75*
G02*
X76400000Y-84550000I0J-300000D01*
G01*
X76400000Y-85150000D01*
G75*
G02*
X76100000Y-85450000I-300000J0D01*
G01*
X75500000Y-85450000D01*
G75*
G02*
X75200000Y-85150000I0J300000D01*
G01*
X75200000Y-84550000D01*
G75*
G02*
X75500000Y-84250000I300000J0D01*
G01*
G37*
%TD*%
%TO.C,D2*%
G36*
G01*
X75500000Y-75200000D02*
X76100000Y-75200000D01*
G75*
G02*
X76400000Y-75500000I0J-300000D01*
G01*
X76400000Y-76100000D01*
G75*
G02*
X76100000Y-76400000I-300000J0D01*
G01*
X75500000Y-76400000D01*
G75*
G02*
X75200000Y-76100000I0J300000D01*
G01*
X75200000Y-75500000D01*
G75*
G02*
X75500000Y-75200000I300000J0D01*
G01*
G37*
G36*
G01*
X75500000Y-78500000D02*
X76100000Y-78500000D01*
G75*
G02*
X76400000Y-78800000I0J-300000D01*
G01*
X76400000Y-79400000D01*
G75*
G02*
X76100000Y-79700000I-300000J0D01*
G01*
X75500000Y-79700000D01*
G75*
G02*
X75200000Y-79400000I0J300000D01*
G01*
X75200000Y-78800000D01*
G75*
G02*
X75500000Y-78500000I300000J0D01*
G01*
G37*
%TD*%
%TO.C,D1*%
G36*
G01*
X75500000Y-69200000D02*
X76100000Y-69200000D01*
G75*
G02*
X76400000Y-69500000I0J-300000D01*
G01*
X76400000Y-70100000D01*
G75*
G02*
X76100000Y-70400000I-300000J0D01*
G01*
X75500000Y-70400000D01*
G75*
G02*
X75200000Y-70100000I0J300000D01*
G01*
X75200000Y-69500000D01*
G75*
G02*
X75500000Y-69200000I300000J0D01*
G01*
G37*
G36*
G01*
X75500000Y-72500000D02*
X76100000Y-72500000D01*
G75*
G02*
X76400000Y-72800000I0J-300000D01*
G01*
X76400000Y-73400000D01*
G75*
G02*
X76100000Y-73700000I-300000J0D01*
G01*
X75500000Y-73700000D01*
G75*
G02*
X75200000Y-73400000I0J300000D01*
G01*
X75200000Y-72800000D01*
G75*
G02*
X75500000Y-72500000I300000J0D01*
G01*
G37*
%TD*%
D10*
%TO.C,H1*%
X133250000Y-88750000D03*
%TD*%
D11*
%TO.C,H4*%
X77400000Y-65500000D03*
%TD*%
%TO.C,H3*%
X77400000Y-88750000D03*
%TD*%
%TO.C,H2*%
X133250000Y-65750000D03*
%TD*%
%TO.C,R6*%
G36*
G01*
X118325000Y-85443750D02*
X118325000Y-86356250D01*
G75*
G02*
X118081250Y-86600000I-243750J0D01*
G01*
X117593750Y-86600000D01*
G75*
G02*
X117350000Y-86356250I0J243750D01*
G01*
X117350000Y-85443750D01*
G75*
G02*
X117593750Y-85200000I243750J0D01*
G01*
X118081250Y-85200000D01*
G75*
G02*
X118325000Y-85443750I0J-243750D01*
G01*
G37*
G36*
G01*
X116450000Y-85443750D02*
X116450000Y-86356250D01*
G75*
G02*
X116206250Y-86600000I-243750J0D01*
G01*
X115718750Y-86600000D01*
G75*
G02*
X115475000Y-86356250I0J243750D01*
G01*
X115475000Y-85443750D01*
G75*
G02*
X115718750Y-85200000I243750J0D01*
G01*
X116206250Y-85200000D01*
G75*
G02*
X116450000Y-85443750I0J-243750D01*
G01*
G37*
%TD*%
%TO.C,R5*%
G36*
G01*
X114506250Y-79375000D02*
X113593750Y-79375000D01*
G75*
G02*
X113350000Y-79131250I0J243750D01*
G01*
X113350000Y-78643750D01*
G75*
G02*
X113593750Y-78400000I243750J0D01*
G01*
X114506250Y-78400000D01*
G75*
G02*
X114750000Y-78643750I0J-243750D01*
G01*
X114750000Y-79131250D01*
G75*
G02*
X114506250Y-79375000I-243750J0D01*
G01*
G37*
G36*
G01*
X114506250Y-77500000D02*
X113593750Y-77500000D01*
G75*
G02*
X113350000Y-77256250I0J243750D01*
G01*
X113350000Y-76768750D01*
G75*
G02*
X113593750Y-76525000I243750J0D01*
G01*
X114506250Y-76525000D01*
G75*
G02*
X114750000Y-76768750I0J-243750D01*
G01*
X114750000Y-77256250D01*
G75*
G02*
X114506250Y-77500000I-243750J0D01*
G01*
G37*
%TD*%
D12*
%TO.C,M1*%
X91391338Y-77933549D03*
G36*
G01*
X111141338Y-77433549D02*
X111141338Y-78433549D01*
G75*
G02*
X110641338Y-78933549I-500000J0D01*
G01*
X107641338Y-78933549D01*
G75*
G02*
X107141338Y-78433549I0J500000D01*
G01*
X107141338Y-77433549D01*
G75*
G02*
X107641338Y-76933549I500000J0D01*
G01*
X110641338Y-76933549D01*
G75*
G02*
X111141338Y-77433549I0J-500000D01*
G01*
G37*
%TD*%
%TO.C,C13*%
G36*
G01*
X126956250Y-73725000D02*
X126043750Y-73725000D01*
G75*
G02*
X125800000Y-73481250I0J243750D01*
G01*
X125800000Y-72993750D01*
G75*
G02*
X126043750Y-72750000I243750J0D01*
G01*
X126956250Y-72750000D01*
G75*
G02*
X127200000Y-72993750I0J-243750D01*
G01*
X127200000Y-73481250D01*
G75*
G02*
X126956250Y-73725000I-243750J0D01*
G01*
G37*
G36*
G01*
X126956250Y-71850000D02*
X126043750Y-71850000D01*
G75*
G02*
X125800000Y-71606250I0J243750D01*
G01*
X125800000Y-71118750D01*
G75*
G02*
X126043750Y-70875000I243750J0D01*
G01*
X126956250Y-70875000D01*
G75*
G02*
X127200000Y-71118750I0J-243750D01*
G01*
X127200000Y-71606250D01*
G75*
G02*
X126956250Y-71850000I-243750J0D01*
G01*
G37*
%TD*%
%TO.C,C12*%
G36*
G01*
X88425000Y-87643750D02*
X88425000Y-88556250D01*
G75*
G02*
X88181250Y-88800000I-243750J0D01*
G01*
X87693750Y-88800000D01*
G75*
G02*
X87450000Y-88556250I0J243750D01*
G01*
X87450000Y-87643750D01*
G75*
G02*
X87693750Y-87400000I243750J0D01*
G01*
X88181250Y-87400000D01*
G75*
G02*
X88425000Y-87643750I0J-243750D01*
G01*
G37*
G36*
G01*
X86550000Y-87643750D02*
X86550000Y-88556250D01*
G75*
G02*
X86306250Y-88800000I-243750J0D01*
G01*
X85818750Y-88800000D01*
G75*
G02*
X85575000Y-88556250I0J243750D01*
G01*
X85575000Y-87643750D01*
G75*
G02*
X85818750Y-87400000I243750J0D01*
G01*
X86306250Y-87400000D01*
G75*
G02*
X86550000Y-87643750I0J-243750D01*
G01*
G37*
%TD*%
D13*
%TO.C,J5*%
X99800000Y-84500000D03*
%TD*%
%TO.C,R4*%
G36*
G01*
X120675000Y-89093750D02*
X120675000Y-90006250D01*
G75*
G02*
X120431250Y-90250000I-243750J0D01*
G01*
X119943750Y-90250000D01*
G75*
G02*
X119700000Y-90006250I0J243750D01*
G01*
X119700000Y-89093750D01*
G75*
G02*
X119943750Y-88850000I243750J0D01*
G01*
X120431250Y-88850000D01*
G75*
G02*
X120675000Y-89093750I0J-243750D01*
G01*
G37*
G36*
G01*
X118800000Y-89093750D02*
X118800000Y-90006250D01*
G75*
G02*
X118556250Y-90250000I-243750J0D01*
G01*
X118068750Y-90250000D01*
G75*
G02*
X117825000Y-90006250I0J243750D01*
G01*
X117825000Y-89093750D01*
G75*
G02*
X118068750Y-88850000I243750J0D01*
G01*
X118556250Y-88850000D01*
G75*
G02*
X118800000Y-89093750I0J-243750D01*
G01*
G37*
%TD*%
D14*
%TO.C,J14*%
X116800000Y-75420000D03*
X116800000Y-77960000D03*
X116800000Y-80500000D03*
D15*
X116800000Y-83040000D03*
%TD*%
D14*
%TO.C,J13*%
X120700000Y-75420000D03*
X120700000Y-77960000D03*
X120700000Y-80500000D03*
D15*
X120700000Y-83040000D03*
%TD*%
D14*
%TO.C,J9*%
X110420000Y-90400000D03*
X112960000Y-90400000D03*
D15*
X115500000Y-90400000D03*
%TD*%
%TO.C,RP2*%
G36*
G01*
X81875000Y-88500000D02*
X82125000Y-88500000D01*
G75*
G02*
X82250000Y-88625000I0J-125000D01*
G01*
X82250000Y-89175000D01*
G75*
G02*
X82125000Y-89300000I-125000J0D01*
G01*
X81875000Y-89300000D01*
G75*
G02*
X81750000Y-89175000I0J125000D01*
G01*
X81750000Y-88625000D01*
G75*
G02*
X81875000Y-88500000I125000J0D01*
G01*
G37*
G36*
G01*
X82700000Y-88500000D02*
X82900000Y-88500000D01*
G75*
G02*
X83000000Y-88600000I0J-100000D01*
G01*
X83000000Y-89200000D01*
G75*
G02*
X82900000Y-89300000I-100000J0D01*
G01*
X82700000Y-89300000D01*
G75*
G02*
X82600000Y-89200000I0J100000D01*
G01*
X82600000Y-88600000D01*
G75*
G02*
X82700000Y-88500000I100000J0D01*
G01*
G37*
G36*
G01*
X84275000Y-88500000D02*
X84525000Y-88500000D01*
G75*
G02*
X84650000Y-88625000I0J-125000D01*
G01*
X84650000Y-89175000D01*
G75*
G02*
X84525000Y-89300000I-125000J0D01*
G01*
X84275000Y-89300000D01*
G75*
G02*
X84150000Y-89175000I0J125000D01*
G01*
X84150000Y-88625000D01*
G75*
G02*
X84275000Y-88500000I125000J0D01*
G01*
G37*
G36*
G01*
X83500000Y-88500000D02*
X83700000Y-88500000D01*
G75*
G02*
X83800000Y-88600000I0J-100000D01*
G01*
X83800000Y-89200000D01*
G75*
G02*
X83700000Y-89300000I-100000J0D01*
G01*
X83500000Y-89300000D01*
G75*
G02*
X83400000Y-89200000I0J100000D01*
G01*
X83400000Y-88600000D01*
G75*
G02*
X83500000Y-88500000I100000J0D01*
G01*
G37*
G36*
G01*
X81875000Y-86700000D02*
X82125000Y-86700000D01*
G75*
G02*
X82250000Y-86825000I0J-125000D01*
G01*
X82250000Y-87375000D01*
G75*
G02*
X82125000Y-87500000I-125000J0D01*
G01*
X81875000Y-87500000D01*
G75*
G02*
X81750000Y-87375000I0J125000D01*
G01*
X81750000Y-86825000D01*
G75*
G02*
X81875000Y-86700000I125000J0D01*
G01*
G37*
G36*
G01*
X83500000Y-86700000D02*
X83700000Y-86700000D01*
G75*
G02*
X83800000Y-86800000I0J-100000D01*
G01*
X83800000Y-87400000D01*
G75*
G02*
X83700000Y-87500000I-100000J0D01*
G01*
X83500000Y-87500000D01*
G75*
G02*
X83400000Y-87400000I0J100000D01*
G01*
X83400000Y-86800000D01*
G75*
G02*
X83500000Y-86700000I100000J0D01*
G01*
G37*
G36*
G01*
X82700000Y-86700000D02*
X82900000Y-86700000D01*
G75*
G02*
X83000000Y-86800000I0J-100000D01*
G01*
X83000000Y-87400000D01*
G75*
G02*
X82900000Y-87500000I-100000J0D01*
G01*
X82700000Y-87500000D01*
G75*
G02*
X82600000Y-87400000I0J100000D01*
G01*
X82600000Y-86800000D01*
G75*
G02*
X82700000Y-86700000I100000J0D01*
G01*
G37*
G36*
G01*
X84275000Y-86700000D02*
X84525000Y-86700000D01*
G75*
G02*
X84650000Y-86825000I0J-125000D01*
G01*
X84650000Y-87375000D01*
G75*
G02*
X84525000Y-87500000I-125000J0D01*
G01*
X84275000Y-87500000D01*
G75*
G02*
X84150000Y-87375000I0J125000D01*
G01*
X84150000Y-86825000D01*
G75*
G02*
X84275000Y-86700000I125000J0D01*
G01*
G37*
%TD*%
D16*
%TO.C,U2*%
G36*
X95747918Y-86800000D02*
G01*
X96950000Y-85597918D01*
X98152082Y-86800000D01*
X96950000Y-88002082D01*
X95747918Y-86800000D01*
G37*
G36*
X97734035Y-84969100D02*
G01*
X97738656Y-84977744D01*
X97741501Y-84987124D01*
X97742461Y-84996878D01*
X97741501Y-85006632D01*
X97738656Y-85016012D01*
X97734035Y-85024656D01*
X97727817Y-85032233D01*
X97232842Y-85527208D01*
X97225265Y-85533426D01*
X97216621Y-85538047D01*
X97207241Y-85540892D01*
X97197487Y-85541852D01*
X97187733Y-85540892D01*
X97178353Y-85538047D01*
X97169709Y-85533426D01*
X97162132Y-85527208D01*
X97127279Y-85492355D01*
X97121061Y-85484778D01*
X97116441Y-85476134D01*
X97113595Y-85466754D01*
X97112635Y-85457000D01*
X97112635Y-85385284D01*
X97113595Y-85375530D01*
X97116441Y-85366150D01*
X97121061Y-85357506D01*
X97127279Y-85349929D01*
X97586396Y-84890812D01*
X97593973Y-84884594D01*
X97602617Y-84879973D01*
X97611997Y-84877128D01*
X97621751Y-84876168D01*
X97631505Y-84877128D01*
X97640885Y-84879973D01*
X97649529Y-84884594D01*
X97657106Y-84890812D01*
X97727817Y-84961523D01*
X97734035Y-84969100D01*
G37*
G36*
G01*
X97374264Y-85668629D02*
X97869239Y-85173654D01*
G75*
G02*
X97939949Y-85173654I35355J-35355D01*
G01*
X98010660Y-85244365D01*
G75*
G02*
X98010660Y-85315075I-35355J-35355D01*
G01*
X97515685Y-85810050D01*
G75*
G02*
X97444975Y-85810050I-35355J35355D01*
G01*
X97374264Y-85739339D01*
G75*
G02*
X97374264Y-85668629I35355J35355D01*
G01*
G37*
G36*
G01*
X97657107Y-85951472D02*
X98152082Y-85456497D01*
G75*
G02*
X98222792Y-85456497I35355J-35355D01*
G01*
X98293503Y-85527208D01*
G75*
G02*
X98293503Y-85597918I-35355J-35355D01*
G01*
X97798528Y-86092893D01*
G75*
G02*
X97727818Y-86092893I-35355J35355D01*
G01*
X97657107Y-86022182D01*
G75*
G02*
X97657107Y-85951472I35355J35355D01*
G01*
G37*
G36*
G01*
X97939950Y-86234315D02*
X98434925Y-85739340D01*
G75*
G02*
X98505635Y-85739340I35355J-35355D01*
G01*
X98576346Y-85810051D01*
G75*
G02*
X98576346Y-85880761I-35355J-35355D01*
G01*
X98081371Y-86375736D01*
G75*
G02*
X98010661Y-86375736I-35355J35355D01*
G01*
X97939950Y-86305025D01*
G75*
G02*
X97939950Y-86234315I35355J35355D01*
G01*
G37*
G36*
X98865406Y-86100471D02*
G01*
X98870027Y-86109115D01*
X98872872Y-86118495D01*
X98873832Y-86128249D01*
X98872872Y-86138003D01*
X98870027Y-86147383D01*
X98865406Y-86156027D01*
X98859188Y-86163604D01*
X98400071Y-86622721D01*
X98392494Y-86628939D01*
X98383850Y-86633559D01*
X98374470Y-86636405D01*
X98364716Y-86637365D01*
X98293000Y-86637365D01*
X98283246Y-86636405D01*
X98273866Y-86633559D01*
X98265222Y-86628939D01*
X98257645Y-86622721D01*
X98222792Y-86587868D01*
X98216574Y-86580291D01*
X98211953Y-86571647D01*
X98209108Y-86562267D01*
X98208148Y-86552513D01*
X98209108Y-86542759D01*
X98211953Y-86533379D01*
X98216574Y-86524735D01*
X98222792Y-86517158D01*
X98717767Y-86022183D01*
X98725344Y-86015965D01*
X98733988Y-86011344D01*
X98743368Y-86008499D01*
X98753122Y-86007539D01*
X98762876Y-86008499D01*
X98772256Y-86011344D01*
X98780900Y-86015965D01*
X98788477Y-86022183D01*
X98859188Y-86092894D01*
X98865406Y-86100471D01*
G37*
G36*
X98865406Y-87443973D02*
G01*
X98870027Y-87452617D01*
X98872872Y-87461997D01*
X98873832Y-87471751D01*
X98872872Y-87481505D01*
X98870027Y-87490885D01*
X98865406Y-87499529D01*
X98859188Y-87507106D01*
X98788477Y-87577817D01*
X98780900Y-87584035D01*
X98772256Y-87588656D01*
X98762876Y-87591501D01*
X98753122Y-87592461D01*
X98743368Y-87591501D01*
X98733988Y-87588656D01*
X98725344Y-87584035D01*
X98717767Y-87577817D01*
X98222792Y-87082842D01*
X98216574Y-87075265D01*
X98211953Y-87066621D01*
X98209108Y-87057241D01*
X98208148Y-87047487D01*
X98209108Y-87037733D01*
X98211953Y-87028353D01*
X98216574Y-87019709D01*
X98222792Y-87012132D01*
X98257645Y-86977279D01*
X98265222Y-86971061D01*
X98273866Y-86966441D01*
X98283246Y-86963595D01*
X98293000Y-86962635D01*
X98364716Y-86962635D01*
X98374470Y-86963595D01*
X98383850Y-86966441D01*
X98392494Y-86971061D01*
X98400071Y-86977279D01*
X98859188Y-87436396D01*
X98865406Y-87443973D01*
G37*
G36*
G01*
X97939950Y-87294975D02*
X98010661Y-87224264D01*
G75*
G02*
X98081371Y-87224264I35355J-35355D01*
G01*
X98576346Y-87719239D01*
G75*
G02*
X98576346Y-87789949I-35355J-35355D01*
G01*
X98505635Y-87860660D01*
G75*
G02*
X98434925Y-87860660I-35355J35355D01*
G01*
X97939950Y-87365685D01*
G75*
G02*
X97939950Y-87294975I35355J35355D01*
G01*
G37*
G36*
G01*
X97657107Y-87577818D02*
X97727818Y-87507107D01*
G75*
G02*
X97798528Y-87507107I35355J-35355D01*
G01*
X98293503Y-88002082D01*
G75*
G02*
X98293503Y-88072792I-35355J-35355D01*
G01*
X98222792Y-88143503D01*
G75*
G02*
X98152082Y-88143503I-35355J35355D01*
G01*
X97657107Y-87648528D01*
G75*
G02*
X97657107Y-87577818I35355J35355D01*
G01*
G37*
G36*
G01*
X97374264Y-87860661D02*
X97444975Y-87789950D01*
G75*
G02*
X97515685Y-87789950I35355J-35355D01*
G01*
X98010660Y-88284925D01*
G75*
G02*
X98010660Y-88355635I-35355J-35355D01*
G01*
X97939949Y-88426346D01*
G75*
G02*
X97869239Y-88426346I-35355J35355D01*
G01*
X97374264Y-87931371D01*
G75*
G02*
X97374264Y-87860661I35355J35355D01*
G01*
G37*
G36*
X97734035Y-88575344D02*
G01*
X97738656Y-88583988D01*
X97741501Y-88593368D01*
X97742461Y-88603122D01*
X97741501Y-88612876D01*
X97738656Y-88622256D01*
X97734035Y-88630900D01*
X97727817Y-88638477D01*
X97657106Y-88709188D01*
X97649529Y-88715406D01*
X97640885Y-88720027D01*
X97631505Y-88722872D01*
X97621751Y-88723832D01*
X97611997Y-88722872D01*
X97602617Y-88720027D01*
X97593973Y-88715406D01*
X97586396Y-88709188D01*
X97127279Y-88250071D01*
X97121061Y-88242494D01*
X97116441Y-88233850D01*
X97113595Y-88224470D01*
X97112635Y-88214716D01*
X97112635Y-88143000D01*
X97113595Y-88133246D01*
X97116441Y-88123866D01*
X97121061Y-88115222D01*
X97127279Y-88107645D01*
X97162132Y-88072792D01*
X97169709Y-88066574D01*
X97178353Y-88061953D01*
X97187733Y-88059108D01*
X97197487Y-88058148D01*
X97207241Y-88059108D01*
X97216621Y-88061953D01*
X97225265Y-88066574D01*
X97232842Y-88072792D01*
X97727817Y-88567767D01*
X97734035Y-88575344D01*
G37*
G36*
X96778939Y-88115222D02*
G01*
X96783559Y-88123866D01*
X96786405Y-88133246D01*
X96787365Y-88143000D01*
X96787365Y-88214716D01*
X96786405Y-88224470D01*
X96783559Y-88233850D01*
X96778939Y-88242494D01*
X96772721Y-88250071D01*
X96313604Y-88709188D01*
X96306027Y-88715406D01*
X96297383Y-88720027D01*
X96288003Y-88722872D01*
X96278249Y-88723832D01*
X96268495Y-88722872D01*
X96259115Y-88720027D01*
X96250471Y-88715406D01*
X96242894Y-88709188D01*
X96172183Y-88638477D01*
X96165965Y-88630900D01*
X96161344Y-88622256D01*
X96158499Y-88612876D01*
X96157539Y-88603122D01*
X96158499Y-88593368D01*
X96161344Y-88583988D01*
X96165965Y-88575344D01*
X96172183Y-88567767D01*
X96667158Y-88072792D01*
X96674735Y-88066574D01*
X96683379Y-88061953D01*
X96692759Y-88059108D01*
X96702513Y-88058148D01*
X96712267Y-88059108D01*
X96721647Y-88061953D01*
X96730291Y-88066574D01*
X96737868Y-88072792D01*
X96772721Y-88107645D01*
X96778939Y-88115222D01*
G37*
G36*
G01*
X95889340Y-88284925D02*
X96384315Y-87789950D01*
G75*
G02*
X96455025Y-87789950I35355J-35355D01*
G01*
X96525736Y-87860661D01*
G75*
G02*
X96525736Y-87931371I-35355J-35355D01*
G01*
X96030761Y-88426346D01*
G75*
G02*
X95960051Y-88426346I-35355J35355D01*
G01*
X95889340Y-88355635D01*
G75*
G02*
X95889340Y-88284925I35355J35355D01*
G01*
G37*
G36*
G01*
X95606497Y-88002082D02*
X96101472Y-87507107D01*
G75*
G02*
X96172182Y-87507107I35355J-35355D01*
G01*
X96242893Y-87577818D01*
G75*
G02*
X96242893Y-87648528I-35355J-35355D01*
G01*
X95747918Y-88143503D01*
G75*
G02*
X95677208Y-88143503I-35355J35355D01*
G01*
X95606497Y-88072792D01*
G75*
G02*
X95606497Y-88002082I35355J35355D01*
G01*
G37*
G36*
G01*
X95323654Y-87719239D02*
X95818629Y-87224264D01*
G75*
G02*
X95889339Y-87224264I35355J-35355D01*
G01*
X95960050Y-87294975D01*
G75*
G02*
X95960050Y-87365685I-35355J-35355D01*
G01*
X95465075Y-87860660D01*
G75*
G02*
X95394365Y-87860660I-35355J35355D01*
G01*
X95323654Y-87789949D01*
G75*
G02*
X95323654Y-87719239I35355J35355D01*
G01*
G37*
G36*
X95683426Y-87019709D02*
G01*
X95688047Y-87028353D01*
X95690892Y-87037733D01*
X95691852Y-87047487D01*
X95690892Y-87057241D01*
X95688047Y-87066621D01*
X95683426Y-87075265D01*
X95677208Y-87082842D01*
X95182233Y-87577817D01*
X95174656Y-87584035D01*
X95166012Y-87588656D01*
X95156632Y-87591501D01*
X95146878Y-87592461D01*
X95137124Y-87591501D01*
X95127744Y-87588656D01*
X95119100Y-87584035D01*
X95111523Y-87577817D01*
X95040812Y-87507106D01*
X95034594Y-87499529D01*
X95029973Y-87490885D01*
X95027128Y-87481505D01*
X95026168Y-87471751D01*
X95027128Y-87461997D01*
X95029973Y-87452617D01*
X95034594Y-87443973D01*
X95040812Y-87436396D01*
X95499929Y-86977279D01*
X95507506Y-86971061D01*
X95516150Y-86966441D01*
X95525530Y-86963595D01*
X95535284Y-86962635D01*
X95607000Y-86962635D01*
X95616754Y-86963595D01*
X95626134Y-86966441D01*
X95634778Y-86971061D01*
X95642355Y-86977279D01*
X95677208Y-87012132D01*
X95683426Y-87019709D01*
G37*
G36*
X95683426Y-86524735D02*
G01*
X95688047Y-86533379D01*
X95690892Y-86542759D01*
X95691852Y-86552513D01*
X95690892Y-86562267D01*
X95688047Y-86571647D01*
X95683426Y-86580291D01*
X95677208Y-86587868D01*
X95642355Y-86622721D01*
X95634778Y-86628939D01*
X95626134Y-86633559D01*
X95616754Y-86636405D01*
X95607000Y-86637365D01*
X95535284Y-86637365D01*
X95525530Y-86636405D01*
X95516150Y-86633559D01*
X95507506Y-86628939D01*
X95499929Y-86622721D01*
X95040812Y-86163604D01*
X95034594Y-86156027D01*
X95029973Y-86147383D01*
X95027128Y-86138003D01*
X95026168Y-86128249D01*
X95027128Y-86118495D01*
X95029973Y-86109115D01*
X95034594Y-86100471D01*
X95040812Y-86092894D01*
X95111523Y-86022183D01*
X95119100Y-86015965D01*
X95127744Y-86011344D01*
X95137124Y-86008499D01*
X95146878Y-86007539D01*
X95156632Y-86008499D01*
X95166012Y-86011344D01*
X95174656Y-86015965D01*
X95182233Y-86022183D01*
X95677208Y-86517158D01*
X95683426Y-86524735D01*
G37*
G36*
G01*
X95323654Y-85810051D02*
X95394365Y-85739340D01*
G75*
G02*
X95465075Y-85739340I35355J-35355D01*
G01*
X95960050Y-86234315D01*
G75*
G02*
X95960050Y-86305025I-35355J-35355D01*
G01*
X95889339Y-86375736D01*
G75*
G02*
X95818629Y-86375736I-35355J35355D01*
G01*
X95323654Y-85880761D01*
G75*
G02*
X95323654Y-85810051I35355J35355D01*
G01*
G37*
G36*
G01*
X95606497Y-85527208D02*
X95677208Y-85456497D01*
G75*
G02*
X95747918Y-85456497I35355J-35355D01*
G01*
X96242893Y-85951472D01*
G75*
G02*
X96242893Y-86022182I-35355J-35355D01*
G01*
X96172182Y-86092893D01*
G75*
G02*
X96101472Y-86092893I-35355J35355D01*
G01*
X95606497Y-85597918D01*
G75*
G02*
X95606497Y-85527208I35355J35355D01*
G01*
G37*
G36*
G01*
X95889340Y-85244365D02*
X95960051Y-85173654D01*
G75*
G02*
X96030761Y-85173654I35355J-35355D01*
G01*
X96525736Y-85668629D01*
G75*
G02*
X96525736Y-85739339I-35355J-35355D01*
G01*
X96455025Y-85810050D01*
G75*
G02*
X96384315Y-85810050I-35355J35355D01*
G01*
X95889340Y-85315075D01*
G75*
G02*
X95889340Y-85244365I35355J35355D01*
G01*
G37*
G36*
X96778939Y-85357506D02*
G01*
X96783559Y-85366150D01*
X96786405Y-85375530D01*
X96787365Y-85385284D01*
X96787365Y-85457000D01*
X96786405Y-85466754D01*
X96783559Y-85476134D01*
X96778939Y-85484778D01*
X96772721Y-85492355D01*
X96737868Y-85527208D01*
X96730291Y-85533426D01*
X96721647Y-85538047D01*
X96712267Y-85540892D01*
X96702513Y-85541852D01*
X96692759Y-85540892D01*
X96683379Y-85538047D01*
X96674735Y-85533426D01*
X96667158Y-85527208D01*
X96172183Y-85032233D01*
X96165965Y-85024656D01*
X96161344Y-85016012D01*
X96158499Y-85006632D01*
X96157539Y-84996878D01*
X96158499Y-84987124D01*
X96161344Y-84977744D01*
X96165965Y-84969100D01*
X96172183Y-84961523D01*
X96242894Y-84890812D01*
X96250471Y-84884594D01*
X96259115Y-84879973D01*
X96268495Y-84877128D01*
X96278249Y-84876168D01*
X96288003Y-84877128D01*
X96297383Y-84879973D01*
X96306027Y-84884594D01*
X96313604Y-84890812D01*
X96772721Y-85349929D01*
X96778939Y-85357506D01*
G37*
%TD*%
D17*
%TO.C,U1*%
X85400000Y-75200000D03*
D18*
X87680000Y-81500000D03*
X83120000Y-81500000D03*
%TD*%
%TO.C,RP1*%
G36*
G01*
X128900000Y-78725000D02*
X128900000Y-78475000D01*
G75*
G02*
X129025000Y-78350000I125000J0D01*
G01*
X129575000Y-78350000D01*
G75*
G02*
X129700000Y-78475000I0J-125000D01*
G01*
X129700000Y-78725000D01*
G75*
G02*
X129575000Y-78850000I-125000J0D01*
G01*
X129025000Y-78850000D01*
G75*
G02*
X128900000Y-78725000I0J125000D01*
G01*
G37*
G36*
G01*
X128900000Y-77900000D02*
X128900000Y-77700000D01*
G75*
G02*
X129000000Y-77600000I100000J0D01*
G01*
X129600000Y-77600000D01*
G75*
G02*
X129700000Y-77700000I0J-100000D01*
G01*
X129700000Y-77900000D01*
G75*
G02*
X129600000Y-78000000I-100000J0D01*
G01*
X129000000Y-78000000D01*
G75*
G02*
X128900000Y-77900000I0J100000D01*
G01*
G37*
G36*
G01*
X128900000Y-76325000D02*
X128900000Y-76075000D01*
G75*
G02*
X129025000Y-75950000I125000J0D01*
G01*
X129575000Y-75950000D01*
G75*
G02*
X129700000Y-76075000I0J-125000D01*
G01*
X129700000Y-76325000D01*
G75*
G02*
X129575000Y-76450000I-125000J0D01*
G01*
X129025000Y-76450000D01*
G75*
G02*
X128900000Y-76325000I0J125000D01*
G01*
G37*
G36*
G01*
X128900000Y-77100000D02*
X128900000Y-76900000D01*
G75*
G02*
X129000000Y-76800000I100000J0D01*
G01*
X129600000Y-76800000D01*
G75*
G02*
X129700000Y-76900000I0J-100000D01*
G01*
X129700000Y-77100000D01*
G75*
G02*
X129600000Y-77200000I-100000J0D01*
G01*
X129000000Y-77200000D01*
G75*
G02*
X128900000Y-77100000I0J100000D01*
G01*
G37*
G36*
G01*
X127100000Y-78725000D02*
X127100000Y-78475000D01*
G75*
G02*
X127225000Y-78350000I125000J0D01*
G01*
X127775000Y-78350000D01*
G75*
G02*
X127900000Y-78475000I0J-125000D01*
G01*
X127900000Y-78725000D01*
G75*
G02*
X127775000Y-78850000I-125000J0D01*
G01*
X127225000Y-78850000D01*
G75*
G02*
X127100000Y-78725000I0J125000D01*
G01*
G37*
G36*
G01*
X127100000Y-77100000D02*
X127100000Y-76900000D01*
G75*
G02*
X127200000Y-76800000I100000J0D01*
G01*
X127800000Y-76800000D01*
G75*
G02*
X127900000Y-76900000I0J-100000D01*
G01*
X127900000Y-77100000D01*
G75*
G02*
X127800000Y-77200000I-100000J0D01*
G01*
X127200000Y-77200000D01*
G75*
G02*
X127100000Y-77100000I0J100000D01*
G01*
G37*
G36*
G01*
X127100000Y-77900000D02*
X127100000Y-77700000D01*
G75*
G02*
X127200000Y-77600000I100000J0D01*
G01*
X127800000Y-77600000D01*
G75*
G02*
X127900000Y-77700000I0J-100000D01*
G01*
X127900000Y-77900000D01*
G75*
G02*
X127800000Y-78000000I-100000J0D01*
G01*
X127200000Y-78000000D01*
G75*
G02*
X127100000Y-77900000I0J100000D01*
G01*
G37*
G36*
G01*
X127100000Y-76325000D02*
X127100000Y-76075000D01*
G75*
G02*
X127225000Y-75950000I125000J0D01*
G01*
X127775000Y-75950000D01*
G75*
G02*
X127900000Y-76075000I0J-125000D01*
G01*
X127900000Y-76325000D01*
G75*
G02*
X127775000Y-76450000I-125000J0D01*
G01*
X127225000Y-76450000D01*
G75*
G02*
X127100000Y-76325000I0J125000D01*
G01*
G37*
%TD*%
%TO.C,R17*%
G36*
G01*
X111043750Y-69275000D02*
X111956250Y-69275000D01*
G75*
G02*
X112200000Y-69518750I0J-243750D01*
G01*
X112200000Y-70006250D01*
G75*
G02*
X111956250Y-70250000I-243750J0D01*
G01*
X111043750Y-70250000D01*
G75*
G02*
X110800000Y-70006250I0J243750D01*
G01*
X110800000Y-69518750D01*
G75*
G02*
X111043750Y-69275000I243750J0D01*
G01*
G37*
G36*
G01*
X111043750Y-71150000D02*
X111956250Y-71150000D01*
G75*
G02*
X112200000Y-71393750I0J-243750D01*
G01*
X112200000Y-71881250D01*
G75*
G02*
X111956250Y-72125000I-243750J0D01*
G01*
X111043750Y-72125000D01*
G75*
G02*
X110800000Y-71881250I0J243750D01*
G01*
X110800000Y-71393750D01*
G75*
G02*
X111043750Y-71150000I243750J0D01*
G01*
G37*
%TD*%
%TO.C,R16*%
G36*
G01*
X113443750Y-69275000D02*
X114356250Y-69275000D01*
G75*
G02*
X114600000Y-69518750I0J-243750D01*
G01*
X114600000Y-70006250D01*
G75*
G02*
X114356250Y-70250000I-243750J0D01*
G01*
X113443750Y-70250000D01*
G75*
G02*
X113200000Y-70006250I0J243750D01*
G01*
X113200000Y-69518750D01*
G75*
G02*
X113443750Y-69275000I243750J0D01*
G01*
G37*
G36*
G01*
X113443750Y-71150000D02*
X114356250Y-71150000D01*
G75*
G02*
X114600000Y-71393750I0J-243750D01*
G01*
X114600000Y-71881250D01*
G75*
G02*
X114356250Y-72125000I-243750J0D01*
G01*
X113443750Y-72125000D01*
G75*
G02*
X113200000Y-71881250I0J243750D01*
G01*
X113200000Y-71393750D01*
G75*
G02*
X113443750Y-71150000I243750J0D01*
G01*
G37*
%TD*%
%TO.C,R15*%
G36*
G01*
X115843750Y-69275000D02*
X116756250Y-69275000D01*
G75*
G02*
X117000000Y-69518750I0J-243750D01*
G01*
X117000000Y-70006250D01*
G75*
G02*
X116756250Y-70250000I-243750J0D01*
G01*
X115843750Y-70250000D01*
G75*
G02*
X115600000Y-70006250I0J243750D01*
G01*
X115600000Y-69518750D01*
G75*
G02*
X115843750Y-69275000I243750J0D01*
G01*
G37*
G36*
G01*
X115843750Y-71150000D02*
X116756250Y-71150000D01*
G75*
G02*
X117000000Y-71393750I0J-243750D01*
G01*
X117000000Y-71881250D01*
G75*
G02*
X116756250Y-72125000I-243750J0D01*
G01*
X115843750Y-72125000D01*
G75*
G02*
X115600000Y-71881250I0J243750D01*
G01*
X115600000Y-71393750D01*
G75*
G02*
X115843750Y-71150000I243750J0D01*
G01*
G37*
%TD*%
%TO.C,R14*%
G36*
G01*
X118243750Y-69275000D02*
X119156250Y-69275000D01*
G75*
G02*
X119400000Y-69518750I0J-243750D01*
G01*
X119400000Y-70006250D01*
G75*
G02*
X119156250Y-70250000I-243750J0D01*
G01*
X118243750Y-70250000D01*
G75*
G02*
X118000000Y-70006250I0J243750D01*
G01*
X118000000Y-69518750D01*
G75*
G02*
X118243750Y-69275000I243750J0D01*
G01*
G37*
G36*
G01*
X118243750Y-71150000D02*
X119156250Y-71150000D01*
G75*
G02*
X119400000Y-71393750I0J-243750D01*
G01*
X119400000Y-71881250D01*
G75*
G02*
X119156250Y-72125000I-243750J0D01*
G01*
X118243750Y-72125000D01*
G75*
G02*
X118000000Y-71881250I0J243750D01*
G01*
X118000000Y-71393750D01*
G75*
G02*
X118243750Y-71150000I243750J0D01*
G01*
G37*
%TD*%
%TO.C,R13*%
G36*
G01*
X120643750Y-69275000D02*
X121556250Y-69275000D01*
G75*
G02*
X121800000Y-69518750I0J-243750D01*
G01*
X121800000Y-70006250D01*
G75*
G02*
X121556250Y-70250000I-243750J0D01*
G01*
X120643750Y-70250000D01*
G75*
G02*
X120400000Y-70006250I0J243750D01*
G01*
X120400000Y-69518750D01*
G75*
G02*
X120643750Y-69275000I243750J0D01*
G01*
G37*
G36*
G01*
X120643750Y-71150000D02*
X121556250Y-71150000D01*
G75*
G02*
X121800000Y-71393750I0J-243750D01*
G01*
X121800000Y-71881250D01*
G75*
G02*
X121556250Y-72125000I-243750J0D01*
G01*
X120643750Y-72125000D01*
G75*
G02*
X120400000Y-71881250I0J243750D01*
G01*
X120400000Y-71393750D01*
G75*
G02*
X120643750Y-71150000I243750J0D01*
G01*
G37*
%TD*%
%TO.C,R12*%
G36*
G01*
X123043750Y-69212500D02*
X123956250Y-69212500D01*
G75*
G02*
X124200000Y-69456250I0J-243750D01*
G01*
X124200000Y-69943750D01*
G75*
G02*
X123956250Y-70187500I-243750J0D01*
G01*
X123043750Y-70187500D01*
G75*
G02*
X122800000Y-69943750I0J243750D01*
G01*
X122800000Y-69456250D01*
G75*
G02*
X123043750Y-69212500I243750J0D01*
G01*
G37*
G36*
G01*
X123043750Y-71087500D02*
X123956250Y-71087500D01*
G75*
G02*
X124200000Y-71331250I0J-243750D01*
G01*
X124200000Y-71818750D01*
G75*
G02*
X123956250Y-72062500I-243750J0D01*
G01*
X123043750Y-72062500D01*
G75*
G02*
X122800000Y-71818750I0J243750D01*
G01*
X122800000Y-71331250D01*
G75*
G02*
X123043750Y-71087500I243750J0D01*
G01*
G37*
%TD*%
%TO.C,R11*%
G36*
G01*
X108456250Y-84825000D02*
X107543750Y-84825000D01*
G75*
G02*
X107300000Y-84581250I0J243750D01*
G01*
X107300000Y-84093750D01*
G75*
G02*
X107543750Y-83850000I243750J0D01*
G01*
X108456250Y-83850000D01*
G75*
G02*
X108700000Y-84093750I0J-243750D01*
G01*
X108700000Y-84581250D01*
G75*
G02*
X108456250Y-84825000I-243750J0D01*
G01*
G37*
G36*
G01*
X108456250Y-82950000D02*
X107543750Y-82950000D01*
G75*
G02*
X107300000Y-82706250I0J243750D01*
G01*
X107300000Y-82218750D01*
G75*
G02*
X107543750Y-81975000I243750J0D01*
G01*
X108456250Y-81975000D01*
G75*
G02*
X108700000Y-82218750I0J-243750D01*
G01*
X108700000Y-82706250D01*
G75*
G02*
X108456250Y-82950000I-243750J0D01*
G01*
G37*
%TD*%
%TO.C,R10*%
G36*
G01*
X126775000Y-80656250D02*
X126775000Y-79743750D01*
G75*
G02*
X127018750Y-79500000I243750J0D01*
G01*
X127506250Y-79500000D01*
G75*
G02*
X127750000Y-79743750I0J-243750D01*
G01*
X127750000Y-80656250D01*
G75*
G02*
X127506250Y-80900000I-243750J0D01*
G01*
X127018750Y-80900000D01*
G75*
G02*
X126775000Y-80656250I0J243750D01*
G01*
G37*
G36*
G01*
X128650000Y-80656250D02*
X128650000Y-79743750D01*
G75*
G02*
X128893750Y-79500000I243750J0D01*
G01*
X129381250Y-79500000D01*
G75*
G02*
X129625000Y-79743750I0J-243750D01*
G01*
X129625000Y-80656250D01*
G75*
G02*
X129381250Y-80900000I-243750J0D01*
G01*
X128893750Y-80900000D01*
G75*
G02*
X128650000Y-80656250I0J243750D01*
G01*
G37*
%TD*%
%TO.C,R9*%
G36*
G01*
X129625000Y-81743750D02*
X129625000Y-82656250D01*
G75*
G02*
X129381250Y-82900000I-243750J0D01*
G01*
X128893750Y-82900000D01*
G75*
G02*
X128650000Y-82656250I0J243750D01*
G01*
X128650000Y-81743750D01*
G75*
G02*
X128893750Y-81500000I243750J0D01*
G01*
X129381250Y-81500000D01*
G75*
G02*
X129625000Y-81743750I0J-243750D01*
G01*
G37*
G36*
G01*
X127750000Y-81743750D02*
X127750000Y-82656250D01*
G75*
G02*
X127506250Y-82900000I-243750J0D01*
G01*
X127018750Y-82900000D01*
G75*
G02*
X126775000Y-82656250I0J243750D01*
G01*
X126775000Y-81743750D01*
G75*
G02*
X127018750Y-81500000I243750J0D01*
G01*
X127506250Y-81500000D01*
G75*
G02*
X127750000Y-81743750I0J-243750D01*
G01*
G37*
%TD*%
%TO.C,R8*%
G36*
G01*
X100625000Y-69143750D02*
X100625000Y-70056250D01*
G75*
G02*
X100381250Y-70300000I-243750J0D01*
G01*
X99893750Y-70300000D01*
G75*
G02*
X99650000Y-70056250I0J243750D01*
G01*
X99650000Y-69143750D01*
G75*
G02*
X99893750Y-68900000I243750J0D01*
G01*
X100381250Y-68900000D01*
G75*
G02*
X100625000Y-69143750I0J-243750D01*
G01*
G37*
G36*
G01*
X98750000Y-69143750D02*
X98750000Y-70056250D01*
G75*
G02*
X98506250Y-70300000I-243750J0D01*
G01*
X98018750Y-70300000D01*
G75*
G02*
X97775000Y-70056250I0J243750D01*
G01*
X97775000Y-69143750D01*
G75*
G02*
X98018750Y-68900000I243750J0D01*
G01*
X98506250Y-68900000D01*
G75*
G02*
X98750000Y-69143750I0J-243750D01*
G01*
G37*
%TD*%
%TO.C,R7*%
G36*
G01*
X97025000Y-69143750D02*
X97025000Y-70056250D01*
G75*
G02*
X96781250Y-70300000I-243750J0D01*
G01*
X96293750Y-70300000D01*
G75*
G02*
X96050000Y-70056250I0J243750D01*
G01*
X96050000Y-69143750D01*
G75*
G02*
X96293750Y-68900000I243750J0D01*
G01*
X96781250Y-68900000D01*
G75*
G02*
X97025000Y-69143750I0J-243750D01*
G01*
G37*
G36*
G01*
X95150000Y-69143750D02*
X95150000Y-70056250D01*
G75*
G02*
X94906250Y-70300000I-243750J0D01*
G01*
X94418750Y-70300000D01*
G75*
G02*
X94175000Y-70056250I0J243750D01*
G01*
X94175000Y-69143750D01*
G75*
G02*
X94418750Y-68900000I243750J0D01*
G01*
X94906250Y-68900000D01*
G75*
G02*
X95150000Y-69143750I0J-243750D01*
G01*
G37*
%TD*%
%TO.C,R3*%
G36*
G01*
X77675000Y-81256250D02*
X77675000Y-80343750D01*
G75*
G02*
X77918750Y-80100000I243750J0D01*
G01*
X78406250Y-80100000D01*
G75*
G02*
X78650000Y-80343750I0J-243750D01*
G01*
X78650000Y-81256250D01*
G75*
G02*
X78406250Y-81500000I-243750J0D01*
G01*
X77918750Y-81500000D01*
G75*
G02*
X77675000Y-81256250I0J243750D01*
G01*
G37*
G36*
G01*
X79550000Y-81256250D02*
X79550000Y-80343750D01*
G75*
G02*
X79793750Y-80100000I243750J0D01*
G01*
X80281250Y-80100000D01*
G75*
G02*
X80525000Y-80343750I0J-243750D01*
G01*
X80525000Y-81256250D01*
G75*
G02*
X80281250Y-81500000I-243750J0D01*
G01*
X79793750Y-81500000D01*
G75*
G02*
X79550000Y-81256250I0J243750D01*
G01*
G37*
%TD*%
%TO.C,R2*%
G36*
G01*
X77675000Y-75556250D02*
X77675000Y-74643750D01*
G75*
G02*
X77918750Y-74400000I243750J0D01*
G01*
X78406250Y-74400000D01*
G75*
G02*
X78650000Y-74643750I0J-243750D01*
G01*
X78650000Y-75556250D01*
G75*
G02*
X78406250Y-75800000I-243750J0D01*
G01*
X77918750Y-75800000D01*
G75*
G02*
X77675000Y-75556250I0J243750D01*
G01*
G37*
G36*
G01*
X79550000Y-75556250D02*
X79550000Y-74643750D01*
G75*
G02*
X79793750Y-74400000I243750J0D01*
G01*
X80281250Y-74400000D01*
G75*
G02*
X80525000Y-74643750I0J-243750D01*
G01*
X80525000Y-75556250D01*
G75*
G02*
X80281250Y-75800000I-243750J0D01*
G01*
X79793750Y-75800000D01*
G75*
G02*
X79550000Y-75556250I0J243750D01*
G01*
G37*
%TD*%
%TO.C,R1*%
G36*
G01*
X77675000Y-69956250D02*
X77675000Y-69043750D01*
G75*
G02*
X77918750Y-68800000I243750J0D01*
G01*
X78406250Y-68800000D01*
G75*
G02*
X78650000Y-69043750I0J-243750D01*
G01*
X78650000Y-69956250D01*
G75*
G02*
X78406250Y-70200000I-243750J0D01*
G01*
X77918750Y-70200000D01*
G75*
G02*
X77675000Y-69956250I0J243750D01*
G01*
G37*
G36*
G01*
X79550000Y-69956250D02*
X79550000Y-69043750D01*
G75*
G02*
X79793750Y-68800000I243750J0D01*
G01*
X80281250Y-68800000D01*
G75*
G02*
X80525000Y-69043750I0J-243750D01*
G01*
X80525000Y-69956250D01*
G75*
G02*
X80281250Y-70200000I-243750J0D01*
G01*
X79793750Y-70200000D01*
G75*
G02*
X79550000Y-69956250I0J243750D01*
G01*
G37*
%TD*%
D19*
%TO.C,Q5*%
X124250000Y-79950000D03*
X125550000Y-79950000D03*
X124900000Y-81850000D03*
X124900000Y-79950000D03*
X125550000Y-81850000D03*
X124250000Y-81850000D03*
%TD*%
D20*
%TO.C,J12*%
X105060000Y-65200000D03*
X107600000Y-65200000D03*
D21*
X110140000Y-65200000D03*
%TD*%
D20*
%TO.C,J11*%
X113760000Y-65200000D03*
X116300000Y-65200000D03*
D21*
X118840000Y-65200000D03*
%TD*%
D20*
%TO.C,J10*%
X122460000Y-65200000D03*
X125000000Y-65200000D03*
D21*
X127540000Y-65200000D03*
%TD*%
D20*
%TO.C,J8*%
X128040000Y-89000000D03*
X125500000Y-89000000D03*
D21*
X122960000Y-89000000D03*
%TD*%
D20*
%TO.C,J7*%
X133000000Y-76540000D03*
X133000000Y-74000000D03*
D21*
X133000000Y-71460000D03*
%TD*%
D20*
%TO.C,J6*%
X133000000Y-83270000D03*
D21*
X133000000Y-80730000D03*
%TD*%
D20*
%TO.C,J4*%
X72620000Y-84450000D03*
D21*
X70080000Y-84450000D03*
%TD*%
D20*
%TO.C,J3*%
X72620000Y-77950000D03*
D21*
X70080000Y-77950000D03*
%TD*%
D20*
%TO.C,J2*%
X72620000Y-71500000D03*
D21*
X70080000Y-71500000D03*
%TD*%
D20*
%TO.C,J1*%
X91130000Y-65200000D03*
D21*
X93670000Y-65200000D03*
%TD*%
%TO.C,F1*%
G36*
G01*
X128175000Y-70875000D02*
X129425000Y-70875000D01*
G75*
G02*
X129675000Y-71125000I0J-250000D01*
G01*
X129675000Y-71875000D01*
G75*
G02*
X129425000Y-72125000I-250000J0D01*
G01*
X128175000Y-72125000D01*
G75*
G02*
X127925000Y-71875000I0J250000D01*
G01*
X127925000Y-71125000D01*
G75*
G02*
X128175000Y-70875000I250000J0D01*
G01*
G37*
G36*
G01*
X128175000Y-73675000D02*
X129425000Y-73675000D01*
G75*
G02*
X129675000Y-73925000I0J-250000D01*
G01*
X129675000Y-74675000D01*
G75*
G02*
X129425000Y-74925000I-250000J0D01*
G01*
X128175000Y-74925000D01*
G75*
G02*
X127925000Y-74675000I0J250000D01*
G01*
X127925000Y-73925000D01*
G75*
G02*
X128175000Y-73675000I250000J0D01*
G01*
G37*
%TD*%
%TO.C,C11*%
G36*
G01*
X105443750Y-81975000D02*
X106356250Y-81975000D01*
G75*
G02*
X106600000Y-82218750I0J-243750D01*
G01*
X106600000Y-82706250D01*
G75*
G02*
X106356250Y-82950000I-243750J0D01*
G01*
X105443750Y-82950000D01*
G75*
G02*
X105200000Y-82706250I0J243750D01*
G01*
X105200000Y-82218750D01*
G75*
G02*
X105443750Y-81975000I243750J0D01*
G01*
G37*
G36*
G01*
X105443750Y-83850000D02*
X106356250Y-83850000D01*
G75*
G02*
X106600000Y-84093750I0J-243750D01*
G01*
X106600000Y-84581250D01*
G75*
G02*
X106356250Y-84825000I-243750J0D01*
G01*
X105443750Y-84825000D01*
G75*
G02*
X105200000Y-84581250I0J243750D01*
G01*
X105200000Y-84093750D01*
G75*
G02*
X105443750Y-83850000I243750J0D01*
G01*
G37*
%TD*%
%TO.C,C10*%
G36*
G01*
X126775000Y-84656250D02*
X126775000Y-83743750D01*
G75*
G02*
X127018750Y-83500000I243750J0D01*
G01*
X127506250Y-83500000D01*
G75*
G02*
X127750000Y-83743750I0J-243750D01*
G01*
X127750000Y-84656250D01*
G75*
G02*
X127506250Y-84900000I-243750J0D01*
G01*
X127018750Y-84900000D01*
G75*
G02*
X126775000Y-84656250I0J243750D01*
G01*
G37*
G36*
G01*
X128650000Y-84656250D02*
X128650000Y-83743750D01*
G75*
G02*
X128893750Y-83500000I243750J0D01*
G01*
X129381250Y-83500000D01*
G75*
G02*
X129625000Y-83743750I0J-243750D01*
G01*
X129625000Y-84656250D01*
G75*
G02*
X129381250Y-84900000I-243750J0D01*
G01*
X128893750Y-84900000D01*
G75*
G02*
X128650000Y-84656250I0J243750D01*
G01*
G37*
%TD*%
%TO.C,C9*%
G36*
G01*
X93164990Y-86130245D02*
X92519755Y-85485010D01*
G75*
G02*
X92519755Y-85140296I172357J172357D01*
G01*
X92864470Y-84795581D01*
G75*
G02*
X93209184Y-84795581I172357J-172357D01*
G01*
X93854419Y-85440816D01*
G75*
G02*
X93854419Y-85785530I-172357J-172357D01*
G01*
X93509704Y-86130245D01*
G75*
G02*
X93164990Y-86130245I-172357J172357D01*
G01*
G37*
G36*
G01*
X94490816Y-84804419D02*
X93845581Y-84159184D01*
G75*
G02*
X93845581Y-83814470I172357J172357D01*
G01*
X94190296Y-83469755D01*
G75*
G02*
X94535010Y-83469755I172357J-172357D01*
G01*
X95180245Y-84114990D01*
G75*
G02*
X95180245Y-84459704I-172357J-172357D01*
G01*
X94835530Y-84804419D01*
G75*
G02*
X94490816Y-84804419I-172357J172357D01*
G01*
G37*
%TD*%
%TO.C,C8*%
G36*
G01*
X88425000Y-85643750D02*
X88425000Y-86556250D01*
G75*
G02*
X88181250Y-86800000I-243750J0D01*
G01*
X87693750Y-86800000D01*
G75*
G02*
X87450000Y-86556250I0J243750D01*
G01*
X87450000Y-85643750D01*
G75*
G02*
X87693750Y-85400000I243750J0D01*
G01*
X88181250Y-85400000D01*
G75*
G02*
X88425000Y-85643750I0J-243750D01*
G01*
G37*
G36*
G01*
X86550000Y-85643750D02*
X86550000Y-86556250D01*
G75*
G02*
X86306250Y-86800000I-243750J0D01*
G01*
X85818750Y-86800000D01*
G75*
G02*
X85575000Y-86556250I0J243750D01*
G01*
X85575000Y-85643750D01*
G75*
G02*
X85818750Y-85400000I243750J0D01*
G01*
X86306250Y-85400000D01*
G75*
G02*
X86550000Y-85643750I0J-243750D01*
G01*
G37*
%TD*%
%TO.C,C7*%
G36*
G01*
X88462501Y-83543750D02*
X88462501Y-84456250D01*
G75*
G02*
X88218751Y-84700000I-243750J0D01*
G01*
X87731251Y-84700000D01*
G75*
G02*
X87487501Y-84456250I0J243750D01*
G01*
X87487501Y-83543750D01*
G75*
G02*
X87731251Y-83300000I243750J0D01*
G01*
X88218751Y-83300000D01*
G75*
G02*
X88462501Y-83543750I0J-243750D01*
G01*
G37*
G36*
G01*
X86587501Y-83543750D02*
X86587501Y-84456250D01*
G75*
G02*
X86343751Y-84700000I-243750J0D01*
G01*
X85856251Y-84700000D01*
G75*
G02*
X85612501Y-84456250I0J243750D01*
G01*
X85612501Y-83543750D01*
G75*
G02*
X85856251Y-83300000I243750J0D01*
G01*
X86343751Y-83300000D01*
G75*
G02*
X86587501Y-83543750I0J-243750D01*
G01*
G37*
%TD*%
%TO.C,C6*%
G36*
G01*
X94193750Y-78475000D02*
X95106250Y-78475000D01*
G75*
G02*
X95350000Y-78718750I0J-243750D01*
G01*
X95350000Y-79206250D01*
G75*
G02*
X95106250Y-79450000I-243750J0D01*
G01*
X94193750Y-79450000D01*
G75*
G02*
X93950000Y-79206250I0J243750D01*
G01*
X93950000Y-78718750D01*
G75*
G02*
X94193750Y-78475000I243750J0D01*
G01*
G37*
G36*
G01*
X94193750Y-80350000D02*
X95106250Y-80350000D01*
G75*
G02*
X95350000Y-80593750I0J-243750D01*
G01*
X95350000Y-81081250D01*
G75*
G02*
X95106250Y-81325000I-243750J0D01*
G01*
X94193750Y-81325000D01*
G75*
G02*
X93950000Y-81081250I0J243750D01*
G01*
X93950000Y-80593750D01*
G75*
G02*
X94193750Y-80350000I243750J0D01*
G01*
G37*
%TD*%
%TO.C,C5*%
G36*
G01*
X94193750Y-74975000D02*
X95106250Y-74975000D01*
G75*
G02*
X95350000Y-75218750I0J-243750D01*
G01*
X95350000Y-75706250D01*
G75*
G02*
X95106250Y-75950000I-243750J0D01*
G01*
X94193750Y-75950000D01*
G75*
G02*
X93950000Y-75706250I0J243750D01*
G01*
X93950000Y-75218750D01*
G75*
G02*
X94193750Y-74975000I243750J0D01*
G01*
G37*
G36*
G01*
X94193750Y-76850000D02*
X95106250Y-76850000D01*
G75*
G02*
X95350000Y-77093750I0J-243750D01*
G01*
X95350000Y-77581250D01*
G75*
G02*
X95106250Y-77825000I-243750J0D01*
G01*
X94193750Y-77825000D01*
G75*
G02*
X93950000Y-77581250I0J243750D01*
G01*
X93950000Y-77093750D01*
G75*
G02*
X94193750Y-76850000I243750J0D01*
G01*
G37*
%TD*%
%TO.C,C4*%
G36*
G01*
X82075000Y-84456250D02*
X82075000Y-83543750D01*
G75*
G02*
X82318750Y-83300000I243750J0D01*
G01*
X82806250Y-83300000D01*
G75*
G02*
X83050000Y-83543750I0J-243750D01*
G01*
X83050000Y-84456250D01*
G75*
G02*
X82806250Y-84700000I-243750J0D01*
G01*
X82318750Y-84700000D01*
G75*
G02*
X82075000Y-84456250I0J243750D01*
G01*
G37*
G36*
G01*
X83950000Y-84456250D02*
X83950000Y-83543750D01*
G75*
G02*
X84193750Y-83300000I243750J0D01*
G01*
X84681250Y-83300000D01*
G75*
G02*
X84925000Y-83543750I0J-243750D01*
G01*
X84925000Y-84456250D01*
G75*
G02*
X84681250Y-84700000I-243750J0D01*
G01*
X84193750Y-84700000D01*
G75*
G02*
X83950000Y-84456250I0J243750D01*
G01*
G37*
%TD*%
%TO.C,C3*%
G36*
G01*
X106306250Y-77825000D02*
X105393750Y-77825000D01*
G75*
G02*
X105150000Y-77581250I0J243750D01*
G01*
X105150000Y-77093750D01*
G75*
G02*
X105393750Y-76850000I243750J0D01*
G01*
X106306250Y-76850000D01*
G75*
G02*
X106550000Y-77093750I0J-243750D01*
G01*
X106550000Y-77581250D01*
G75*
G02*
X106306250Y-77825000I-243750J0D01*
G01*
G37*
G36*
G01*
X106306250Y-75950000D02*
X105393750Y-75950000D01*
G75*
G02*
X105150000Y-75706250I0J243750D01*
G01*
X105150000Y-75218750D01*
G75*
G02*
X105393750Y-74975000I243750J0D01*
G01*
X106306250Y-74975000D01*
G75*
G02*
X106550000Y-75218750I0J-243750D01*
G01*
X106550000Y-75706250D01*
G75*
G02*
X106306250Y-75950000I-243750J0D01*
G01*
G37*
%TD*%
%TO.C,C2*%
G36*
G01*
X106306250Y-81325000D02*
X105393750Y-81325000D01*
G75*
G02*
X105150000Y-81081250I0J243750D01*
G01*
X105150000Y-80593750D01*
G75*
G02*
X105393750Y-80350000I243750J0D01*
G01*
X106306250Y-80350000D01*
G75*
G02*
X106550000Y-80593750I0J-243750D01*
G01*
X106550000Y-81081250D01*
G75*
G02*
X106306250Y-81325000I-243750J0D01*
G01*
G37*
G36*
G01*
X106306250Y-79450000D02*
X105393750Y-79450000D01*
G75*
G02*
X105150000Y-79206250I0J243750D01*
G01*
X105150000Y-78718750D01*
G75*
G02*
X105393750Y-78475000I243750J0D01*
G01*
X106306250Y-78475000D01*
G75*
G02*
X106550000Y-78718750I0J-243750D01*
G01*
X106550000Y-79206250D01*
G75*
G02*
X106306250Y-79450000I-243750J0D01*
G01*
G37*
%TD*%
D22*
%TO.C,C1*%
X85250000Y-66000000D03*
D23*
X85250000Y-68500000D03*
%TD*%
M02*
