%TF.GenerationSoftware,KiCad,Pcbnew,6.0.0-d3dd2cf0fa~116~ubuntu20.04.1*%
%TF.CreationDate,2021-12-27T17:03:20+01:00*%
%TF.ProjectId,VacuumPick,56616375-756d-4506-9963-6b2e6b696361,rev?*%
%TF.SameCoordinates,Original*%
%TF.FileFunction,Legend,Top*%
%TF.FilePolarity,Positive*%
%FSLAX46Y46*%
G04 Gerber Fmt 4.6, Leading zero omitted, Abs format (unit mm)*
G04 Created by KiCad (PCBNEW 6.0.0-d3dd2cf0fa~116~ubuntu20.04.1) date 2021-12-27 17:03:20*
%MOMM*%
%LPD*%
G01*
G04 APERTURE LIST*
%ADD10C,0.120000*%
%ADD11C,0.100000*%
%ADD12C,0.200000*%
%ADD13C,0.150000*%
%ADD14C,0.300000*%
%ADD15C,0.010000*%
G04 APERTURE END LIST*
D10*
X114200000Y-80000000D02*
X114200000Y-81200000D01*
X113800000Y-81200000D02*
X114600000Y-81200000D01*
X114400000Y-81400000D02*
X114000000Y-81400000D01*
D11*
X72600000Y-67700000D02*
X72000000Y-66800000D01*
X72000000Y-66800000D02*
X73200000Y-66800000D01*
X73200000Y-66800000D02*
X72600000Y-67700000D01*
G36*
X72600000Y-67700000D02*
G01*
X72000000Y-66800000D01*
X73200000Y-66800000D01*
X72600000Y-67700000D01*
G37*
X72600000Y-67700000D02*
X72000000Y-66800000D01*
X73200000Y-66800000D01*
X72600000Y-67700000D01*
D12*
X123573607Y-82100000D02*
G75*
G03*
X123573607Y-82100000I-223607J0D01*
G01*
X75200000Y-71100000D02*
X76400000Y-71100000D01*
D11*
X75800000Y-71100000D02*
X76400000Y-72000000D01*
X76400000Y-72000000D02*
X75200000Y-72000000D01*
X75200000Y-72000000D02*
X75800000Y-71100000D01*
G36*
X76400000Y-72000000D02*
G01*
X75200000Y-72000000D01*
X75800000Y-71100000D01*
X76400000Y-72000000D01*
G37*
X76400000Y-72000000D02*
X75200000Y-72000000D01*
X75800000Y-71100000D01*
X76400000Y-72000000D01*
D12*
X75200000Y-77000000D02*
X76400000Y-77000000D01*
D11*
X75800000Y-77000000D02*
X76400000Y-77900000D01*
X76400000Y-77900000D02*
X75200000Y-77900000D01*
X75200000Y-77900000D02*
X75800000Y-77000000D01*
G36*
X76400000Y-77900000D02*
G01*
X75200000Y-77900000D01*
X75800000Y-77000000D01*
X76400000Y-77900000D01*
G37*
X76400000Y-77900000D02*
X75200000Y-77900000D01*
X75800000Y-77000000D01*
X76400000Y-77900000D01*
X75800000Y-82800000D02*
X76400000Y-83700000D01*
X76400000Y-83700000D02*
X75200000Y-83700000D01*
X75200000Y-83700000D02*
X75800000Y-82800000D01*
G36*
X76400000Y-83700000D02*
G01*
X75200000Y-83700000D01*
X75800000Y-82800000D01*
X76400000Y-83700000D01*
G37*
X76400000Y-83700000D02*
X75200000Y-83700000D01*
X75800000Y-82800000D01*
X76400000Y-83700000D01*
D12*
X75200000Y-82800000D02*
X76400000Y-82800000D01*
X100900000Y-72200000D02*
X100900000Y-73400000D01*
D11*
X100900000Y-72800000D02*
X100000000Y-73400000D01*
X100000000Y-73400000D02*
X100000000Y-72200000D01*
X100000000Y-72200000D02*
X100900000Y-72800000D01*
G36*
X100900000Y-72800000D02*
G01*
X100000000Y-73400000D01*
X100000000Y-72200000D01*
X100900000Y-72800000D01*
G37*
X100900000Y-72800000D02*
X100000000Y-73400000D01*
X100000000Y-72200000D01*
X100900000Y-72800000D01*
X124300000Y-77600000D02*
X125000000Y-78100000D01*
X125000000Y-78100000D02*
X124300000Y-78600000D01*
X124300000Y-78600000D02*
X124300000Y-77600000D01*
G36*
X125000000Y-78100000D02*
G01*
X124300000Y-78600000D01*
X124300000Y-77600000D01*
X125000000Y-78100000D01*
G37*
X125000000Y-78100000D02*
X124300000Y-78600000D01*
X124300000Y-77600000D01*
X125000000Y-78100000D01*
X127700000Y-78600000D02*
X128200000Y-77900000D01*
X128200000Y-77900000D02*
X128700000Y-78600000D01*
X128700000Y-78600000D02*
X127700000Y-78600000D01*
G36*
X128700000Y-78600000D02*
G01*
X127700000Y-78600000D01*
X128200000Y-77900000D01*
X128700000Y-78600000D01*
G37*
X128700000Y-78600000D02*
X127700000Y-78600000D01*
X128200000Y-77900000D01*
X128700000Y-78600000D01*
D12*
X127700000Y-77900000D02*
X128700000Y-77900000D01*
D10*
X122600000Y-80300000D02*
X122600000Y-81500000D01*
X122200000Y-81500000D02*
X123000000Y-81500000D01*
X112700000Y-68900000D02*
X112700000Y-72700000D01*
D11*
X125000000Y-76000000D02*
X124300000Y-75500000D01*
X124300000Y-75500000D02*
X125000000Y-75000000D01*
X125000000Y-75000000D02*
X125000000Y-76000000D01*
G36*
X125000000Y-76000000D02*
G01*
X124300000Y-75500000D01*
X125000000Y-75000000D01*
X125000000Y-76000000D01*
G37*
X125000000Y-76000000D02*
X124300000Y-75500000D01*
X125000000Y-75000000D01*
X125000000Y-76000000D01*
D10*
X122800000Y-81700000D02*
X122400000Y-81700000D01*
D12*
X96423607Y-83750000D02*
G75*
G03*
X96423607Y-83750000I-223607J0D01*
G01*
D11*
X70100000Y-67700000D02*
X69500000Y-66800000D01*
X69500000Y-66800000D02*
X70700000Y-66800000D01*
X70700000Y-66800000D02*
X70100000Y-67700000D01*
G36*
X70100000Y-67700000D02*
G01*
X69500000Y-66800000D01*
X70700000Y-66800000D01*
X70100000Y-67700000D01*
G37*
X70100000Y-67700000D02*
X69500000Y-66800000D01*
X70700000Y-66800000D01*
X70100000Y-67700000D01*
D10*
X125100000Y-68900000D02*
X125100000Y-72600000D01*
D13*
X122866666Y-75861904D02*
X122600000Y-75480952D01*
X122409523Y-75861904D02*
X122409523Y-75061904D01*
X122714285Y-75061904D01*
X122790476Y-75100000D01*
X122828571Y-75138095D01*
X122866666Y-75214285D01*
X122866666Y-75328571D01*
X122828571Y-75404761D01*
X122790476Y-75442857D01*
X122714285Y-75480952D01*
X122409523Y-75480952D01*
X123133333Y-75061904D02*
X123666666Y-75861904D01*
X123666666Y-75061904D02*
X123133333Y-75861904D01*
X122847619Y-82761904D02*
X122466666Y-82761904D01*
X122428571Y-83142857D01*
X122466666Y-83104761D01*
X122542857Y-83066666D01*
X122733333Y-83066666D01*
X122809523Y-83104761D01*
X122847619Y-83142857D01*
X122885714Y-83219047D01*
X122885714Y-83409523D01*
X122847619Y-83485714D01*
X122809523Y-83523809D01*
X122733333Y-83561904D01*
X122542857Y-83561904D01*
X122466666Y-83523809D01*
X122428571Y-83485714D01*
X123114285Y-82761904D02*
X123380952Y-83561904D01*
X123647619Y-82761904D01*
X112828571Y-75723809D02*
X112942857Y-75761904D01*
X113133333Y-75761904D01*
X113209523Y-75723809D01*
X113247619Y-75685714D01*
X113285714Y-75609523D01*
X113285714Y-75533333D01*
X113247619Y-75457142D01*
X113209523Y-75419047D01*
X113133333Y-75380952D01*
X112980952Y-75342857D01*
X112904761Y-75304761D01*
X112866666Y-75266666D01*
X112828571Y-75190476D01*
X112828571Y-75114285D01*
X112866666Y-75038095D01*
X112904761Y-75000000D01*
X112980952Y-74961904D01*
X113171428Y-74961904D01*
X113285714Y-75000000D01*
X113628571Y-75761904D02*
X113628571Y-74961904D01*
X113819047Y-74961904D01*
X113933333Y-75000000D01*
X114009523Y-75076190D01*
X114047619Y-75152380D01*
X114085714Y-75304761D01*
X114085714Y-75419047D01*
X114047619Y-75571428D01*
X114009523Y-75647619D01*
X113933333Y-75723809D01*
X113819047Y-75761904D01*
X113628571Y-75761904D01*
X114390476Y-75533333D02*
X114771428Y-75533333D01*
X114314285Y-75761904D02*
X114580952Y-74961904D01*
X114847619Y-75761904D01*
X112923809Y-78952380D02*
X112961904Y-78838095D01*
X112961904Y-78647619D01*
X112923809Y-78571428D01*
X112885714Y-78533333D01*
X112809523Y-78495238D01*
X112733333Y-78495238D01*
X112657142Y-78533333D01*
X112619047Y-78571428D01*
X112580952Y-78647619D01*
X112542857Y-78800000D01*
X112504761Y-78876190D01*
X112466666Y-78914285D01*
X112390476Y-78952380D01*
X112314285Y-78952380D01*
X112238095Y-78914285D01*
X112200000Y-78876190D01*
X112161904Y-78800000D01*
X112161904Y-78609523D01*
X112200000Y-78495238D01*
X112885714Y-77695238D02*
X112923809Y-77733333D01*
X112961904Y-77847619D01*
X112961904Y-77923809D01*
X112923809Y-78038095D01*
X112847619Y-78114285D01*
X112771428Y-78152380D01*
X112619047Y-78190476D01*
X112504761Y-78190476D01*
X112352380Y-78152380D01*
X112276190Y-78114285D01*
X112200000Y-78038095D01*
X112161904Y-77923809D01*
X112161904Y-77847619D01*
X112200000Y-77733333D01*
X112238095Y-77695238D01*
X112961904Y-76971428D02*
X112961904Y-77352380D01*
X112161904Y-77352380D01*
X114247619Y-82761904D02*
X113866666Y-82761904D01*
X113828571Y-83142857D01*
X113866666Y-83104761D01*
X113942857Y-83066666D01*
X114133333Y-83066666D01*
X114209523Y-83104761D01*
X114247619Y-83142857D01*
X114285714Y-83219047D01*
X114285714Y-83409523D01*
X114247619Y-83485714D01*
X114209523Y-83523809D01*
X114133333Y-83561904D01*
X113942857Y-83561904D01*
X113866666Y-83523809D01*
X113828571Y-83485714D01*
X114514285Y-82761904D02*
X114780952Y-83561904D01*
X115047619Y-82761904D01*
X114190476Y-87736000D02*
X115028571Y-87736000D01*
X114380952Y-87961904D02*
X114380952Y-88609523D01*
X114419047Y-88685714D01*
X114457142Y-88723809D01*
X114533333Y-88761904D01*
X114685714Y-88761904D01*
X114761904Y-88723809D01*
X114800000Y-88685714D01*
X114838095Y-88609523D01*
X114838095Y-87961904D01*
X115028571Y-87736000D02*
X115828571Y-87736000D01*
X115219047Y-88761904D02*
X115219047Y-87961904D01*
X115523809Y-87961904D01*
X115600000Y-88000000D01*
X115638095Y-88038095D01*
X115676190Y-88114285D01*
X115676190Y-88228571D01*
X115638095Y-88304761D01*
X115600000Y-88342857D01*
X115523809Y-88380952D01*
X115219047Y-88380952D01*
X115828571Y-87736000D02*
X116628571Y-87736000D01*
X116019047Y-88761904D02*
X116019047Y-87961904D01*
X116209523Y-87961904D01*
X116323809Y-88000000D01*
X116400000Y-88076190D01*
X116438095Y-88152380D01*
X116476190Y-88304761D01*
X116476190Y-88419047D01*
X116438095Y-88571428D01*
X116400000Y-88647619D01*
X116323809Y-88723809D01*
X116209523Y-88761904D01*
X116019047Y-88761904D01*
X116628571Y-87736000D02*
X117009523Y-87736000D01*
X116819047Y-88761904D02*
X116819047Y-87961904D01*
X112847619Y-87961904D02*
X112466666Y-87961904D01*
X112428571Y-88342857D01*
X112466666Y-88304761D01*
X112542857Y-88266666D01*
X112733333Y-88266666D01*
X112809523Y-88304761D01*
X112847619Y-88342857D01*
X112885714Y-88419047D01*
X112885714Y-88609523D01*
X112847619Y-88685714D01*
X112809523Y-88723809D01*
X112733333Y-88761904D01*
X112542857Y-88761904D01*
X112466666Y-88723809D01*
X112428571Y-88685714D01*
X113114285Y-87961904D02*
X113380952Y-88761904D01*
X113647619Y-87961904D01*
X109790476Y-88000000D02*
X109714285Y-87961904D01*
X109600000Y-87961904D01*
X109485714Y-88000000D01*
X109409523Y-88076190D01*
X109371428Y-88152380D01*
X109333333Y-88304761D01*
X109333333Y-88419047D01*
X109371428Y-88571428D01*
X109409523Y-88647619D01*
X109485714Y-88723809D01*
X109600000Y-88761904D01*
X109676190Y-88761904D01*
X109790476Y-88723809D01*
X109828571Y-88685714D01*
X109828571Y-88419047D01*
X109676190Y-88419047D01*
X110171428Y-88761904D02*
X110171428Y-87961904D01*
X110628571Y-88761904D01*
X110628571Y-87961904D01*
X111009523Y-88761904D02*
X111009523Y-87961904D01*
X111200000Y-87961904D01*
X111314285Y-88000000D01*
X111390476Y-88076190D01*
X111428571Y-88152380D01*
X111466666Y-88304761D01*
X111466666Y-88419047D01*
X111428571Y-88571428D01*
X111390476Y-88647619D01*
X111314285Y-88723809D01*
X111200000Y-88761904D01*
X111009523Y-88761904D01*
X117447619Y-87923809D02*
X117561904Y-87961904D01*
X117752380Y-87961904D01*
X117828571Y-87923809D01*
X117866666Y-87885714D01*
X117904761Y-87809523D01*
X117904761Y-87733333D01*
X117866666Y-87657142D01*
X117828571Y-87619047D01*
X117752380Y-87580952D01*
X117600000Y-87542857D01*
X117523809Y-87504761D01*
X117485714Y-87466666D01*
X117447619Y-87390476D01*
X117447619Y-87314285D01*
X117485714Y-87238095D01*
X117523809Y-87200000D01*
X117600000Y-87161904D01*
X117790476Y-87161904D01*
X117904761Y-87200000D01*
X118247619Y-87961904D02*
X118247619Y-87161904D01*
X118552380Y-87161904D01*
X118628571Y-87200000D01*
X118666666Y-87238095D01*
X118704761Y-87314285D01*
X118704761Y-87428571D01*
X118666666Y-87504761D01*
X118628571Y-87542857D01*
X118552380Y-87580952D01*
X118247619Y-87580952D01*
X119047619Y-87542857D02*
X119314285Y-87542857D01*
X119428571Y-87961904D02*
X119047619Y-87961904D01*
X119047619Y-87161904D01*
X119428571Y-87161904D01*
X119771428Y-87542857D02*
X120038095Y-87542857D01*
X120152380Y-87961904D02*
X119771428Y-87961904D01*
X119771428Y-87161904D01*
X120152380Y-87161904D01*
X120495238Y-87961904D02*
X120495238Y-87161904D01*
X120685714Y-87161904D01*
X120800000Y-87200000D01*
X120876190Y-87276190D01*
X120914285Y-87352380D01*
X120952380Y-87504761D01*
X120952380Y-87619047D01*
X120914285Y-87771428D01*
X120876190Y-87847619D01*
X120800000Y-87923809D01*
X120685714Y-87961904D01*
X120495238Y-87961904D01*
X123933333Y-73623809D02*
X124047619Y-73661904D01*
X124238095Y-73661904D01*
X124314285Y-73623809D01*
X124352380Y-73585714D01*
X124390476Y-73509523D01*
X124390476Y-73433333D01*
X124352380Y-73357142D01*
X124314285Y-73319047D01*
X124238095Y-73280952D01*
X124085714Y-73242857D01*
X124009523Y-73204761D01*
X123971428Y-73166666D01*
X123933333Y-73090476D01*
X123933333Y-73014285D01*
X123971428Y-72938095D01*
X124009523Y-72900000D01*
X124085714Y-72861904D01*
X124276190Y-72861904D01*
X124390476Y-72900000D01*
X124657142Y-72861904D02*
X124847619Y-73661904D01*
X125000000Y-73090476D01*
X125152380Y-73661904D01*
X125342857Y-72861904D01*
X126066666Y-73661904D02*
X125609523Y-73661904D01*
X125838095Y-73661904D02*
X125838095Y-72861904D01*
X125761904Y-72976190D01*
X125685714Y-73052380D01*
X125609523Y-73090476D01*
X110533333Y-73723809D02*
X110647619Y-73761904D01*
X110838095Y-73761904D01*
X110914285Y-73723809D01*
X110952380Y-73685714D01*
X110990476Y-73609523D01*
X110990476Y-73533333D01*
X110952380Y-73457142D01*
X110914285Y-73419047D01*
X110838095Y-73380952D01*
X110685714Y-73342857D01*
X110609523Y-73304761D01*
X110571428Y-73266666D01*
X110533333Y-73190476D01*
X110533333Y-73114285D01*
X110571428Y-73038095D01*
X110609523Y-73000000D01*
X110685714Y-72961904D01*
X110876190Y-72961904D01*
X110990476Y-73000000D01*
X111257142Y-72961904D02*
X111447619Y-73761904D01*
X111600000Y-73190476D01*
X111752380Y-73761904D01*
X111942857Y-72961904D01*
X112209523Y-73038095D02*
X112247619Y-73000000D01*
X112323809Y-72961904D01*
X112514285Y-72961904D01*
X112590476Y-73000000D01*
X112628571Y-73038095D01*
X112666666Y-73114285D01*
X112666666Y-73190476D01*
X112628571Y-73304761D01*
X112171428Y-73761904D01*
X112666666Y-73761904D01*
X101033333Y-68423809D02*
X101147619Y-68461904D01*
X101338095Y-68461904D01*
X101414285Y-68423809D01*
X101452380Y-68385714D01*
X101490476Y-68309523D01*
X101490476Y-68233333D01*
X101452380Y-68157142D01*
X101414285Y-68119047D01*
X101338095Y-68080952D01*
X101185714Y-68042857D01*
X101109523Y-68004761D01*
X101071428Y-67966666D01*
X101033333Y-67890476D01*
X101033333Y-67814285D01*
X101071428Y-67738095D01*
X101109523Y-67700000D01*
X101185714Y-67661904D01*
X101376190Y-67661904D01*
X101490476Y-67700000D01*
X101757142Y-67661904D02*
X101947619Y-68461904D01*
X102100000Y-67890476D01*
X102252380Y-68461904D01*
X102442857Y-67661904D01*
X102671428Y-67661904D02*
X103166666Y-67661904D01*
X102900000Y-67966666D01*
X103014285Y-67966666D01*
X103090476Y-68004761D01*
X103128571Y-68042857D01*
X103166666Y-68119047D01*
X103166666Y-68309523D01*
X103128571Y-68385714D01*
X103090476Y-68423809D01*
X103014285Y-68461904D01*
X102785714Y-68461904D01*
X102709523Y-68423809D01*
X102671428Y-68385714D01*
X125623809Y-74961904D02*
X125623809Y-74161904D01*
X125623809Y-74542857D02*
X126080952Y-74542857D01*
X126080952Y-74961904D02*
X126080952Y-74161904D01*
X126423809Y-74733333D02*
X126804761Y-74733333D01*
X126347619Y-74961904D02*
X126614285Y-74161904D01*
X126880952Y-74961904D01*
X127147619Y-74961904D02*
X127147619Y-74161904D01*
X127604761Y-74961904D01*
X127604761Y-74161904D01*
X127985714Y-74961904D02*
X127985714Y-74161904D01*
X128176190Y-74161904D01*
X128290476Y-74200000D01*
X128366666Y-74276190D01*
X128404761Y-74352380D01*
X128442857Y-74504761D01*
X128442857Y-74619047D01*
X128404761Y-74771428D01*
X128366666Y-74847619D01*
X128290476Y-74923809D01*
X128176190Y-74961904D01*
X127985714Y-74961904D01*
X129166666Y-74961904D02*
X128785714Y-74961904D01*
X128785714Y-74161904D01*
X129433333Y-74542857D02*
X129700000Y-74542857D01*
X129814285Y-74961904D02*
X129433333Y-74961904D01*
X129433333Y-74161904D01*
X129814285Y-74161904D01*
D14*
X95707142Y-65157142D02*
X96850000Y-65157142D01*
X96278571Y-65728571D02*
X96278571Y-64585714D01*
X98350000Y-65728571D02*
X97492857Y-65728571D01*
X97921428Y-65728571D02*
X97921428Y-64228571D01*
X97778571Y-64442857D01*
X97635714Y-64585714D01*
X97492857Y-64657142D01*
X98921428Y-64371428D02*
X98992857Y-64300000D01*
X99135714Y-64228571D01*
X99492857Y-64228571D01*
X99635714Y-64300000D01*
X99707142Y-64371428D01*
X99778571Y-64514285D01*
X99778571Y-64657142D01*
X99707142Y-64871428D01*
X98850000Y-65728571D01*
X99778571Y-65728571D01*
X100207142Y-64228571D02*
X100707142Y-65728571D01*
X101207142Y-64228571D01*
D13*
X90490476Y-69200000D02*
X90414285Y-69161904D01*
X90300000Y-69161904D01*
X90185714Y-69200000D01*
X90109523Y-69276190D01*
X90071428Y-69352380D01*
X90033333Y-69504761D01*
X90033333Y-69619047D01*
X90071428Y-69771428D01*
X90109523Y-69847619D01*
X90185714Y-69923809D01*
X90300000Y-69961904D01*
X90376190Y-69961904D01*
X90490476Y-69923809D01*
X90528571Y-69885714D01*
X90528571Y-69619047D01*
X90376190Y-69619047D01*
X90871428Y-69961904D02*
X90871428Y-69161904D01*
X91328571Y-69961904D01*
X91328571Y-69161904D01*
X91709523Y-69961904D02*
X91709523Y-69161904D01*
X91900000Y-69161904D01*
X92014285Y-69200000D01*
X92090476Y-69276190D01*
X92128571Y-69352380D01*
X92166666Y-69504761D01*
X92166666Y-69619047D01*
X92128571Y-69771428D01*
X92090476Y-69847619D01*
X92014285Y-69923809D01*
X91900000Y-69961904D01*
X91709523Y-69961904D01*
X74552380Y-85661904D02*
X74819047Y-86461904D01*
X75085714Y-85661904D01*
X75771428Y-86461904D02*
X75314285Y-86461904D01*
X75542857Y-86461904D02*
X75542857Y-85661904D01*
X75466666Y-85776190D01*
X75390476Y-85852380D01*
X75314285Y-85890476D01*
X74452380Y-79861904D02*
X74719047Y-80661904D01*
X74985714Y-79861904D01*
X75214285Y-79938095D02*
X75252380Y-79900000D01*
X75328571Y-79861904D01*
X75519047Y-79861904D01*
X75595238Y-79900000D01*
X75633333Y-79938095D01*
X75671428Y-80014285D01*
X75671428Y-80090476D01*
X75633333Y-80204761D01*
X75176190Y-80661904D01*
X75671428Y-80661904D01*
X74552380Y-68061904D02*
X74819047Y-68861904D01*
X75085714Y-68061904D01*
X75276190Y-68061904D02*
X75771428Y-68061904D01*
X75504761Y-68366666D01*
X75619047Y-68366666D01*
X75695238Y-68404761D01*
X75733333Y-68442857D01*
X75771428Y-68519047D01*
X75771428Y-68709523D01*
X75733333Y-68785714D01*
X75695238Y-68823809D01*
X75619047Y-68861904D01*
X75390476Y-68861904D01*
X75314285Y-68823809D01*
X75276190Y-68785714D01*
X70057142Y-66209523D02*
X70057142Y-65600000D01*
X70361904Y-65904761D02*
X69752380Y-65904761D01*
X70361904Y-64800000D02*
X70361904Y-65257142D01*
X70361904Y-65028571D02*
X69561904Y-65028571D01*
X69676190Y-65104761D01*
X69752380Y-65180952D01*
X69790476Y-65257142D01*
X69638095Y-64495238D02*
X69600000Y-64457142D01*
X69561904Y-64380952D01*
X69561904Y-64190476D01*
X69600000Y-64114285D01*
X69638095Y-64076190D01*
X69714285Y-64038095D01*
X69790476Y-64038095D01*
X69904761Y-64076190D01*
X70361904Y-64533333D01*
X70361904Y-64038095D01*
X69561904Y-63809523D02*
X70361904Y-63542857D01*
X69561904Y-63276190D01*
X72885714Y-65580952D02*
X72923809Y-65619047D01*
X72961904Y-65733333D01*
X72961904Y-65809523D01*
X72923809Y-65923809D01*
X72847619Y-66000000D01*
X72771428Y-66038095D01*
X72619047Y-66076190D01*
X72504761Y-66076190D01*
X72352380Y-66038095D01*
X72276190Y-66000000D01*
X72200000Y-65923809D01*
X72161904Y-65809523D01*
X72161904Y-65733333D01*
X72200000Y-65619047D01*
X72238095Y-65580952D01*
X72161904Y-65352380D02*
X72161904Y-64895238D01*
X72961904Y-65123809D02*
X72161904Y-65123809D01*
X72961904Y-64171428D02*
X72580952Y-64438095D01*
X72961904Y-64628571D02*
X72161904Y-64628571D01*
X72161904Y-64323809D01*
X72200000Y-64247619D01*
X72238095Y-64209523D01*
X72314285Y-64171428D01*
X72428571Y-64171428D01*
X72504761Y-64209523D01*
X72542857Y-64247619D01*
X72580952Y-64323809D01*
X72580952Y-64628571D01*
X72961904Y-63447619D02*
X72961904Y-63828571D01*
X72161904Y-63828571D01*
X110161904Y-72642857D02*
X109361904Y-72642857D01*
X110161904Y-72261904D02*
X109361904Y-72261904D01*
X110161904Y-71804761D01*
X109361904Y-71804761D01*
X110161904Y-71423809D02*
X109361904Y-71423809D01*
X109361904Y-71119047D01*
X109400000Y-71042857D01*
X109438095Y-71004761D01*
X109514285Y-70966666D01*
X109628571Y-70966666D01*
X109704761Y-71004761D01*
X109742857Y-71042857D01*
X109780952Y-71119047D01*
X109780952Y-71423809D01*
X109361904Y-70623809D02*
X110009523Y-70623809D01*
X110085714Y-70585714D01*
X110123809Y-70547619D01*
X110161904Y-70471428D01*
X110161904Y-70319047D01*
X110123809Y-70242857D01*
X110085714Y-70204761D01*
X110009523Y-70166666D01*
X109361904Y-70166666D01*
X109361904Y-69900000D02*
X109361904Y-69442857D01*
X110161904Y-69671428D02*
X109361904Y-69671428D01*
X107961904Y-71014285D02*
X107961904Y-71395238D01*
X107161904Y-71395238D01*
X107542857Y-70747619D02*
X107542857Y-70480952D01*
X107961904Y-70366666D02*
X107961904Y-70747619D01*
X107161904Y-70747619D01*
X107161904Y-70366666D01*
X107961904Y-70023809D02*
X107161904Y-70023809D01*
X107161904Y-69833333D01*
X107200000Y-69719047D01*
X107276190Y-69642857D01*
X107352380Y-69604761D01*
X107504761Y-69566666D01*
X107619047Y-69566666D01*
X107771428Y-69604761D01*
X107847619Y-69642857D01*
X107923809Y-69719047D01*
X107961904Y-69833333D01*
X107961904Y-70023809D01*
X104600000Y-71109523D02*
X104561904Y-71185714D01*
X104561904Y-71300000D01*
X104600000Y-71414285D01*
X104676190Y-71490476D01*
X104752380Y-71528571D01*
X104904761Y-71566666D01*
X105019047Y-71566666D01*
X105171428Y-71528571D01*
X105247619Y-71490476D01*
X105323809Y-71414285D01*
X105361904Y-71300000D01*
X105361904Y-71223809D01*
X105323809Y-71109523D01*
X105285714Y-71071428D01*
X105019047Y-71071428D01*
X105019047Y-71223809D01*
X105361904Y-70728571D02*
X104561904Y-70728571D01*
X105361904Y-70271428D01*
X104561904Y-70271428D01*
X105361904Y-69890476D02*
X104561904Y-69890476D01*
X104561904Y-69700000D01*
X104600000Y-69585714D01*
X104676190Y-69509523D01*
X104752380Y-69471428D01*
X104904761Y-69433333D01*
X105019047Y-69433333D01*
X105171428Y-69471428D01*
X105247619Y-69509523D01*
X105323809Y-69585714D01*
X105361904Y-69700000D01*
X105361904Y-69890476D01*
X98909523Y-83161904D02*
X98909523Y-82361904D01*
X99214285Y-82361904D01*
X99290476Y-82400000D01*
X99328571Y-82438095D01*
X99366666Y-82514285D01*
X99366666Y-82628571D01*
X99328571Y-82704761D01*
X99290476Y-82742857D01*
X99214285Y-82780952D01*
X98909523Y-82780952D01*
X100166666Y-83085714D02*
X100128571Y-83123809D01*
X100014285Y-83161904D01*
X99938095Y-83161904D01*
X99823809Y-83123809D01*
X99747619Y-83047619D01*
X99709523Y-82971428D01*
X99671428Y-82819047D01*
X99671428Y-82704761D01*
X99709523Y-82552380D01*
X99747619Y-82476190D01*
X99823809Y-82400000D01*
X99938095Y-82361904D01*
X100014285Y-82361904D01*
X100128571Y-82400000D01*
X100166666Y-82438095D01*
X100433333Y-82361904D02*
X100928571Y-82361904D01*
X100661904Y-82666666D01*
X100776190Y-82666666D01*
X100852380Y-82704761D01*
X100890476Y-82742857D01*
X100928571Y-82819047D01*
X100928571Y-83009523D01*
X100890476Y-83085714D01*
X100852380Y-83123809D01*
X100776190Y-83161904D01*
X100547619Y-83161904D01*
X100471428Y-83123809D01*
X100433333Y-83085714D01*
X69195238Y-91561904D02*
X68928571Y-91180952D01*
X68738095Y-91561904D02*
X68738095Y-90761904D01*
X69042857Y-90761904D01*
X69119047Y-90800000D01*
X69157142Y-90838095D01*
X69195238Y-90914285D01*
X69195238Y-91028571D01*
X69157142Y-91104761D01*
X69119047Y-91142857D01*
X69042857Y-91180952D01*
X68738095Y-91180952D01*
X69538095Y-91142857D02*
X69804761Y-91142857D01*
X69919047Y-91561904D02*
X69538095Y-91561904D01*
X69538095Y-90761904D01*
X69919047Y-90761904D01*
X70147619Y-90761904D02*
X70414285Y-91561904D01*
X70680952Y-90761904D01*
X70947619Y-91485714D02*
X70985714Y-91523809D01*
X70947619Y-91561904D01*
X70909523Y-91523809D01*
X70947619Y-91485714D01*
X70947619Y-91561904D01*
X71900000Y-90838095D02*
X71938095Y-90800000D01*
X72014285Y-90761904D01*
X72204761Y-90761904D01*
X72280952Y-90800000D01*
X72319047Y-90838095D01*
X72357142Y-90914285D01*
X72357142Y-90990476D01*
X72319047Y-91104761D01*
X71861904Y-91561904D01*
X72357142Y-91561904D01*
X72700000Y-91485714D02*
X72738095Y-91523809D01*
X72700000Y-91561904D01*
X72661904Y-91523809D01*
X72700000Y-91485714D01*
X72700000Y-91561904D01*
X73233333Y-90761904D02*
X73309523Y-90761904D01*
X73385714Y-90800000D01*
X73423809Y-90838095D01*
X73461904Y-90914285D01*
X73500000Y-91066666D01*
X73500000Y-91257142D01*
X73461904Y-91409523D01*
X73423809Y-91485714D01*
X73385714Y-91523809D01*
X73309523Y-91561904D01*
X73233333Y-91561904D01*
X73157142Y-91523809D01*
X73119047Y-91485714D01*
X73080952Y-91409523D01*
X73042857Y-91257142D01*
X73042857Y-91066666D01*
X73080952Y-90914285D01*
X73119047Y-90838095D01*
X73157142Y-90800000D01*
X73233333Y-90761904D01*
X119423809Y-72761904D02*
X119423809Y-73409523D01*
X119461904Y-73485714D01*
X119500000Y-73523809D01*
X119576190Y-73561904D01*
X119728571Y-73561904D01*
X119804761Y-73523809D01*
X119842857Y-73485714D01*
X119880952Y-73409523D01*
X119880952Y-72761904D01*
X120223809Y-73333333D02*
X120604761Y-73333333D01*
X120147619Y-73561904D02*
X120414285Y-72761904D01*
X120680952Y-73561904D01*
X121404761Y-73561904D02*
X121138095Y-73180952D01*
X120947619Y-73561904D02*
X120947619Y-72761904D01*
X121252380Y-72761904D01*
X121328571Y-72800000D01*
X121366666Y-72838095D01*
X121404761Y-72914285D01*
X121404761Y-73028571D01*
X121366666Y-73104761D01*
X121328571Y-73142857D01*
X121252380Y-73180952D01*
X120947619Y-73180952D01*
X121633333Y-72761904D02*
X122090476Y-72761904D01*
X121861904Y-73561904D02*
X121861904Y-72761904D01*
X116019047Y-73561904D02*
X116019047Y-72761904D01*
X116361904Y-72838095D02*
X116400000Y-72800000D01*
X116476190Y-72761904D01*
X116666666Y-72761904D01*
X116742857Y-72800000D01*
X116780952Y-72838095D01*
X116819047Y-72914285D01*
X116819047Y-72990476D01*
X116780952Y-73104761D01*
X116323809Y-73561904D01*
X116819047Y-73561904D01*
X117619047Y-73485714D02*
X117580952Y-73523809D01*
X117466666Y-73561904D01*
X117390476Y-73561904D01*
X117276190Y-73523809D01*
X117200000Y-73447619D01*
X117161904Y-73371428D01*
X117123809Y-73219047D01*
X117123809Y-73104761D01*
X117161904Y-72952380D01*
X117200000Y-72876190D01*
X117276190Y-72800000D01*
X117390476Y-72761904D01*
X117466666Y-72761904D01*
X117580952Y-72800000D01*
X117619047Y-72838095D01*
X130542857Y-85642857D02*
X130276190Y-85642857D01*
X130276190Y-86061904D02*
X130276190Y-85261904D01*
X130657142Y-85261904D01*
X131114285Y-85261904D02*
X131266666Y-85261904D01*
X131342857Y-85300000D01*
X131419047Y-85376190D01*
X131457142Y-85528571D01*
X131457142Y-85795238D01*
X131419047Y-85947619D01*
X131342857Y-86023809D01*
X131266666Y-86061904D01*
X131114285Y-86061904D01*
X131038095Y-86023809D01*
X130961904Y-85947619D01*
X130923809Y-85795238D01*
X130923809Y-85528571D01*
X130961904Y-85376190D01*
X131038095Y-85300000D01*
X131114285Y-85261904D01*
X131952380Y-85261904D02*
X132104761Y-85261904D01*
X132180952Y-85300000D01*
X132257142Y-85376190D01*
X132295238Y-85528571D01*
X132295238Y-85795238D01*
X132257142Y-85947619D01*
X132180952Y-86023809D01*
X132104761Y-86061904D01*
X131952380Y-86061904D01*
X131876190Y-86023809D01*
X131800000Y-85947619D01*
X131761904Y-85795238D01*
X131761904Y-85528571D01*
X131800000Y-85376190D01*
X131876190Y-85300000D01*
X131952380Y-85261904D01*
X132523809Y-85261904D02*
X132980952Y-85261904D01*
X132752380Y-86061904D02*
X132752380Y-85261904D01*
X133209523Y-86023809D02*
X133323809Y-86061904D01*
X133514285Y-86061904D01*
X133590476Y-86023809D01*
X133628571Y-85985714D01*
X133666666Y-85909523D01*
X133666666Y-85833333D01*
X133628571Y-85757142D01*
X133590476Y-85719047D01*
X133514285Y-85680952D01*
X133361904Y-85642857D01*
X133285714Y-85604761D01*
X133247619Y-85566666D01*
X133209523Y-85490476D01*
X133209523Y-85414285D01*
X133247619Y-85338095D01*
X133285714Y-85300000D01*
X133361904Y-85261904D01*
X133552380Y-85261904D01*
X133666666Y-85300000D01*
X133933333Y-85261904D02*
X134123809Y-86061904D01*
X134276190Y-85490476D01*
X134428571Y-86061904D01*
X134619047Y-85261904D01*
X134923809Y-85985714D02*
X134961904Y-86023809D01*
X134923809Y-86061904D01*
X134885714Y-86023809D01*
X134923809Y-85985714D01*
X134923809Y-86061904D01*
X122390476Y-77661904D02*
X122847619Y-77661904D01*
X122619047Y-78461904D02*
X122619047Y-77661904D01*
X123038095Y-77661904D02*
X123571428Y-78461904D01*
X123571428Y-77661904D02*
X123038095Y-78461904D01*
D14*
%TO.C,M1*%
X90463095Y-80309308D02*
X91986904Y-80309308D01*
X108163095Y-80209308D02*
X109686904Y-80209308D01*
X108925000Y-80971212D02*
X108925000Y-79447403D01*
D10*
%TO.C,C1*%
X80870000Y-66750000D02*
X89030000Y-66750000D01*
X81003000Y-65709000D02*
X83910000Y-65709000D01*
X82043000Y-63869000D02*
X87857000Y-63869000D01*
X80898000Y-66270000D02*
X89002000Y-66270000D01*
X81048000Y-65549000D02*
X83910000Y-65549000D01*
X85990000Y-63989000D02*
X87969000Y-63989000D01*
X85990000Y-65669000D02*
X88886000Y-65669000D01*
X80908000Y-66190000D02*
X88992000Y-66190000D01*
X85990000Y-64149000D02*
X88106000Y-64149000D01*
X85990000Y-64029000D02*
X88005000Y-64029000D01*
X83305000Y-62989000D02*
X86595000Y-62989000D01*
X85990000Y-64909000D02*
X88597000Y-64909000D01*
X80948000Y-65949000D02*
X83910000Y-65949000D01*
X85990000Y-64269000D02*
X88200000Y-64269000D01*
X80873000Y-66590000D02*
X89027000Y-66590000D01*
X85990000Y-66029000D02*
X88967000Y-66029000D01*
X85990000Y-65389000D02*
X88800000Y-65389000D01*
X81036000Y-65589000D02*
X83910000Y-65589000D01*
X81826000Y-64109000D02*
X83910000Y-64109000D01*
X81895000Y-64029000D02*
X83910000Y-64029000D01*
X81073000Y-65469000D02*
X83910000Y-65469000D01*
X82722000Y-63309000D02*
X87178000Y-63309000D01*
X80902000Y-66230000D02*
X88998000Y-66230000D01*
X82916000Y-63189000D02*
X86984000Y-63189000D01*
X81481000Y-64589000D02*
X83910000Y-64589000D01*
X85990000Y-65269000D02*
X88755000Y-65269000D01*
X80940000Y-65989000D02*
X83910000Y-65989000D01*
X82124000Y-63789000D02*
X87776000Y-63789000D01*
X82346000Y-63589000D02*
X87554000Y-63589000D01*
X82635000Y-71159698D02*
X82635000Y-70359698D01*
X81532000Y-64509000D02*
X83910000Y-64509000D01*
X81506000Y-64549000D02*
X83910000Y-64549000D01*
X80876000Y-66510000D02*
X89024000Y-66510000D01*
X83852000Y-62789000D02*
X86048000Y-62789000D01*
X85990000Y-65429000D02*
X88813000Y-65429000D01*
X82986000Y-63149000D02*
X86914000Y-63149000D01*
X81457000Y-64629000D02*
X83910000Y-64629000D01*
X81967000Y-63949000D02*
X87933000Y-63949000D01*
X85990000Y-65469000D02*
X88827000Y-65469000D01*
X85990000Y-65069000D02*
X88672000Y-65069000D01*
X82784000Y-63269000D02*
X87116000Y-63269000D01*
X81410000Y-64709000D02*
X83910000Y-64709000D01*
X81129000Y-65309000D02*
X83910000Y-65309000D01*
X85990000Y-64829000D02*
X88556000Y-64829000D01*
X81730000Y-64229000D02*
X83910000Y-64229000D01*
X80956000Y-65909000D02*
X83910000Y-65909000D01*
X82209000Y-63709000D02*
X87691000Y-63709000D01*
X85990000Y-65789000D02*
X88917000Y-65789000D01*
X81388000Y-64749000D02*
X83910000Y-64749000D01*
X85990000Y-64509000D02*
X88368000Y-64509000D01*
X80893000Y-66310000D02*
X89007000Y-66310000D01*
X85990000Y-64469000D02*
X88342000Y-64469000D01*
X81323000Y-64869000D02*
X83910000Y-64869000D01*
X80920000Y-66110000D02*
X88980000Y-66110000D01*
X85990000Y-65829000D02*
X88926000Y-65829000D01*
X81228000Y-65069000D02*
X83910000Y-65069000D01*
X81641000Y-64349000D02*
X83910000Y-64349000D01*
X85990000Y-65149000D02*
X88707000Y-65149000D01*
X83721000Y-62829000D02*
X86179000Y-62829000D01*
X84417000Y-62669000D02*
X85483000Y-62669000D01*
X81433000Y-64669000D02*
X83910000Y-64669000D01*
X82496000Y-63469000D02*
X87404000Y-63469000D01*
X80871000Y-66630000D02*
X89029000Y-66630000D01*
X81087000Y-65429000D02*
X83910000Y-65429000D01*
X80870000Y-66670000D02*
X89030000Y-66670000D01*
X85990000Y-65749000D02*
X88907000Y-65749000D01*
X81670000Y-64309000D02*
X83910000Y-64309000D01*
X80870000Y-66710000D02*
X89030000Y-66710000D01*
X81264000Y-64989000D02*
X83910000Y-64989000D01*
X82445000Y-63509000D02*
X87455000Y-63509000D01*
X85990000Y-64349000D02*
X88259000Y-64349000D01*
X85990000Y-65229000D02*
X88740000Y-65229000D01*
X81794000Y-64149000D02*
X83910000Y-64149000D01*
X80879000Y-66470000D02*
X89021000Y-66470000D01*
X81700000Y-64269000D02*
X83910000Y-64269000D01*
X81303000Y-64909000D02*
X83910000Y-64909000D01*
X85990000Y-64949000D02*
X88616000Y-64949000D01*
X85990000Y-64669000D02*
X88467000Y-64669000D01*
X81366000Y-64789000D02*
X83910000Y-64789000D01*
X81160000Y-65229000D02*
X83910000Y-65229000D01*
X82663000Y-63349000D02*
X87237000Y-63349000D01*
X82235000Y-70759698D02*
X83035000Y-70759698D01*
X82550000Y-63429000D02*
X87350000Y-63429000D01*
X83398000Y-62949000D02*
X86502000Y-62949000D01*
X85990000Y-64189000D02*
X88139000Y-64189000D01*
X85990000Y-65629000D02*
X88875000Y-65629000D01*
X85990000Y-65549000D02*
X88852000Y-65549000D01*
X80889000Y-66350000D02*
X89011000Y-66350000D01*
X84182000Y-62709000D02*
X85718000Y-62709000D01*
X85990000Y-65989000D02*
X88960000Y-65989000D01*
X85990000Y-64549000D02*
X88394000Y-64549000D01*
X85990000Y-65949000D02*
X88952000Y-65949000D01*
X82605000Y-63389000D02*
X87295000Y-63389000D01*
X83219000Y-63029000D02*
X86681000Y-63029000D01*
X85990000Y-64069000D02*
X88040000Y-64069000D01*
X82166000Y-63749000D02*
X87734000Y-63749000D01*
X81145000Y-65269000D02*
X83910000Y-65269000D01*
X83137000Y-63069000D02*
X86763000Y-63069000D01*
X81176000Y-65189000D02*
X83910000Y-65189000D01*
X80885000Y-66390000D02*
X89015000Y-66390000D01*
X82299000Y-63629000D02*
X87601000Y-63629000D01*
X85990000Y-65869000D02*
X88935000Y-65869000D01*
X85990000Y-65309000D02*
X88771000Y-65309000D01*
X80974000Y-65829000D02*
X83910000Y-65829000D01*
X81100000Y-65389000D02*
X83910000Y-65389000D01*
X82083000Y-63829000D02*
X87817000Y-63829000D01*
X81585000Y-64429000D02*
X83910000Y-64429000D01*
X85990000Y-64429000D02*
X88315000Y-64429000D01*
X81115000Y-65349000D02*
X83910000Y-65349000D01*
X85990000Y-65349000D02*
X88785000Y-65349000D01*
X80993000Y-65749000D02*
X83910000Y-65749000D01*
X82253000Y-63669000D02*
X87647000Y-63669000D01*
X81558000Y-64469000D02*
X83910000Y-64469000D01*
X85990000Y-65109000D02*
X88690000Y-65109000D01*
X85990000Y-64309000D02*
X88230000Y-64309000D01*
X81025000Y-65629000D02*
X83910000Y-65629000D01*
X80882000Y-66430000D02*
X89018000Y-66430000D01*
X84002000Y-62749000D02*
X85898000Y-62749000D01*
X81061000Y-65509000D02*
X83910000Y-65509000D01*
X80933000Y-66029000D02*
X83910000Y-66029000D01*
X81246000Y-65029000D02*
X83910000Y-65029000D01*
X83060000Y-63109000D02*
X86840000Y-63109000D01*
X83604000Y-62869000D02*
X86296000Y-62869000D01*
X81344000Y-64829000D02*
X83910000Y-64829000D01*
X82848000Y-63229000D02*
X87052000Y-63229000D01*
X81612000Y-64389000D02*
X83910000Y-64389000D01*
X85990000Y-65189000D02*
X88724000Y-65189000D01*
X81860000Y-64069000D02*
X83910000Y-64069000D01*
X80983000Y-65789000D02*
X83910000Y-65789000D01*
X80874000Y-66550000D02*
X89026000Y-66550000D01*
X85990000Y-64629000D02*
X88443000Y-64629000D01*
X85990000Y-64109000D02*
X88074000Y-64109000D01*
X80965000Y-65869000D02*
X83910000Y-65869000D01*
X85990000Y-65709000D02*
X88897000Y-65709000D01*
X81014000Y-65669000D02*
X83910000Y-65669000D01*
X83497000Y-62909000D02*
X86403000Y-62909000D01*
X82005000Y-63909000D02*
X87895000Y-63909000D01*
X85990000Y-64589000D02*
X88419000Y-64589000D01*
X81210000Y-65109000D02*
X83910000Y-65109000D01*
X85990000Y-65589000D02*
X88864000Y-65589000D01*
X80913000Y-66150000D02*
X88987000Y-66150000D01*
X81284000Y-64949000D02*
X83910000Y-64949000D01*
X85990000Y-64789000D02*
X88534000Y-64789000D01*
X85990000Y-64989000D02*
X88636000Y-64989000D01*
X82394000Y-63549000D02*
X87506000Y-63549000D01*
X85990000Y-65909000D02*
X88944000Y-65909000D01*
X81193000Y-65149000D02*
X83910000Y-65149000D01*
X85990000Y-64709000D02*
X88490000Y-64709000D01*
X85990000Y-64749000D02*
X88512000Y-64749000D01*
X85990000Y-64389000D02*
X88288000Y-64389000D01*
X85990000Y-65029000D02*
X88654000Y-65029000D01*
X85990000Y-65509000D02*
X88839000Y-65509000D01*
X85990000Y-64869000D02*
X88577000Y-64869000D01*
X85990000Y-64229000D02*
X88170000Y-64229000D01*
X80926000Y-66070000D02*
X88974000Y-66070000D01*
X81761000Y-64189000D02*
X83910000Y-64189000D01*
X81931000Y-63989000D02*
X83910000Y-63989000D01*
X89070000Y-66750000D02*
G75*
G03*
X89070000Y-66750000I-4120000J0D01*
G01*
%TO.C,C2*%
X106560000Y-80158578D02*
X106560000Y-79641422D01*
X105140000Y-80158578D02*
X105140000Y-79641422D01*
D12*
X105977000Y-79900000D02*
G75*
G03*
X105977000Y-79900000I-127000J0D01*
G01*
D10*
%TO.C,C3*%
X106560000Y-76658578D02*
X106560000Y-76141422D01*
X105140000Y-76658578D02*
X105140000Y-76141422D01*
D12*
X105977000Y-76400000D02*
G75*
G03*
X105977000Y-76400000I-127000J0D01*
G01*
D10*
%TO.C,C4*%
X83241422Y-84710000D02*
X83758578Y-84710000D01*
X83241422Y-83290000D02*
X83758578Y-83290000D01*
D12*
X83627000Y-84000000D02*
G75*
G03*
X83627000Y-84000000I-127000J0D01*
G01*
D10*
%TO.C,C5*%
X93940000Y-76141422D02*
X93940000Y-76658578D01*
X95360000Y-76141422D02*
X95360000Y-76658578D01*
D12*
X94777000Y-76400000D02*
G75*
G03*
X94777000Y-76400000I-127000J0D01*
G01*
D10*
%TO.C,C6*%
X93940000Y-79641422D02*
X93940000Y-80158578D01*
X95360000Y-79641422D02*
X95360000Y-80158578D01*
D12*
X94777000Y-79900000D02*
G75*
G03*
X94777000Y-79900000I-127000J0D01*
G01*
D10*
%TO.C,C7*%
X87296079Y-84710000D02*
X86778923Y-84710000D01*
X87296079Y-83290000D02*
X86778923Y-83290000D01*
D12*
X87164501Y-84000000D02*
G75*
G03*
X87164501Y-84000000I-127000J0D01*
G01*
D10*
%TO.C,C8*%
X87258578Y-85390000D02*
X86741422Y-85390000D01*
X87258578Y-86810000D02*
X86741422Y-86810000D01*
D12*
X87127000Y-86100000D02*
G75*
G03*
X87127000Y-86100000I-127000J0D01*
G01*
D10*
%TO.C,C9*%
X93165112Y-84480796D02*
X93530796Y-84115112D01*
X94169204Y-85484888D02*
X94534888Y-85119204D01*
D12*
X93977001Y-84800000D02*
G75*
G03*
X93977001Y-84800000I-127001J0D01*
G01*
D10*
%TO.C,C10*%
X127941422Y-84910000D02*
X128458578Y-84910000D01*
X127941422Y-83490000D02*
X128458578Y-83490000D01*
D12*
X128327000Y-84200000D02*
G75*
G03*
X128327000Y-84200000I-127000J0D01*
G01*
D10*
%TO.C,C11*%
X106610000Y-83141422D02*
X106610000Y-83658578D01*
X105190000Y-83141422D02*
X105190000Y-83658578D01*
D12*
X106027000Y-83400000D02*
G75*
G03*
X106027000Y-83400000I-127000J0D01*
G01*
%TO.C,D1*%
X76750000Y-69050000D02*
X74850000Y-69050000D01*
D10*
X76800000Y-69050000D02*
X76800000Y-73100000D01*
X74800000Y-69050000D02*
X74800000Y-73100000D01*
%TO.C,D2*%
X76800000Y-75050000D02*
X76800000Y-79100000D01*
X74800000Y-75050000D02*
X74800000Y-79100000D01*
D12*
X76750000Y-75050000D02*
X74850000Y-75050000D01*
D10*
%TO.C,D3*%
X74800000Y-80800000D02*
X74800000Y-84850000D01*
D12*
X76750000Y-80800000D02*
X74850000Y-80800000D01*
D10*
X76800000Y-80800000D02*
X76800000Y-84850000D01*
%TO.C,D4*%
X102900000Y-73800000D02*
X98850000Y-73800000D01*
D12*
X102900000Y-73750000D02*
X102900000Y-71850000D01*
D10*
X102900000Y-71800000D02*
X98850000Y-71800000D01*
%TO.C,F1*%
X127890000Y-70697936D02*
X127890000Y-71902064D01*
X129308000Y-71554000D02*
X128292000Y-71046000D01*
X128546000Y-70792000D02*
X128546000Y-71808000D01*
X128546000Y-71808000D02*
X129054000Y-71808000D01*
X129710000Y-70697936D02*
X129710000Y-71902064D01*
X129054000Y-70792000D02*
X128546000Y-70792000D01*
X128292000Y-71046000D02*
X128292000Y-70792000D01*
X129308000Y-71808000D02*
X129308000Y-71554000D01*
X129054000Y-71808000D02*
X129054000Y-70792000D01*
D12*
%TO.C,J1*%
X92400000Y-63300000D02*
X91600000Y-63300000D01*
X92400000Y-62500000D02*
X95300000Y-62500000D01*
X93200000Y-63300000D02*
X93400000Y-63100000D01*
X89500000Y-68700000D02*
X95300000Y-68700000D01*
X92400000Y-62500000D02*
X89500000Y-62500000D01*
X93400000Y-63100000D02*
X93400000Y-62600000D01*
X92400000Y-63300000D02*
X93200000Y-63300000D01*
X91600000Y-63300000D02*
X91400000Y-63100000D01*
X95300000Y-68700000D02*
X95300000Y-62500000D01*
X89500000Y-62600000D02*
X89500000Y-68700000D01*
X91400000Y-63100000D02*
X91400000Y-62500000D01*
%TO.C,J2*%
X70350000Y-73600000D02*
X70350000Y-74100000D01*
X72150000Y-73400000D02*
X72350000Y-73600000D01*
X70550000Y-73400000D02*
X70350000Y-73600000D01*
X74250000Y-68000000D02*
X68450000Y-68000000D01*
X72350000Y-73600000D02*
X72350000Y-74200000D01*
X71350000Y-73400000D02*
X70550000Y-73400000D01*
X74250000Y-74100000D02*
X74250000Y-68000000D01*
X71350000Y-74200000D02*
X74250000Y-74200000D01*
X68450000Y-68000000D02*
X68450000Y-74200000D01*
X71350000Y-73400000D02*
X72150000Y-73400000D01*
X71350000Y-74200000D02*
X68450000Y-74200000D01*
%TO.C,J3*%
X74250000Y-80550000D02*
X74250000Y-74450000D01*
X72150000Y-79850000D02*
X72350000Y-80050000D01*
X72350000Y-80050000D02*
X72350000Y-80650000D01*
X68450000Y-74450000D02*
X68450000Y-80650000D01*
X70550000Y-79850000D02*
X70350000Y-80050000D01*
X70350000Y-80050000D02*
X70350000Y-80550000D01*
X71350000Y-80650000D02*
X74250000Y-80650000D01*
X74250000Y-74450000D02*
X68450000Y-74450000D01*
X71350000Y-79850000D02*
X70550000Y-79850000D01*
X71350000Y-80650000D02*
X68450000Y-80650000D01*
X71350000Y-79850000D02*
X72150000Y-79850000D01*
%TO.C,J4*%
X72350000Y-86550000D02*
X72350000Y-87150000D01*
X74250000Y-80950000D02*
X68450000Y-80950000D01*
X72150000Y-86350000D02*
X72350000Y-86550000D01*
X71350000Y-87150000D02*
X68450000Y-87150000D01*
X71350000Y-86350000D02*
X72150000Y-86350000D01*
X74250000Y-87050000D02*
X74250000Y-80950000D01*
X70550000Y-86350000D02*
X70350000Y-86550000D01*
X68450000Y-80950000D02*
X68450000Y-87150000D01*
X71350000Y-87150000D02*
X74250000Y-87150000D01*
X71350000Y-86350000D02*
X70550000Y-86350000D01*
X70350000Y-86550000D02*
X70350000Y-87050000D01*
D10*
%TO.C,J5*%
X100749999Y-84500000D02*
G75*
G03*
X100749999Y-84500000I-949999J0D01*
G01*
D12*
%TO.C,J6*%
X131100000Y-82000000D02*
X131100000Y-81200000D01*
X131100000Y-81200000D02*
X130900000Y-81000000D01*
X131100000Y-82000000D02*
X131100000Y-82800000D01*
X130900000Y-81000000D02*
X130400000Y-81000000D01*
X130900000Y-83000000D02*
X130300000Y-83000000D01*
X130400000Y-84900000D02*
X136500000Y-84900000D01*
X131100000Y-82800000D02*
X130900000Y-83000000D01*
X136500000Y-84900000D02*
X136500000Y-79100000D01*
X136500000Y-79100000D02*
X130300000Y-79100000D01*
X130300000Y-82000000D02*
X130300000Y-84900000D01*
X130300000Y-82000000D02*
X130300000Y-79100000D01*
%TO.C,J7*%
X130900000Y-75000000D02*
X130300000Y-75000000D01*
X136500000Y-78170000D02*
X136500000Y-69830000D01*
X136500000Y-69830000D02*
X130300000Y-69830000D01*
X130300000Y-78170000D02*
X130300000Y-69830000D01*
X131100000Y-74000000D02*
X131100000Y-74800000D01*
X131100000Y-74800000D02*
X130900000Y-75000000D01*
X130300000Y-78170000D02*
X136500000Y-78170000D01*
X130900000Y-73000000D02*
X130300000Y-73000000D01*
X131100000Y-74000000D02*
X131100000Y-73200000D01*
X131100000Y-73200000D02*
X130900000Y-73000000D01*
%TO.C,J8*%
X121330000Y-85500000D02*
X121330000Y-91700000D01*
X124500000Y-91100000D02*
X124500000Y-91700000D01*
X129670000Y-91700000D02*
X129670000Y-85500000D01*
X125500000Y-90900000D02*
X124700000Y-90900000D01*
X126300000Y-90900000D02*
X126500000Y-91100000D01*
X125500000Y-90900000D02*
X126300000Y-90900000D01*
X129670000Y-85500000D02*
X121330000Y-85500000D01*
X129670000Y-91700000D02*
X121330000Y-91700000D01*
X126500000Y-91100000D02*
X126500000Y-91700000D01*
X124700000Y-90900000D02*
X124500000Y-91100000D01*
D10*
%TO.C,J9*%
X114230000Y-89070000D02*
X114230000Y-91730000D01*
X115500000Y-89070000D02*
X116830000Y-89070000D01*
X114230000Y-89070000D02*
X109090000Y-89070000D01*
X116830000Y-89070000D02*
X116830000Y-90400000D01*
X109090000Y-89070000D02*
X109090000Y-91730000D01*
X114230000Y-91730000D02*
X109090000Y-91730000D01*
D12*
%TO.C,J10*%
X129170000Y-68700000D02*
X129170000Y-62500000D01*
X120830000Y-62500000D02*
X129170000Y-62500000D01*
X125800000Y-63300000D02*
X126000000Y-63100000D01*
X124200000Y-63300000D02*
X124000000Y-63100000D01*
X125000000Y-63300000D02*
X125800000Y-63300000D01*
X124000000Y-63100000D02*
X124000000Y-62500000D01*
X125000000Y-63300000D02*
X124200000Y-63300000D01*
X126000000Y-63100000D02*
X126000000Y-62500000D01*
X120830000Y-62500000D02*
X120830000Y-68700000D01*
X120830000Y-68700000D02*
X129170000Y-68700000D01*
%TO.C,J11*%
X117300000Y-63100000D02*
X117300000Y-62500000D01*
X112130000Y-68700000D02*
X120470000Y-68700000D01*
X117100000Y-63300000D02*
X117300000Y-63100000D01*
X120470000Y-68700000D02*
X120470000Y-62500000D01*
X115300000Y-63100000D02*
X115300000Y-62500000D01*
X112130000Y-62500000D02*
X112130000Y-68700000D01*
X116300000Y-63300000D02*
X117100000Y-63300000D01*
X112130000Y-62500000D02*
X120470000Y-62500000D01*
X115500000Y-63300000D02*
X115300000Y-63100000D01*
X116300000Y-63300000D02*
X115500000Y-63300000D01*
%TO.C,J12*%
X106600000Y-63100000D02*
X106600000Y-62500000D01*
X108600000Y-63100000D02*
X108600000Y-62500000D01*
X103430000Y-62500000D02*
X111770000Y-62500000D01*
X103430000Y-68700000D02*
X111770000Y-68700000D01*
X111770000Y-68700000D02*
X111770000Y-62500000D01*
X106800000Y-63300000D02*
X106600000Y-63100000D01*
X107600000Y-63300000D02*
X106800000Y-63300000D01*
X108400000Y-63300000D02*
X108600000Y-63100000D01*
X103430000Y-62500000D02*
X103430000Y-68700000D01*
X107600000Y-63300000D02*
X108400000Y-63300000D01*
D10*
%TO.C,Q1*%
X78340000Y-70720000D02*
X79800000Y-70720000D01*
X78340000Y-73880000D02*
X78340000Y-72950000D01*
X78340000Y-70720000D02*
X78340000Y-71650000D01*
X78340000Y-73880000D02*
X80500000Y-73880000D01*
%TO.C,Q2*%
X78290000Y-79530000D02*
X80450000Y-79530000D01*
X78290000Y-79530000D02*
X78290000Y-78600000D01*
X78290000Y-76370000D02*
X79750000Y-76370000D01*
X78290000Y-76370000D02*
X78290000Y-77300000D01*
%TO.C,Q3*%
X78290000Y-82120000D02*
X78290000Y-83050000D01*
X78290000Y-82120000D02*
X79750000Y-82120000D01*
X78290000Y-85280000D02*
X80450000Y-85280000D01*
X78290000Y-85280000D02*
X78290000Y-84350000D01*
%TO.C,Q4*%
X94070000Y-73260000D02*
X94070000Y-71800000D01*
X97230000Y-73260000D02*
X97230000Y-71100000D01*
X94070000Y-73260000D02*
X95000000Y-73260000D01*
X97230000Y-73260000D02*
X96300000Y-73260000D01*
%TO.C,R1*%
X79200000Y-69754000D02*
X79000000Y-69754000D01*
X78841422Y-70210000D02*
X79358578Y-70210000D01*
X79200000Y-69242000D02*
X79200000Y-69750000D01*
X79000000Y-69750000D02*
X79000000Y-69250000D01*
X79000000Y-69246000D02*
X79200000Y-69246000D01*
X78841422Y-68790000D02*
X79358578Y-68790000D01*
%TO.C,R2*%
X79000000Y-74846000D02*
X79200000Y-74846000D01*
X78841422Y-75810000D02*
X79358578Y-75810000D01*
X79200000Y-75354000D02*
X79000000Y-75354000D01*
X78841422Y-74390000D02*
X79358578Y-74390000D01*
X79000000Y-75350000D02*
X79000000Y-74850000D01*
X79200000Y-74842000D02*
X79200000Y-75350000D01*
%TO.C,R3*%
X78841422Y-80090000D02*
X79358578Y-80090000D01*
X78841422Y-81510000D02*
X79358578Y-81510000D01*
X79000000Y-80546000D02*
X79200000Y-80546000D01*
X79000000Y-81050000D02*
X79000000Y-80550000D01*
X79200000Y-81054000D02*
X79000000Y-81054000D01*
X79200000Y-80542000D02*
X79200000Y-81050000D01*
%TO.C,R7*%
X95858578Y-70310000D02*
X95341422Y-70310000D01*
X95500000Y-69346000D02*
X95700000Y-69346000D01*
X95500000Y-69858000D02*
X95500000Y-69350000D01*
X95858578Y-68890000D02*
X95341422Y-68890000D01*
X95700000Y-69350000D02*
X95700000Y-69850000D01*
X95700000Y-69854000D02*
X95500000Y-69854000D01*
%TO.C,R8*%
X99300000Y-69350000D02*
X99300000Y-69850000D01*
X99100000Y-69346000D02*
X99300000Y-69346000D01*
X99100000Y-69858000D02*
X99100000Y-69350000D01*
X99458578Y-68890000D02*
X98941422Y-68890000D01*
X99300000Y-69854000D02*
X99100000Y-69854000D01*
X99458578Y-70310000D02*
X98941422Y-70310000D01*
%TO.C,R9*%
X125146000Y-83500000D02*
X125146000Y-83300000D01*
X124690000Y-83141422D02*
X124690000Y-83658578D01*
X126110000Y-83141422D02*
X126110000Y-83658578D01*
X125658000Y-83500000D02*
X125150000Y-83500000D01*
X125150000Y-83300000D02*
X125650000Y-83300000D01*
X125654000Y-83300000D02*
X125654000Y-83500000D01*
%TO.C,R10*%
X128458578Y-82910000D02*
X127941422Y-82910000D01*
X128100000Y-81946000D02*
X128300000Y-81946000D01*
X128300000Y-82454000D02*
X128100000Y-82454000D01*
X128458578Y-81490000D02*
X127941422Y-81490000D01*
X128300000Y-81950000D02*
X128300000Y-82450000D01*
X128100000Y-82458000D02*
X128100000Y-81950000D01*
%TO.C,R11*%
X108254000Y-83300000D02*
X108254000Y-83500000D01*
X108710000Y-83658578D02*
X108710000Y-83141422D01*
X107290000Y-83658578D02*
X107290000Y-83141422D01*
X107746000Y-83500000D02*
X107746000Y-83300000D01*
X107742000Y-83300000D02*
X108250000Y-83300000D01*
X108250000Y-83500000D02*
X107750000Y-83500000D01*
%TO.C,R12*%
X122790000Y-70378922D02*
X122790000Y-70896078D01*
X123758000Y-70737500D02*
X123250000Y-70737500D01*
X123754000Y-70537500D02*
X123754000Y-70737500D01*
X124210000Y-70378922D02*
X124210000Y-70896078D01*
X123246000Y-70737500D02*
X123246000Y-70537500D01*
X123250000Y-70537500D02*
X123750000Y-70537500D01*
%TO.C,R13*%
X121810000Y-70441422D02*
X121810000Y-70958578D01*
X121354000Y-70600000D02*
X121354000Y-70800000D01*
X120850000Y-70600000D02*
X121350000Y-70600000D01*
X120390000Y-70441422D02*
X120390000Y-70958578D01*
X121358000Y-70800000D02*
X120850000Y-70800000D01*
X120846000Y-70800000D02*
X120846000Y-70600000D01*
%TO.C,R14*%
X119410000Y-70441422D02*
X119410000Y-70958578D01*
X118958000Y-70800000D02*
X118450000Y-70800000D01*
X118446000Y-70800000D02*
X118446000Y-70600000D01*
X118954000Y-70600000D02*
X118954000Y-70800000D01*
X118450000Y-70600000D02*
X118950000Y-70600000D01*
X117990000Y-70441422D02*
X117990000Y-70958578D01*
%TO.C,R15*%
X115590000Y-70441422D02*
X115590000Y-70958578D01*
X117010000Y-70441422D02*
X117010000Y-70958578D01*
X116050000Y-70600000D02*
X116550000Y-70600000D01*
X116554000Y-70600000D02*
X116554000Y-70800000D01*
X116558000Y-70800000D02*
X116050000Y-70800000D01*
X116046000Y-70800000D02*
X116046000Y-70600000D01*
%TO.C,R16*%
X113646000Y-70800000D02*
X113646000Y-70600000D01*
X113190000Y-70441422D02*
X113190000Y-70958578D01*
X114154000Y-70600000D02*
X114154000Y-70800000D01*
X113650000Y-70600000D02*
X114150000Y-70600000D01*
X114610000Y-70441422D02*
X114610000Y-70958578D01*
X114158000Y-70800000D02*
X113650000Y-70800000D01*
%TO.C,R17*%
X111250000Y-70600000D02*
X111750000Y-70600000D01*
X110790000Y-70441422D02*
X110790000Y-70958578D01*
X111754000Y-70600000D02*
X111754000Y-70800000D01*
X112210000Y-70441422D02*
X112210000Y-70958578D01*
X111246000Y-70800000D02*
X111246000Y-70600000D01*
X111758000Y-70800000D02*
X111250000Y-70800000D01*
%TO.C,U1*%
X88850000Y-79770000D02*
X88580000Y-79770000D01*
X88580000Y-79770000D02*
X88580000Y-80870000D01*
X81950000Y-78270000D02*
X81950000Y-79770000D01*
X81950000Y-79770000D02*
X82220000Y-79770000D01*
X88850000Y-78270000D02*
X88850000Y-79770000D01*
X82220000Y-79770000D02*
X82220000Y-82600000D01*
%TO.C,U2*%
X96950000Y-89076884D02*
X97268198Y-88758686D01*
X97268198Y-84841314D02*
X96950000Y-84523116D01*
X96631802Y-88758686D02*
X96950000Y-89076884D01*
X98908686Y-86481802D02*
X99226884Y-86800000D01*
X94673116Y-86800000D02*
X94991314Y-86481802D01*
X99226884Y-86800000D02*
X98908686Y-87118198D01*
X94991314Y-87118198D02*
X94673116Y-86800000D01*
%TO.C,RP2*%
X83400000Y-87800000D02*
X83000000Y-87800000D01*
X83400000Y-88200000D02*
X83400000Y-87800000D01*
X81520000Y-88500000D02*
X81520000Y-87500000D01*
X84880000Y-88500000D02*
X84880000Y-87500000D01*
X83000000Y-88200000D02*
X83400000Y-88200000D01*
X83000000Y-87800000D02*
X83000000Y-88200000D01*
%TO.C,J13*%
X122030000Y-83040000D02*
X122030000Y-84370000D01*
X122030000Y-81770000D02*
X122030000Y-74090000D01*
X119370000Y-81770000D02*
X119370000Y-74090000D01*
X122030000Y-84370000D02*
X120700000Y-84370000D01*
X122030000Y-81770000D02*
X119370000Y-81770000D01*
X122030000Y-74090000D02*
X119370000Y-74090000D01*
%TO.C,J14*%
X115470000Y-81770000D02*
X115470000Y-74090000D01*
X118130000Y-83040000D02*
X118130000Y-84370000D01*
X118130000Y-84370000D02*
X116800000Y-84370000D01*
X118130000Y-81770000D02*
X115470000Y-81770000D01*
X118130000Y-74090000D02*
X115470000Y-74090000D01*
X118130000Y-81770000D02*
X118130000Y-74090000D01*
%TO.C,R4*%
X119350000Y-89804000D02*
X119150000Y-89804000D01*
X119508578Y-90260000D02*
X118991422Y-90260000D01*
X119508578Y-88840000D02*
X118991422Y-88840000D01*
X119150000Y-89808000D02*
X119150000Y-89300000D01*
X119150000Y-89296000D02*
X119350000Y-89296000D01*
X119350000Y-89300000D02*
X119350000Y-89800000D01*
D15*
%TO.C,G\u002A\u002A\u002A*%
X111753575Y-84635838D02*
X111800644Y-84646392D01*
X111800644Y-84646392D02*
X111818915Y-84654348D01*
X111818915Y-84654348D02*
X111874148Y-84691889D01*
X111874148Y-84691889D02*
X111917590Y-84738693D01*
X111917590Y-84738693D02*
X111947776Y-84792505D01*
X111947776Y-84792505D02*
X111963245Y-84851066D01*
X111963245Y-84851066D02*
X111965014Y-84879869D01*
X111965014Y-84879869D02*
X111956943Y-84938881D01*
X111956943Y-84938881D02*
X111934643Y-84992240D01*
X111934643Y-84992240D02*
X111900320Y-85038371D01*
X111900320Y-85038371D02*
X111856181Y-85075696D01*
X111856181Y-85075696D02*
X111804432Y-85102641D01*
X111804432Y-85102641D02*
X111747278Y-85117629D01*
X111747278Y-85117629D02*
X111686927Y-85119084D01*
X111686927Y-85119084D02*
X111641948Y-85110647D01*
X111641948Y-85110647D02*
X111585247Y-85086259D01*
X111585247Y-85086259D02*
X111537429Y-85048955D01*
X111537429Y-85048955D02*
X111500372Y-85001234D01*
X111500372Y-85001234D02*
X111475956Y-84945596D01*
X111475956Y-84945596D02*
X111466058Y-84884542D01*
X111466058Y-84884542D02*
X111465935Y-84876400D01*
X111465935Y-84876400D02*
X111474146Y-84814559D01*
X111474146Y-84814559D02*
X111497761Y-84758041D01*
X111497761Y-84758041D02*
X111535612Y-84708679D01*
X111535612Y-84708679D02*
X111586535Y-84668310D01*
X111586535Y-84668310D02*
X111604830Y-84657889D01*
X111604830Y-84657889D02*
X111649571Y-84641687D01*
X111649571Y-84641687D02*
X111701185Y-84634303D01*
X111701185Y-84634303D02*
X111753575Y-84635838D01*
X111753575Y-84635838D02*
X111753575Y-84635838D01*
G36*
X111753575Y-84635838D02*
G01*
X111800644Y-84646392D01*
X111818915Y-84654348D01*
X111874148Y-84691889D01*
X111917590Y-84738693D01*
X111947776Y-84792505D01*
X111963245Y-84851066D01*
X111965014Y-84879869D01*
X111956943Y-84938881D01*
X111934643Y-84992240D01*
X111900320Y-85038371D01*
X111856181Y-85075696D01*
X111804432Y-85102641D01*
X111747278Y-85117629D01*
X111686927Y-85119084D01*
X111641948Y-85110647D01*
X111585247Y-85086259D01*
X111537429Y-85048955D01*
X111500372Y-85001234D01*
X111475956Y-84945596D01*
X111466058Y-84884542D01*
X111465935Y-84876400D01*
X111474146Y-84814559D01*
X111497761Y-84758041D01*
X111535612Y-84708679D01*
X111586535Y-84668310D01*
X111604830Y-84657889D01*
X111649571Y-84641687D01*
X111701185Y-84634303D01*
X111753575Y-84635838D01*
G37*
X111753575Y-84635838D02*
X111800644Y-84646392D01*
X111818915Y-84654348D01*
X111874148Y-84691889D01*
X111917590Y-84738693D01*
X111947776Y-84792505D01*
X111963245Y-84851066D01*
X111965014Y-84879869D01*
X111956943Y-84938881D01*
X111934643Y-84992240D01*
X111900320Y-85038371D01*
X111856181Y-85075696D01*
X111804432Y-85102641D01*
X111747278Y-85117629D01*
X111686927Y-85119084D01*
X111641948Y-85110647D01*
X111585247Y-85086259D01*
X111537429Y-85048955D01*
X111500372Y-85001234D01*
X111475956Y-84945596D01*
X111466058Y-84884542D01*
X111465935Y-84876400D01*
X111474146Y-84814559D01*
X111497761Y-84758041D01*
X111535612Y-84708679D01*
X111586535Y-84668310D01*
X111604830Y-84657889D01*
X111649571Y-84641687D01*
X111701185Y-84634303D01*
X111753575Y-84635838D01*
X109844220Y-84142474D02*
X109899814Y-84151585D01*
X109899814Y-84151585D02*
X109954660Y-84168767D01*
X109954660Y-84168767D02*
X110009400Y-84192562D01*
X110009400Y-84192562D02*
X110084909Y-84237703D01*
X110084909Y-84237703D02*
X110151843Y-84296157D01*
X110151843Y-84296157D02*
X110208431Y-84365729D01*
X110208431Y-84365729D02*
X110252901Y-84444225D01*
X110252901Y-84444225D02*
X110283481Y-84529451D01*
X110283481Y-84529451D02*
X110284440Y-84533162D01*
X110284440Y-84533162D02*
X110293098Y-84584333D01*
X110293098Y-84584333D02*
X110296564Y-84644615D01*
X110296564Y-84644615D02*
X110294843Y-84707005D01*
X110294843Y-84707005D02*
X110287942Y-84764498D01*
X110287942Y-84764498D02*
X110284250Y-84782393D01*
X110284250Y-84782393D02*
X110256753Y-84863217D01*
X110256753Y-84863217D02*
X110214600Y-84938782D01*
X110214600Y-84938782D02*
X110159740Y-85007153D01*
X110159740Y-85007153D02*
X110094120Y-85066398D01*
X110094120Y-85066398D02*
X110019688Y-85114584D01*
X110019688Y-85114584D02*
X109938391Y-85149777D01*
X109938391Y-85149777D02*
X109903905Y-85159906D01*
X109903905Y-85159906D02*
X109857574Y-85167751D01*
X109857574Y-85167751D02*
X109801499Y-85171345D01*
X109801499Y-85171345D02*
X109742320Y-85170704D01*
X109742320Y-85170704D02*
X109686680Y-85165842D01*
X109686680Y-85165842D02*
X109650794Y-85159322D01*
X109650794Y-85159322D02*
X109575493Y-85133008D01*
X109575493Y-85133008D02*
X109502684Y-85092329D01*
X109502684Y-85092329D02*
X109435469Y-85039843D01*
X109435469Y-85039843D02*
X109376951Y-84978108D01*
X109376951Y-84978108D02*
X109330233Y-84909681D01*
X109330233Y-84909681D02*
X109317049Y-84884213D01*
X109317049Y-84884213D02*
X109292398Y-84828057D01*
X109292398Y-84828057D02*
X109276255Y-84779181D01*
X109276255Y-84779181D02*
X109267140Y-84731189D01*
X109267140Y-84731189D02*
X109263576Y-84677685D01*
X109263576Y-84677685D02*
X109263421Y-84657555D01*
X109263421Y-84657555D02*
X109578124Y-84657555D01*
X109578124Y-84657555D02*
X109590697Y-84712083D01*
X109590697Y-84712083D02*
X109597850Y-84729032D01*
X109597850Y-84729032D02*
X109629003Y-84778139D01*
X109629003Y-84778139D02*
X109669718Y-84815212D01*
X109669718Y-84815212D02*
X109717415Y-84839254D01*
X109717415Y-84839254D02*
X109769512Y-84849270D01*
X109769512Y-84849270D02*
X109823430Y-84844263D01*
X109823430Y-84844263D02*
X109861704Y-84830903D01*
X109861704Y-84830903D02*
X109910696Y-84799992D01*
X109910696Y-84799992D02*
X109946914Y-84760532D01*
X109946914Y-84760532D02*
X109970391Y-84715050D01*
X109970391Y-84715050D02*
X109981160Y-84666077D01*
X109981160Y-84666077D02*
X109979252Y-84616141D01*
X109979252Y-84616141D02*
X109964699Y-84567771D01*
X109964699Y-84567771D02*
X109937535Y-84523498D01*
X109937535Y-84523498D02*
X109897791Y-84485849D01*
X109897791Y-84485849D02*
X109857000Y-84462218D01*
X109857000Y-84462218D02*
X109803166Y-84446195D01*
X109803166Y-84446195D02*
X109750336Y-84446911D01*
X109750336Y-84446911D02*
X109699432Y-84464171D01*
X109699432Y-84464171D02*
X109651375Y-84497782D01*
X109651375Y-84497782D02*
X109640813Y-84507813D01*
X109640813Y-84507813D02*
X109603237Y-84555137D01*
X109603237Y-84555137D02*
X109582323Y-84605146D01*
X109582323Y-84605146D02*
X109578124Y-84657555D01*
X109578124Y-84657555D02*
X109263421Y-84657555D01*
X109263421Y-84657555D02*
X109263378Y-84652033D01*
X109263378Y-84652033D02*
X109269926Y-84563543D01*
X109269926Y-84563543D02*
X109289418Y-84483842D01*
X109289418Y-84483842D02*
X109322938Y-84410344D01*
X109322938Y-84410344D02*
X109371568Y-84340459D01*
X109371568Y-84340459D02*
X109413067Y-84294449D01*
X109413067Y-84294449D02*
X109448413Y-84259842D01*
X109448413Y-84259842D02*
X109478261Y-84234550D01*
X109478261Y-84234550D02*
X109507802Y-84214757D01*
X109507802Y-84214757D02*
X109542227Y-84196643D01*
X109542227Y-84196643D02*
X109552863Y-84191624D01*
X109552863Y-84191624D02*
X109613762Y-84166143D01*
X109613762Y-84166143D02*
X109668801Y-84150080D01*
X109668801Y-84150080D02*
X109724987Y-84141842D01*
X109724987Y-84141842D02*
X109780800Y-84139800D01*
X109780800Y-84139800D02*
X109844220Y-84142474D01*
X109844220Y-84142474D02*
X109844220Y-84142474D01*
G36*
X109269926Y-84563543D02*
G01*
X109289418Y-84483842D01*
X109322938Y-84410344D01*
X109371568Y-84340459D01*
X109413067Y-84294449D01*
X109448413Y-84259842D01*
X109478261Y-84234550D01*
X109507802Y-84214757D01*
X109542227Y-84196643D01*
X109552863Y-84191624D01*
X109613762Y-84166143D01*
X109668801Y-84150080D01*
X109724987Y-84141842D01*
X109780800Y-84139800D01*
X109844220Y-84142474D01*
X109899814Y-84151585D01*
X109954660Y-84168767D01*
X110009400Y-84192562D01*
X110084909Y-84237703D01*
X110151843Y-84296157D01*
X110208431Y-84365729D01*
X110252901Y-84444225D01*
X110283481Y-84529451D01*
X110284440Y-84533162D01*
X110293098Y-84584333D01*
X110296564Y-84644615D01*
X110294843Y-84707005D01*
X110287942Y-84764498D01*
X110284250Y-84782393D01*
X110256753Y-84863217D01*
X110214600Y-84938782D01*
X110159740Y-85007153D01*
X110094120Y-85066398D01*
X110019688Y-85114584D01*
X109938391Y-85149777D01*
X109903905Y-85159906D01*
X109857574Y-85167751D01*
X109801499Y-85171345D01*
X109742320Y-85170704D01*
X109686680Y-85165842D01*
X109650794Y-85159322D01*
X109575493Y-85133008D01*
X109502684Y-85092329D01*
X109435469Y-85039843D01*
X109376951Y-84978108D01*
X109330233Y-84909681D01*
X109317049Y-84884213D01*
X109292398Y-84828057D01*
X109276255Y-84779181D01*
X109267140Y-84731189D01*
X109263576Y-84677685D01*
X109263421Y-84657555D01*
X109578124Y-84657555D01*
X109590697Y-84712083D01*
X109597850Y-84729032D01*
X109629003Y-84778139D01*
X109669718Y-84815212D01*
X109717415Y-84839254D01*
X109769512Y-84849270D01*
X109823430Y-84844263D01*
X109861704Y-84830903D01*
X109910696Y-84799992D01*
X109946914Y-84760532D01*
X109970391Y-84715050D01*
X109981160Y-84666077D01*
X109979252Y-84616141D01*
X109964699Y-84567771D01*
X109937535Y-84523498D01*
X109897791Y-84485849D01*
X109857000Y-84462218D01*
X109803166Y-84446195D01*
X109750336Y-84446911D01*
X109699432Y-84464171D01*
X109651375Y-84497782D01*
X109640813Y-84507813D01*
X109603237Y-84555137D01*
X109582323Y-84605146D01*
X109578124Y-84657555D01*
X109263421Y-84657555D01*
X109263378Y-84652033D01*
X109269926Y-84563543D01*
G37*
X109269926Y-84563543D02*
X109289418Y-84483842D01*
X109322938Y-84410344D01*
X109371568Y-84340459D01*
X109413067Y-84294449D01*
X109448413Y-84259842D01*
X109478261Y-84234550D01*
X109507802Y-84214757D01*
X109542227Y-84196643D01*
X109552863Y-84191624D01*
X109613762Y-84166143D01*
X109668801Y-84150080D01*
X109724987Y-84141842D01*
X109780800Y-84139800D01*
X109844220Y-84142474D01*
X109899814Y-84151585D01*
X109954660Y-84168767D01*
X110009400Y-84192562D01*
X110084909Y-84237703D01*
X110151843Y-84296157D01*
X110208431Y-84365729D01*
X110252901Y-84444225D01*
X110283481Y-84529451D01*
X110284440Y-84533162D01*
X110293098Y-84584333D01*
X110296564Y-84644615D01*
X110294843Y-84707005D01*
X110287942Y-84764498D01*
X110284250Y-84782393D01*
X110256753Y-84863217D01*
X110214600Y-84938782D01*
X110159740Y-85007153D01*
X110094120Y-85066398D01*
X110019688Y-85114584D01*
X109938391Y-85149777D01*
X109903905Y-85159906D01*
X109857574Y-85167751D01*
X109801499Y-85171345D01*
X109742320Y-85170704D01*
X109686680Y-85165842D01*
X109650794Y-85159322D01*
X109575493Y-85133008D01*
X109502684Y-85092329D01*
X109435469Y-85039843D01*
X109376951Y-84978108D01*
X109330233Y-84909681D01*
X109317049Y-84884213D01*
X109292398Y-84828057D01*
X109276255Y-84779181D01*
X109267140Y-84731189D01*
X109263576Y-84677685D01*
X109263421Y-84657555D01*
X109578124Y-84657555D01*
X109590697Y-84712083D01*
X109597850Y-84729032D01*
X109629003Y-84778139D01*
X109669718Y-84815212D01*
X109717415Y-84839254D01*
X109769512Y-84849270D01*
X109823430Y-84844263D01*
X109861704Y-84830903D01*
X109910696Y-84799992D01*
X109946914Y-84760532D01*
X109970391Y-84715050D01*
X109981160Y-84666077D01*
X109979252Y-84616141D01*
X109964699Y-84567771D01*
X109937535Y-84523498D01*
X109897791Y-84485849D01*
X109857000Y-84462218D01*
X109803166Y-84446195D01*
X109750336Y-84446911D01*
X109699432Y-84464171D01*
X109651375Y-84497782D01*
X109640813Y-84507813D01*
X109603237Y-84555137D01*
X109582323Y-84605146D01*
X109578124Y-84657555D01*
X109263421Y-84657555D01*
X109263378Y-84652033D01*
X109269926Y-84563543D01*
X112785280Y-81475787D02*
X112819635Y-81485498D01*
X112819635Y-81485498D02*
X112863492Y-81503061D01*
X112863492Y-81503061D02*
X112876319Y-81508783D01*
X112876319Y-81508783D02*
X112909319Y-81524309D01*
X112909319Y-81524309D02*
X112935622Y-81537781D01*
X112935622Y-81537781D02*
X112951979Y-81547466D01*
X112951979Y-81547466D02*
X112955772Y-81551113D01*
X112955772Y-81551113D02*
X112952151Y-81559582D01*
X112952151Y-81559582D02*
X112941735Y-81581840D01*
X112941735Y-81581840D02*
X112925211Y-81616483D01*
X112925211Y-81616483D02*
X112903265Y-81662108D01*
X112903265Y-81662108D02*
X112876584Y-81717312D01*
X112876584Y-81717312D02*
X112845853Y-81780692D01*
X112845853Y-81780692D02*
X112811758Y-81850845D01*
X112811758Y-81850845D02*
X112774987Y-81926368D01*
X112774987Y-81926368D02*
X112736225Y-82005857D01*
X112736225Y-82005857D02*
X112696158Y-82087910D01*
X112696158Y-82087910D02*
X112655473Y-82171124D01*
X112655473Y-82171124D02*
X112614857Y-82254095D01*
X112614857Y-82254095D02*
X112574994Y-82335421D01*
X112574994Y-82335421D02*
X112536573Y-82413698D01*
X112536573Y-82413698D02*
X112500278Y-82487524D01*
X112500278Y-82487524D02*
X112466796Y-82555494D01*
X112466796Y-82555494D02*
X112436814Y-82616207D01*
X112436814Y-82616207D02*
X112411017Y-82668259D01*
X112411017Y-82668259D02*
X112390092Y-82710247D01*
X112390092Y-82710247D02*
X112374725Y-82740768D01*
X112374725Y-82740768D02*
X112365603Y-82758419D01*
X112365603Y-82758419D02*
X112363355Y-82762317D01*
X112363355Y-82762317D02*
X112353184Y-82762112D01*
X112353184Y-82762112D02*
X112332186Y-82754987D01*
X112332186Y-82754987D02*
X112304038Y-82742763D01*
X112304038Y-82742763D02*
X112272416Y-82727260D01*
X112272416Y-82727260D02*
X112240996Y-82710299D01*
X112240996Y-82710299D02*
X112213456Y-82693701D01*
X112213456Y-82693701D02*
X112193471Y-82679286D01*
X112193471Y-82679286D02*
X112190712Y-82676831D01*
X112190712Y-82676831D02*
X112173799Y-82659606D01*
X112173799Y-82659606D02*
X112160270Y-82641723D01*
X112160270Y-82641723D02*
X112149930Y-82621326D01*
X112149930Y-82621326D02*
X112142580Y-82596560D01*
X112142580Y-82596560D02*
X112138023Y-82565571D01*
X112138023Y-82565571D02*
X112136062Y-82526504D01*
X112136062Y-82526504D02*
X112136499Y-82477503D01*
X112136499Y-82477503D02*
X112139137Y-82416714D01*
X112139137Y-82416714D02*
X112143779Y-82342282D01*
X112143779Y-82342282D02*
X112148315Y-82278316D01*
X112148315Y-82278316D02*
X112152744Y-82215774D01*
X112152744Y-82215774D02*
X112155724Y-82168073D01*
X112155724Y-82168073D02*
X112157276Y-82133189D01*
X112157276Y-82133189D02*
X112157424Y-82109094D01*
X112157424Y-82109094D02*
X112156189Y-82093761D01*
X112156189Y-82093761D02*
X112153594Y-82085163D01*
X112153594Y-82085163D02*
X112150456Y-82081712D01*
X112150456Y-82081712D02*
X112123790Y-82070914D01*
X112123790Y-82070914D02*
X112083105Y-82061929D01*
X112083105Y-82061929D02*
X112031230Y-82054871D01*
X112031230Y-82054871D02*
X111970996Y-82049849D01*
X111970996Y-82049849D02*
X111905230Y-82046976D01*
X111905230Y-82046976D02*
X111836763Y-82046364D01*
X111836763Y-82046364D02*
X111768423Y-82048125D01*
X111768423Y-82048125D02*
X111703039Y-82052370D01*
X111703039Y-82052370D02*
X111643442Y-82059211D01*
X111643442Y-82059211D02*
X111630767Y-82061177D01*
X111630767Y-82061177D02*
X111468124Y-82093556D01*
X111468124Y-82093556D02*
X111313284Y-82136533D01*
X111313284Y-82136533D02*
X111162689Y-82191398D01*
X111162689Y-82191398D02*
X111012782Y-82259442D01*
X111012782Y-82259442D02*
X110865242Y-82338923D01*
X110865242Y-82338923D02*
X110830175Y-82359404D01*
X110830175Y-82359404D02*
X110806846Y-82374370D01*
X110806846Y-82374370D02*
X110792310Y-82386748D01*
X110792310Y-82386748D02*
X110783625Y-82399464D01*
X110783625Y-82399464D02*
X110777848Y-82415445D01*
X110777848Y-82415445D02*
X110774110Y-82429550D01*
X110774110Y-82429550D02*
X110768719Y-82449426D01*
X110768719Y-82449426D02*
X110762841Y-82465715D01*
X110762841Y-82465715D02*
X110754472Y-82481575D01*
X110754472Y-82481575D02*
X110741608Y-82500162D01*
X110741608Y-82500162D02*
X110722248Y-82524635D01*
X110722248Y-82524635D02*
X110694386Y-82558151D01*
X110694386Y-82558151D02*
X110686733Y-82567270D01*
X110686733Y-82567270D02*
X110636293Y-82632799D01*
X110636293Y-82632799D02*
X110598044Y-82695690D01*
X110598044Y-82695690D02*
X110569045Y-82760907D01*
X110569045Y-82760907D02*
X110564546Y-82773373D01*
X110564546Y-82773373D02*
X110537417Y-82873314D01*
X110537417Y-82873314D02*
X110526776Y-82971811D01*
X110526776Y-82971811D02*
X110532592Y-83070712D01*
X110532592Y-83070712D02*
X110554833Y-83171863D01*
X110554833Y-83171863D02*
X110557489Y-83180651D01*
X110557489Y-83180651D02*
X110571104Y-83224802D01*
X110571104Y-83224802D02*
X110618336Y-83233976D01*
X110618336Y-83233976D02*
X110819972Y-83280895D01*
X110819972Y-83280895D02*
X111012019Y-83341384D01*
X111012019Y-83341384D02*
X111194209Y-83415267D01*
X111194209Y-83415267D02*
X111366275Y-83502367D01*
X111366275Y-83502367D02*
X111527950Y-83602510D01*
X111527950Y-83602510D02*
X111678967Y-83715518D01*
X111678967Y-83715518D02*
X111819059Y-83841218D01*
X111819059Y-83841218D02*
X111947959Y-83979431D01*
X111947959Y-83979431D02*
X112065401Y-84129984D01*
X112065401Y-84129984D02*
X112133717Y-84231612D01*
X112133717Y-84231612D02*
X112154511Y-84265797D01*
X112154511Y-84265797D02*
X112177318Y-84305554D01*
X112177318Y-84305554D02*
X112200593Y-84347910D01*
X112200593Y-84347910D02*
X112222788Y-84389891D01*
X112222788Y-84389891D02*
X112242356Y-84428524D01*
X112242356Y-84428524D02*
X112257749Y-84460834D01*
X112257749Y-84460834D02*
X112267421Y-84483849D01*
X112267421Y-84483849D02*
X112270000Y-84493558D01*
X112270000Y-84493558D02*
X112266863Y-84503376D01*
X112266863Y-84503376D02*
X112258126Y-84526332D01*
X112258126Y-84526332D02*
X112244805Y-84559976D01*
X112244805Y-84559976D02*
X112227912Y-84601860D01*
X112227912Y-84601860D02*
X112208461Y-84649532D01*
X112208461Y-84649532D02*
X112187467Y-84700542D01*
X112187467Y-84700542D02*
X112165944Y-84752441D01*
X112165944Y-84752441D02*
X112144904Y-84802779D01*
X112144904Y-84802779D02*
X112125362Y-84849105D01*
X112125362Y-84849105D02*
X112108332Y-84888969D01*
X112108332Y-84888969D02*
X112094827Y-84919922D01*
X112094827Y-84919922D02*
X112085861Y-84939513D01*
X112085861Y-84939513D02*
X112083731Y-84943696D01*
X112083731Y-84943696D02*
X112080937Y-84942474D01*
X112080937Y-84942474D02*
X112080053Y-84927597D01*
X112080053Y-84927597D02*
X112081259Y-84902259D01*
X112081259Y-84902259D02*
X112081340Y-84901236D01*
X112081340Y-84901236D02*
X112079240Y-84826628D01*
X112079240Y-84826628D02*
X112061857Y-84755412D01*
X112061857Y-84755412D02*
X112030780Y-84689569D01*
X112030780Y-84689569D02*
X111987602Y-84631075D01*
X111987602Y-84631075D02*
X111933911Y-84581908D01*
X111933911Y-84581908D02*
X111871300Y-84544046D01*
X111871300Y-84544046D02*
X111801358Y-84519468D01*
X111801358Y-84519468D02*
X111769536Y-84513492D01*
X111769536Y-84513492D02*
X111694178Y-84510568D01*
X111694178Y-84510568D02*
X111622513Y-84522234D01*
X111622513Y-84522234D02*
X111556016Y-84546919D01*
X111556016Y-84546919D02*
X111496160Y-84583056D01*
X111496160Y-84583056D02*
X111444419Y-84629075D01*
X111444419Y-84629075D02*
X111402269Y-84683409D01*
X111402269Y-84683409D02*
X111371183Y-84744488D01*
X111371183Y-84744488D02*
X111352635Y-84810743D01*
X111352635Y-84810743D02*
X111348101Y-84880606D01*
X111348101Y-84880606D02*
X111358593Y-84950755D01*
X111358593Y-84950755D02*
X111370053Y-84994933D01*
X111370053Y-84994933D02*
X110405386Y-84994933D01*
X110405386Y-84994933D02*
X110418561Y-84974825D01*
X110418561Y-84974825D02*
X110443895Y-84926784D01*
X110443895Y-84926784D02*
X110466026Y-84866876D01*
X110466026Y-84866876D02*
X110483669Y-84800062D01*
X110483669Y-84800062D02*
X110495542Y-84731300D01*
X110495542Y-84731300D02*
X110500359Y-84665549D01*
X110500359Y-84665549D02*
X110500403Y-84658740D01*
X110500403Y-84658740D02*
X110492336Y-84547325D01*
X110492336Y-84547325D02*
X110468803Y-84441051D01*
X110468803Y-84441051D02*
X110430470Y-84341185D01*
X110430470Y-84341185D02*
X110378008Y-84248991D01*
X110378008Y-84248991D02*
X110312084Y-84165733D01*
X110312084Y-84165733D02*
X110233368Y-84092677D01*
X110233368Y-84092677D02*
X110181192Y-84054869D01*
X110181192Y-84054869D02*
X110087800Y-84001920D01*
X110087800Y-84001920D02*
X109992219Y-83965188D01*
X109992219Y-83965188D02*
X109892386Y-83944111D01*
X109892386Y-83944111D02*
X109786235Y-83938128D01*
X109786235Y-83938128D02*
X109755895Y-83939042D01*
X109755895Y-83939042D02*
X109671810Y-83946620D01*
X109671810Y-83946620D02*
X109597067Y-83961855D01*
X109597067Y-83961855D02*
X109525169Y-83986418D01*
X109525169Y-83986418D02*
X109466107Y-84013517D01*
X109466107Y-84013517D02*
X109435896Y-84028328D01*
X109435896Y-84028328D02*
X109412088Y-84039286D01*
X109412088Y-84039286D02*
X109398168Y-84044819D01*
X109398168Y-84044819D02*
X109396021Y-84045085D01*
X109396021Y-84045085D02*
X109396395Y-84036389D01*
X109396395Y-84036389D02*
X109398245Y-84012468D01*
X109398245Y-84012468D02*
X109401426Y-83974953D01*
X109401426Y-83974953D02*
X109405791Y-83925473D01*
X109405791Y-83925473D02*
X109411195Y-83865660D01*
X109411195Y-83865660D02*
X109417491Y-83797143D01*
X109417491Y-83797143D02*
X109424534Y-83721554D01*
X109424534Y-83721554D02*
X109432177Y-83640522D01*
X109432177Y-83640522D02*
X109433003Y-83631829D01*
X109433003Y-83631829D02*
X109472011Y-83221224D01*
X109472011Y-83221224D02*
X109563120Y-83211204D01*
X109563120Y-83211204D02*
X109688921Y-83198997D01*
X109688921Y-83198997D02*
X109813317Y-83190032D01*
X109813317Y-83190032D02*
X109931089Y-83184626D01*
X109931089Y-83184626D02*
X110024710Y-83183067D01*
X110024710Y-83183067D02*
X110151147Y-83183067D01*
X110151147Y-83183067D02*
X110142823Y-83142850D01*
X110142823Y-83142850D02*
X110137675Y-83104982D01*
X110137675Y-83104982D02*
X110134712Y-83055039D01*
X110134712Y-83055039D02*
X110133864Y-82997730D01*
X110133864Y-82997730D02*
X110135061Y-82937764D01*
X110135061Y-82937764D02*
X110138234Y-82879849D01*
X110138234Y-82879849D02*
X110143313Y-82828692D01*
X110143313Y-82828692D02*
X110147903Y-82799739D01*
X110147903Y-82799739D02*
X110181403Y-82670475D01*
X110181403Y-82670475D02*
X110229742Y-82549263D01*
X110229742Y-82549263D02*
X110292794Y-82436351D01*
X110292794Y-82436351D02*
X110370429Y-82331989D01*
X110370429Y-82331989D02*
X110411415Y-82286491D01*
X110411415Y-82286491D02*
X110454958Y-82243734D01*
X110454958Y-82243734D02*
X110492461Y-82213801D01*
X110492461Y-82213801D02*
X110526684Y-82195050D01*
X110526684Y-82195050D02*
X110560388Y-82185837D01*
X110560388Y-82185837D02*
X110583425Y-82184186D01*
X110583425Y-82184186D02*
X110603092Y-82182297D01*
X110603092Y-82182297D02*
X110624696Y-82175848D01*
X110624696Y-82175848D02*
X110651752Y-82163358D01*
X110651752Y-82163358D02*
X110687774Y-82143347D01*
X110687774Y-82143347D02*
X110706192Y-82132481D01*
X110706192Y-82132481D02*
X110822270Y-82067745D01*
X110822270Y-82067745D02*
X110946580Y-82006572D01*
X110946580Y-82006572D02*
X111074479Y-81950939D01*
X111074479Y-81950939D02*
X111201330Y-81902823D01*
X111201330Y-81902823D02*
X111322492Y-81864199D01*
X111322492Y-81864199D02*
X111359834Y-81854030D01*
X111359834Y-81854030D02*
X111489592Y-81825230D01*
X111489592Y-81825230D02*
X111623998Y-81804494D01*
X111623998Y-81804494D02*
X111758189Y-81792296D01*
X111758189Y-81792296D02*
X111887304Y-81789111D01*
X111887304Y-81789111D02*
X111982174Y-81793252D01*
X111982174Y-81793252D02*
X112039106Y-81799246D01*
X112039106Y-81799246D02*
X112098367Y-81808095D01*
X112098367Y-81808095D02*
X112155038Y-81818873D01*
X112155038Y-81818873D02*
X112204199Y-81830654D01*
X112204199Y-81830654D02*
X112238343Y-81841495D01*
X112238343Y-81841495D02*
X112248155Y-81837266D01*
X112248155Y-81837266D02*
X112269501Y-81822137D01*
X112269501Y-81822137D02*
X112301557Y-81796777D01*
X112301557Y-81796777D02*
X112343496Y-81761860D01*
X112343496Y-81761860D02*
X112394491Y-81718058D01*
X112394491Y-81718058D02*
X112449784Y-81669525D01*
X112449784Y-81669525D02*
X112509283Y-81617037D01*
X112509283Y-81617037D02*
X112557957Y-81574801D01*
X112557957Y-81574801D02*
X112597537Y-81541706D01*
X112597537Y-81541706D02*
X112629753Y-81516645D01*
X112629753Y-81516645D02*
X112656336Y-81498507D01*
X112656336Y-81498507D02*
X112679017Y-81486182D01*
X112679017Y-81486182D02*
X112699526Y-81478561D01*
X112699526Y-81478561D02*
X112719596Y-81474535D01*
X112719596Y-81474535D02*
X112740956Y-81472994D01*
X112740956Y-81472994D02*
X112756680Y-81472800D01*
X112756680Y-81472800D02*
X112785280Y-81475787D01*
X112785280Y-81475787D02*
X112785280Y-81475787D01*
G36*
X112785280Y-81475787D02*
G01*
X112819635Y-81485498D01*
X112863492Y-81503061D01*
X112876319Y-81508783D01*
X112909319Y-81524309D01*
X112935622Y-81537781D01*
X112951979Y-81547466D01*
X112955772Y-81551113D01*
X112952151Y-81559582D01*
X112941735Y-81581840D01*
X112925211Y-81616483D01*
X112903265Y-81662108D01*
X112876584Y-81717312D01*
X112845853Y-81780692D01*
X112811758Y-81850845D01*
X112774987Y-81926368D01*
X112736225Y-82005857D01*
X112696158Y-82087910D01*
X112655473Y-82171124D01*
X112614857Y-82254095D01*
X112574994Y-82335421D01*
X112536573Y-82413698D01*
X112500278Y-82487524D01*
X112466796Y-82555494D01*
X112436814Y-82616207D01*
X112411017Y-82668259D01*
X112390092Y-82710247D01*
X112374725Y-82740768D01*
X112365603Y-82758419D01*
X112363355Y-82762317D01*
X112353184Y-82762112D01*
X112332186Y-82754987D01*
X112304038Y-82742763D01*
X112272416Y-82727260D01*
X112240996Y-82710299D01*
X112213456Y-82693701D01*
X112193471Y-82679286D01*
X112190712Y-82676831D01*
X112173799Y-82659606D01*
X112160270Y-82641723D01*
X112149930Y-82621326D01*
X112142580Y-82596560D01*
X112138023Y-82565571D01*
X112136062Y-82526504D01*
X112136499Y-82477503D01*
X112139137Y-82416714D01*
X112143779Y-82342282D01*
X112148315Y-82278316D01*
X112152744Y-82215774D01*
X112155724Y-82168073D01*
X112157276Y-82133189D01*
X112157424Y-82109094D01*
X112156189Y-82093761D01*
X112153594Y-82085163D01*
X112150456Y-82081712D01*
X112123790Y-82070914D01*
X112083105Y-82061929D01*
X112031230Y-82054871D01*
X111970996Y-82049849D01*
X111905230Y-82046976D01*
X111836763Y-82046364D01*
X111768423Y-82048125D01*
X111703039Y-82052370D01*
X111643442Y-82059211D01*
X111630767Y-82061177D01*
X111468124Y-82093556D01*
X111313284Y-82136533D01*
X111162689Y-82191398D01*
X111012782Y-82259442D01*
X110865242Y-82338923D01*
X110830175Y-82359404D01*
X110806846Y-82374370D01*
X110792310Y-82386748D01*
X110783625Y-82399464D01*
X110777848Y-82415445D01*
X110774110Y-82429550D01*
X110768719Y-82449426D01*
X110762841Y-82465715D01*
X110754472Y-82481575D01*
X110741608Y-82500162D01*
X110722248Y-82524635D01*
X110694386Y-82558151D01*
X110686733Y-82567270D01*
X110636293Y-82632799D01*
X110598044Y-82695690D01*
X110569045Y-82760907D01*
X110564546Y-82773373D01*
X110537417Y-82873314D01*
X110526776Y-82971811D01*
X110532592Y-83070712D01*
X110554833Y-83171863D01*
X110557489Y-83180651D01*
X110571104Y-83224802D01*
X110618336Y-83233976D01*
X110819972Y-83280895D01*
X111012019Y-83341384D01*
X111194209Y-83415267D01*
X111366275Y-83502367D01*
X111527950Y-83602510D01*
X111678967Y-83715518D01*
X111819059Y-83841218D01*
X111947959Y-83979431D01*
X112065401Y-84129984D01*
X112133717Y-84231612D01*
X112154511Y-84265797D01*
X112177318Y-84305554D01*
X112200593Y-84347910D01*
X112222788Y-84389891D01*
X112242356Y-84428524D01*
X112257749Y-84460834D01*
X112267421Y-84483849D01*
X112270000Y-84493558D01*
X112266863Y-84503376D01*
X112258126Y-84526332D01*
X112244805Y-84559976D01*
X112227912Y-84601860D01*
X112208461Y-84649532D01*
X112187467Y-84700542D01*
X112165944Y-84752441D01*
X112144904Y-84802779D01*
X112125362Y-84849105D01*
X112108332Y-84888969D01*
X112094827Y-84919922D01*
X112085861Y-84939513D01*
X112083731Y-84943696D01*
X112080937Y-84942474D01*
X112080053Y-84927597D01*
X112081259Y-84902259D01*
X112081340Y-84901236D01*
X112079240Y-84826628D01*
X112061857Y-84755412D01*
X112030780Y-84689569D01*
X111987602Y-84631075D01*
X111933911Y-84581908D01*
X111871300Y-84544046D01*
X111801358Y-84519468D01*
X111769536Y-84513492D01*
X111694178Y-84510568D01*
X111622513Y-84522234D01*
X111556016Y-84546919D01*
X111496160Y-84583056D01*
X111444419Y-84629075D01*
X111402269Y-84683409D01*
X111371183Y-84744488D01*
X111352635Y-84810743D01*
X111348101Y-84880606D01*
X111358593Y-84950755D01*
X111370053Y-84994933D01*
X110405386Y-84994933D01*
X110418561Y-84974825D01*
X110443895Y-84926784D01*
X110466026Y-84866876D01*
X110483669Y-84800062D01*
X110495542Y-84731300D01*
X110500359Y-84665549D01*
X110500403Y-84658740D01*
X110492336Y-84547325D01*
X110468803Y-84441051D01*
X110430470Y-84341185D01*
X110378008Y-84248991D01*
X110312084Y-84165733D01*
X110233368Y-84092677D01*
X110181192Y-84054869D01*
X110087800Y-84001920D01*
X109992219Y-83965188D01*
X109892386Y-83944111D01*
X109786235Y-83938128D01*
X109755895Y-83939042D01*
X109671810Y-83946620D01*
X109597067Y-83961855D01*
X109525169Y-83986418D01*
X109466107Y-84013517D01*
X109435896Y-84028328D01*
X109412088Y-84039286D01*
X109398168Y-84044819D01*
X109396021Y-84045085D01*
X109396395Y-84036389D01*
X109398245Y-84012468D01*
X109401426Y-83974953D01*
X109405791Y-83925473D01*
X109411195Y-83865660D01*
X109417491Y-83797143D01*
X109424534Y-83721554D01*
X109432177Y-83640522D01*
X109433003Y-83631829D01*
X109472011Y-83221224D01*
X109563120Y-83211204D01*
X109688921Y-83198997D01*
X109813317Y-83190032D01*
X109931089Y-83184626D01*
X110024710Y-83183067D01*
X110151147Y-83183067D01*
X110142823Y-83142850D01*
X110137675Y-83104982D01*
X110134712Y-83055039D01*
X110133864Y-82997730D01*
X110135061Y-82937764D01*
X110138234Y-82879849D01*
X110143313Y-82828692D01*
X110147903Y-82799739D01*
X110181403Y-82670475D01*
X110229742Y-82549263D01*
X110292794Y-82436351D01*
X110370429Y-82331989D01*
X110411415Y-82286491D01*
X110454958Y-82243734D01*
X110492461Y-82213801D01*
X110526684Y-82195050D01*
X110560388Y-82185837D01*
X110583425Y-82184186D01*
X110603092Y-82182297D01*
X110624696Y-82175848D01*
X110651752Y-82163358D01*
X110687774Y-82143347D01*
X110706192Y-82132481D01*
X110822270Y-82067745D01*
X110946580Y-82006572D01*
X111074479Y-81950939D01*
X111201330Y-81902823D01*
X111322492Y-81864199D01*
X111359834Y-81854030D01*
X111489592Y-81825230D01*
X111623998Y-81804494D01*
X111758189Y-81792296D01*
X111887304Y-81789111D01*
X111982174Y-81793252D01*
X112039106Y-81799246D01*
X112098367Y-81808095D01*
X112155038Y-81818873D01*
X112204199Y-81830654D01*
X112238343Y-81841495D01*
X112248155Y-81837266D01*
X112269501Y-81822137D01*
X112301557Y-81796777D01*
X112343496Y-81761860D01*
X112394491Y-81718058D01*
X112449784Y-81669525D01*
X112509283Y-81617037D01*
X112557957Y-81574801D01*
X112597537Y-81541706D01*
X112629753Y-81516645D01*
X112656336Y-81498507D01*
X112679017Y-81486182D01*
X112699526Y-81478561D01*
X112719596Y-81474535D01*
X112740956Y-81472994D01*
X112756680Y-81472800D01*
X112785280Y-81475787D01*
G37*
X112785280Y-81475787D02*
X112819635Y-81485498D01*
X112863492Y-81503061D01*
X112876319Y-81508783D01*
X112909319Y-81524309D01*
X112935622Y-81537781D01*
X112951979Y-81547466D01*
X112955772Y-81551113D01*
X112952151Y-81559582D01*
X112941735Y-81581840D01*
X112925211Y-81616483D01*
X112903265Y-81662108D01*
X112876584Y-81717312D01*
X112845853Y-81780692D01*
X112811758Y-81850845D01*
X112774987Y-81926368D01*
X112736225Y-82005857D01*
X112696158Y-82087910D01*
X112655473Y-82171124D01*
X112614857Y-82254095D01*
X112574994Y-82335421D01*
X112536573Y-82413698D01*
X112500278Y-82487524D01*
X112466796Y-82555494D01*
X112436814Y-82616207D01*
X112411017Y-82668259D01*
X112390092Y-82710247D01*
X112374725Y-82740768D01*
X112365603Y-82758419D01*
X112363355Y-82762317D01*
X112353184Y-82762112D01*
X112332186Y-82754987D01*
X112304038Y-82742763D01*
X112272416Y-82727260D01*
X112240996Y-82710299D01*
X112213456Y-82693701D01*
X112193471Y-82679286D01*
X112190712Y-82676831D01*
X112173799Y-82659606D01*
X112160270Y-82641723D01*
X112149930Y-82621326D01*
X112142580Y-82596560D01*
X112138023Y-82565571D01*
X112136062Y-82526504D01*
X112136499Y-82477503D01*
X112139137Y-82416714D01*
X112143779Y-82342282D01*
X112148315Y-82278316D01*
X112152744Y-82215774D01*
X112155724Y-82168073D01*
X112157276Y-82133189D01*
X112157424Y-82109094D01*
X112156189Y-82093761D01*
X112153594Y-82085163D01*
X112150456Y-82081712D01*
X112123790Y-82070914D01*
X112083105Y-82061929D01*
X112031230Y-82054871D01*
X111970996Y-82049849D01*
X111905230Y-82046976D01*
X111836763Y-82046364D01*
X111768423Y-82048125D01*
X111703039Y-82052370D01*
X111643442Y-82059211D01*
X111630767Y-82061177D01*
X111468124Y-82093556D01*
X111313284Y-82136533D01*
X111162689Y-82191398D01*
X111012782Y-82259442D01*
X110865242Y-82338923D01*
X110830175Y-82359404D01*
X110806846Y-82374370D01*
X110792310Y-82386748D01*
X110783625Y-82399464D01*
X110777848Y-82415445D01*
X110774110Y-82429550D01*
X110768719Y-82449426D01*
X110762841Y-82465715D01*
X110754472Y-82481575D01*
X110741608Y-82500162D01*
X110722248Y-82524635D01*
X110694386Y-82558151D01*
X110686733Y-82567270D01*
X110636293Y-82632799D01*
X110598044Y-82695690D01*
X110569045Y-82760907D01*
X110564546Y-82773373D01*
X110537417Y-82873314D01*
X110526776Y-82971811D01*
X110532592Y-83070712D01*
X110554833Y-83171863D01*
X110557489Y-83180651D01*
X110571104Y-83224802D01*
X110618336Y-83233976D01*
X110819972Y-83280895D01*
X111012019Y-83341384D01*
X111194209Y-83415267D01*
X111366275Y-83502367D01*
X111527950Y-83602510D01*
X111678967Y-83715518D01*
X111819059Y-83841218D01*
X111947959Y-83979431D01*
X112065401Y-84129984D01*
X112133717Y-84231612D01*
X112154511Y-84265797D01*
X112177318Y-84305554D01*
X112200593Y-84347910D01*
X112222788Y-84389891D01*
X112242356Y-84428524D01*
X112257749Y-84460834D01*
X112267421Y-84483849D01*
X112270000Y-84493558D01*
X112266863Y-84503376D01*
X112258126Y-84526332D01*
X112244805Y-84559976D01*
X112227912Y-84601860D01*
X112208461Y-84649532D01*
X112187467Y-84700542D01*
X112165944Y-84752441D01*
X112144904Y-84802779D01*
X112125362Y-84849105D01*
X112108332Y-84888969D01*
X112094827Y-84919922D01*
X112085861Y-84939513D01*
X112083731Y-84943696D01*
X112080937Y-84942474D01*
X112080053Y-84927597D01*
X112081259Y-84902259D01*
X112081340Y-84901236D01*
X112079240Y-84826628D01*
X112061857Y-84755412D01*
X112030780Y-84689569D01*
X111987602Y-84631075D01*
X111933911Y-84581908D01*
X111871300Y-84544046D01*
X111801358Y-84519468D01*
X111769536Y-84513492D01*
X111694178Y-84510568D01*
X111622513Y-84522234D01*
X111556016Y-84546919D01*
X111496160Y-84583056D01*
X111444419Y-84629075D01*
X111402269Y-84683409D01*
X111371183Y-84744488D01*
X111352635Y-84810743D01*
X111348101Y-84880606D01*
X111358593Y-84950755D01*
X111370053Y-84994933D01*
X110405386Y-84994933D01*
X110418561Y-84974825D01*
X110443895Y-84926784D01*
X110466026Y-84866876D01*
X110483669Y-84800062D01*
X110495542Y-84731300D01*
X110500359Y-84665549D01*
X110500403Y-84658740D01*
X110492336Y-84547325D01*
X110468803Y-84441051D01*
X110430470Y-84341185D01*
X110378008Y-84248991D01*
X110312084Y-84165733D01*
X110233368Y-84092677D01*
X110181192Y-84054869D01*
X110087800Y-84001920D01*
X109992219Y-83965188D01*
X109892386Y-83944111D01*
X109786235Y-83938128D01*
X109755895Y-83939042D01*
X109671810Y-83946620D01*
X109597067Y-83961855D01*
X109525169Y-83986418D01*
X109466107Y-84013517D01*
X109435896Y-84028328D01*
X109412088Y-84039286D01*
X109398168Y-84044819D01*
X109396021Y-84045085D01*
X109396395Y-84036389D01*
X109398245Y-84012468D01*
X109401426Y-83974953D01*
X109405791Y-83925473D01*
X109411195Y-83865660D01*
X109417491Y-83797143D01*
X109424534Y-83721554D01*
X109432177Y-83640522D01*
X109433003Y-83631829D01*
X109472011Y-83221224D01*
X109563120Y-83211204D01*
X109688921Y-83198997D01*
X109813317Y-83190032D01*
X109931089Y-83184626D01*
X110024710Y-83183067D01*
X110151147Y-83183067D01*
X110142823Y-83142850D01*
X110137675Y-83104982D01*
X110134712Y-83055039D01*
X110133864Y-82997730D01*
X110135061Y-82937764D01*
X110138234Y-82879849D01*
X110143313Y-82828692D01*
X110147903Y-82799739D01*
X110181403Y-82670475D01*
X110229742Y-82549263D01*
X110292794Y-82436351D01*
X110370429Y-82331989D01*
X110411415Y-82286491D01*
X110454958Y-82243734D01*
X110492461Y-82213801D01*
X110526684Y-82195050D01*
X110560388Y-82185837D01*
X110583425Y-82184186D01*
X110603092Y-82182297D01*
X110624696Y-82175848D01*
X110651752Y-82163358D01*
X110687774Y-82143347D01*
X110706192Y-82132481D01*
X110822270Y-82067745D01*
X110946580Y-82006572D01*
X111074479Y-81950939D01*
X111201330Y-81902823D01*
X111322492Y-81864199D01*
X111359834Y-81854030D01*
X111489592Y-81825230D01*
X111623998Y-81804494D01*
X111758189Y-81792296D01*
X111887304Y-81789111D01*
X111982174Y-81793252D01*
X112039106Y-81799246D01*
X112098367Y-81808095D01*
X112155038Y-81818873D01*
X112204199Y-81830654D01*
X112238343Y-81841495D01*
X112248155Y-81837266D01*
X112269501Y-81822137D01*
X112301557Y-81796777D01*
X112343496Y-81761860D01*
X112394491Y-81718058D01*
X112449784Y-81669525D01*
X112509283Y-81617037D01*
X112557957Y-81574801D01*
X112597537Y-81541706D01*
X112629753Y-81516645D01*
X112656336Y-81498507D01*
X112679017Y-81486182D01*
X112699526Y-81478561D01*
X112719596Y-81474535D01*
X112740956Y-81472994D01*
X112756680Y-81472800D01*
X112785280Y-81475787D01*
D10*
%TO.C,C12*%
X87258578Y-88810000D02*
X86741422Y-88810000D01*
X87258578Y-87390000D02*
X86741422Y-87390000D01*
D12*
X87127000Y-88100000D02*
G75*
G03*
X87127000Y-88100000I-127000J0D01*
G01*
D10*
%TO.C,C13*%
X127210000Y-70958578D02*
X127210000Y-70441422D01*
X125790000Y-70958578D02*
X125790000Y-70441422D01*
D12*
X126627000Y-70700000D02*
G75*
G03*
X126627000Y-70700000I-127000J0D01*
G01*
%TO.C,kibuzzard-61600490*%
G36*
X100686304Y-85855277D02*
G01*
X100716307Y-86025655D01*
X100752383Y-86209964D01*
X100792031Y-86399987D01*
X100834894Y-86591440D01*
X100880614Y-86780035D01*
X100927405Y-86957557D01*
X100973482Y-87115791D01*
X101019202Y-86959700D01*
X101064922Y-86782893D01*
X101109214Y-86594298D01*
X101150647Y-86402845D01*
X101189224Y-86212464D01*
X101224942Y-86027084D01*
X101256375Y-85855634D01*
X101282092Y-85707044D01*
X101650710Y-85707044D01*
X101612491Y-85888495D01*
X101566414Y-86089949D01*
X101512836Y-86306762D01*
X101452114Y-86534290D01*
X101407822Y-86690500D01*
X101360674Y-86848615D01*
X101310667Y-87008635D01*
X101258597Y-87167861D01*
X101205257Y-87323595D01*
X101150647Y-87475836D01*
X100787745Y-87475836D01*
X100717022Y-87265810D01*
X100642012Y-87030066D01*
X100591530Y-86864490D01*
X100542952Y-86699231D01*
X100496280Y-86534290D01*
X100452148Y-86372524D01*
X100411190Y-86216790D01*
X100373407Y-86067089D01*
X100326259Y-85867064D01*
X100293397Y-85707044D01*
X100664872Y-85707044D01*
X100686304Y-85855277D01*
G37*
G36*
X106491315Y-86835756D02*
G01*
X106502388Y-86997562D01*
X106535606Y-87111505D01*
X106708485Y-87201516D01*
X106868505Y-87187229D01*
X106868505Y-86132811D01*
X107222835Y-86132811D01*
X107222835Y-87430116D01*
X107115322Y-87455834D01*
X106987091Y-87481551D01*
X106842430Y-87500839D01*
X106685625Y-87507269D01*
X106534892Y-87495839D01*
X106414162Y-87461549D01*
X106246999Y-87331533D01*
X106162702Y-87132936D01*
X106145557Y-87012921D01*
X106139842Y-86881476D01*
X106139842Y-86132811D01*
X106491315Y-86132811D01*
X106491315Y-86835756D01*
G37*
G36*
X111003308Y-85581314D02*
G01*
X111069030Y-85747049D01*
X111003308Y-85909926D01*
X110846145Y-85969934D01*
X110690411Y-85909926D01*
X110626118Y-85747049D01*
X110690411Y-85581314D01*
X110846145Y-85521306D01*
X111003308Y-85581314D01*
G37*
G36*
X113649353Y-86664306D02*
G01*
X113753651Y-86537148D01*
X113856521Y-86398559D01*
X113952248Y-86259970D01*
X114032258Y-86132811D01*
X114455168Y-86132811D01*
X114338010Y-86275686D01*
X114202279Y-86432849D01*
X114062261Y-86587154D01*
X113935103Y-86724314D01*
X114089408Y-86888620D01*
X114171561Y-86986132D01*
X114252285Y-87087216D01*
X114329080Y-87190086D01*
X114399446Y-87292956D01*
X114506603Y-87475836D01*
X114103695Y-87475836D01*
X114013684Y-87314388D01*
X113895098Y-87137223D01*
X113767939Y-86971488D01*
X113649353Y-86841471D01*
X113649353Y-87475836D01*
X113295023Y-87475836D01*
X113295023Y-85552739D01*
X113649353Y-85492731D01*
X113649353Y-86664306D01*
G37*
G36*
X112797818Y-86115666D02*
G01*
X112994985Y-86172816D01*
X112917833Y-86455709D01*
X112790674Y-86419990D01*
X112612080Y-86404274D01*
X112402054Y-86434277D01*
X112266323Y-86517145D01*
X112192028Y-86644304D01*
X112169168Y-86804324D01*
X112195242Y-86970059D01*
X112273466Y-87095789D01*
X112414555Y-87175084D01*
X112629225Y-87201516D01*
X112802104Y-87190086D01*
X112966410Y-87152939D01*
X113017845Y-87441546D01*
X112837823Y-87488695D01*
X112722808Y-87502625D01*
X112589220Y-87507269D01*
X112398125Y-87493696D01*
X112236319Y-87452976D01*
X112102373Y-87388683D01*
X111994860Y-87304386D01*
X111913064Y-87201516D01*
X111856271Y-87081501D01*
X111823053Y-86947913D01*
X111811980Y-86804324D01*
X111823410Y-86662878D01*
X111857700Y-86530004D01*
X111915564Y-86409632D01*
X111997718Y-86305690D01*
X112104517Y-86219965D01*
X112236319Y-86154242D01*
X112394553Y-86112452D01*
X112580648Y-86098521D01*
X112797818Y-86115666D01*
G37*
G36*
X102607972Y-86670021D02*
G01*
X102607972Y-86627159D01*
X102545107Y-86459995D01*
X102459382Y-86409632D01*
X102327937Y-86392844D01*
X102135056Y-86407131D01*
X101985037Y-86441421D01*
X101936460Y-86158529D01*
X102122197Y-86117095D01*
X102244356Y-86103165D01*
X102370800Y-86098521D01*
X102522605Y-86108165D01*
X102646549Y-86137097D01*
X102822285Y-86245683D01*
X102916582Y-86417132D01*
X102945157Y-86644304D01*
X102945157Y-87444404D01*
X102716557Y-87484409D01*
X102555823Y-87501554D01*
X102376515Y-87507269D01*
X102143629Y-87484409D01*
X101965035Y-87408685D01*
X101850735Y-87271525D01*
X101810730Y-87064356D01*
X101812718Y-87055784D01*
X102156487Y-87055784D01*
X102225067Y-87185800D01*
X102402232Y-87224376D01*
X102513675Y-87222948D01*
X102607972Y-87215804D01*
X102607972Y-86907194D01*
X102525105Y-86897193D01*
X102436522Y-86892906D01*
X102330795Y-86900050D01*
X102240784Y-86924339D01*
X102179347Y-86972916D01*
X102156487Y-87055784D01*
X101812718Y-87055784D01*
X101856450Y-86867189D01*
X101979322Y-86738601D01*
X102156487Y-86668593D01*
X102365085Y-86647161D01*
X102494387Y-86652876D01*
X102607972Y-86670021D01*
G37*
G36*
X111083318Y-86964344D02*
G01*
X111127609Y-87142938D01*
X111274770Y-87201516D01*
X111391928Y-87188658D01*
X111546233Y-87135794D01*
X111591953Y-87418686D01*
X111387641Y-87488695D01*
X111211905Y-87507269D01*
X111085818Y-87497268D01*
X110981876Y-87467264D01*
X110833286Y-87351535D01*
X110754705Y-87167226D01*
X110737560Y-87050783D01*
X110731845Y-86918624D01*
X110731845Y-86424276D01*
X110360370Y-86424276D01*
X110360370Y-86132811D01*
X111083318Y-86132811D01*
X111083318Y-86964344D01*
G37*
G36*
X109851100Y-85748636D02*
G01*
X109991753Y-85825630D01*
X110094940Y-85937549D01*
X110156852Y-86088520D01*
X110177490Y-86278544D01*
X110156694Y-86470472D01*
X110094305Y-86623349D01*
X109990324Y-86737173D01*
X109848242Y-86815754D01*
X109671554Y-86862903D01*
X109460258Y-86878619D01*
X109334528Y-86878619D01*
X109334528Y-87475836D01*
X108983055Y-87475836D01*
X108983055Y-86572866D01*
X109334528Y-86572866D01*
X109477402Y-86572866D01*
X109625278Y-86556078D01*
X109731720Y-86505715D01*
X109796014Y-86414632D01*
X109817445Y-86275686D01*
X109796371Y-86143884D01*
X109733149Y-86057087D01*
X109634922Y-86008867D01*
X109508835Y-85992794D01*
X109421681Y-85994222D01*
X109334528Y-86001366D01*
X109334528Y-86572866D01*
X108983055Y-86572866D01*
X108983055Y-85729904D01*
X109098784Y-85709901D01*
X109228800Y-85697042D01*
X109357388Y-85689899D01*
X109468830Y-85687041D01*
X109676792Y-85702440D01*
X109851100Y-85748636D01*
G37*
G36*
X104225317Y-86115666D02*
G01*
X104422485Y-86172816D01*
X104345332Y-86455709D01*
X104218174Y-86419990D01*
X104039580Y-86404274D01*
X103829554Y-86434277D01*
X103693822Y-86517145D01*
X103619527Y-86644304D01*
X103596667Y-86804324D01*
X103622742Y-86970059D01*
X103700966Y-87095789D01*
X103842055Y-87175084D01*
X104056725Y-87201516D01*
X104229604Y-87190086D01*
X104393910Y-87152939D01*
X104445345Y-87441546D01*
X104265322Y-87488695D01*
X104150308Y-87502625D01*
X104016720Y-87507269D01*
X103825625Y-87493696D01*
X103663819Y-87452976D01*
X103529873Y-87388683D01*
X103422360Y-87304386D01*
X103340564Y-87201516D01*
X103283771Y-87081501D01*
X103250553Y-86947913D01*
X103239480Y-86804324D01*
X103250910Y-86662878D01*
X103285200Y-86530004D01*
X103343064Y-86409632D01*
X103425217Y-86305690D01*
X103532017Y-86219965D01*
X103663819Y-86154242D01*
X103822053Y-86112452D01*
X104008147Y-86098521D01*
X104225317Y-86115666D01*
G37*
G36*
X108563003Y-86152814D02*
G01*
X108675874Y-86255684D01*
X108731595Y-86428562D01*
X108742311Y-86541791D01*
X108745883Y-86672879D01*
X108745883Y-87475836D01*
X108460133Y-87475836D01*
X108460133Y-86655734D01*
X108450131Y-86527146D01*
X108424414Y-86452851D01*
X108387266Y-86418561D01*
X108342975Y-86409989D01*
X108288683Y-86414275D01*
X108237248Y-86429991D01*
X108251535Y-86550006D01*
X108257250Y-86695739D01*
X108257250Y-86964344D01*
X107971500Y-86964344D01*
X107971500Y-86655734D01*
X107944354Y-86464281D01*
X107857200Y-86409989D01*
X107815766Y-86412846D01*
X107768618Y-86421419D01*
X107768618Y-87475836D01*
X107482868Y-87475836D01*
X107482868Y-86184246D01*
X107702895Y-86135669D01*
X107894348Y-86118524D01*
X108027221Y-86137097D01*
X108128663Y-86198534D01*
X108242963Y-86142812D01*
X108380123Y-86118524D01*
X108563003Y-86152814D01*
G37*
G36*
X105062565Y-86835756D02*
G01*
X105073638Y-86997562D01*
X105106856Y-87111505D01*
X105279735Y-87201516D01*
X105439755Y-87187229D01*
X105439755Y-86132811D01*
X105794085Y-86132811D01*
X105794085Y-87430116D01*
X105686572Y-87455834D01*
X105558341Y-87481551D01*
X105413680Y-87500839D01*
X105256875Y-87507269D01*
X105106142Y-87495839D01*
X104985412Y-87461549D01*
X104818249Y-87331533D01*
X104733952Y-87132936D01*
X104716807Y-87012921D01*
X104711092Y-86881476D01*
X104711092Y-86132811D01*
X105062565Y-86132811D01*
X105062565Y-86835756D01*
G37*
D10*
%TO.C,R5*%
X113792000Y-77850000D02*
X114300000Y-77850000D01*
X114304000Y-77850000D02*
X114304000Y-78050000D01*
X113340000Y-78208578D02*
X113340000Y-77691422D01*
X113796000Y-78050000D02*
X113796000Y-77850000D01*
X114760000Y-78208578D02*
X114760000Y-77691422D01*
X114300000Y-78050000D02*
X113800000Y-78050000D01*
%TO.C,R6*%
X117000000Y-85650000D02*
X117000000Y-86150000D01*
X117158578Y-86610000D02*
X116641422Y-86610000D01*
X116800000Y-86158000D02*
X116800000Y-85650000D01*
X116800000Y-85646000D02*
X117000000Y-85646000D01*
X117158578Y-85190000D02*
X116641422Y-85190000D01*
X117000000Y-86154000D02*
X116800000Y-86154000D01*
%TO.C,kibuzzard-61600814*%
G36*
X101751694Y-91050025D02*
G01*
X101794556Y-91153213D01*
X101751694Y-91259575D01*
X101653269Y-91296088D01*
X101599294Y-91286563D01*
X101554050Y-91258781D01*
X101522300Y-91214331D01*
X101510394Y-91153213D01*
X101522300Y-91093681D01*
X101554050Y-91050025D01*
X101599294Y-91023038D01*
X101653269Y-91013513D01*
X101751694Y-91050025D01*
G37*
G36*
X104352416Y-91011925D02*
G01*
X104325130Y-91100428D01*
X104286931Y-91172263D01*
X104219903Y-91242818D01*
X104135237Y-91285151D01*
X104032931Y-91299263D01*
X103930626Y-91285151D01*
X103845959Y-91242818D01*
X103778931Y-91172263D01*
X103740732Y-91100428D01*
X103713447Y-91011925D01*
X103697076Y-90906753D01*
X103691619Y-90784912D01*
X103867831Y-90784912D01*
X103872594Y-90889070D01*
X103886881Y-90975060D01*
X103910694Y-91042881D01*
X103962684Y-91108961D01*
X104032931Y-91130988D01*
X104104170Y-91108961D01*
X104155963Y-91042881D01*
X104179334Y-90975060D01*
X104193357Y-90889070D01*
X104198031Y-90784912D01*
X104193357Y-90681637D01*
X104179334Y-90596176D01*
X104155963Y-90528531D01*
X104104170Y-90462452D01*
X104032931Y-90440425D01*
X103962684Y-90462452D01*
X103910694Y-90528531D01*
X103886881Y-90596176D01*
X103872594Y-90681637D01*
X103867831Y-90784912D01*
X103691619Y-90784912D01*
X103697175Y-90664461D01*
X103713844Y-90560281D01*
X103741625Y-90472373D01*
X103780519Y-90400737D01*
X103848076Y-90330182D01*
X103932213Y-90287849D01*
X104032931Y-90273737D01*
X104135237Y-90287760D01*
X104219903Y-90329829D01*
X104286931Y-90399944D01*
X104325130Y-90471332D01*
X104352416Y-90559289D01*
X104368787Y-90663816D01*
X104374244Y-90784912D01*
X104368787Y-90906753D01*
X104352416Y-91011925D01*
G37*
G36*
X103375706Y-91116700D02*
G01*
X103570969Y-91116700D01*
X103570969Y-91278625D01*
X102974069Y-91278625D01*
X102974069Y-91116700D01*
X103180444Y-91116700D01*
X103180444Y-90567425D01*
X103078844Y-90623781D01*
X102982006Y-90662675D01*
X102918506Y-90500750D01*
X103001056Y-90464237D01*
X103089956Y-90415025D01*
X103174094Y-90357875D01*
X103242356Y-90295962D01*
X103375706Y-90295962D01*
X103375706Y-91116700D01*
G37*
G36*
X106733666Y-91011925D02*
G01*
X106706380Y-91100428D01*
X106668181Y-91172263D01*
X106601153Y-91242818D01*
X106516487Y-91285151D01*
X106414181Y-91299263D01*
X106311876Y-91285151D01*
X106227209Y-91242818D01*
X106160181Y-91172263D01*
X106121982Y-91100428D01*
X106094697Y-91011925D01*
X106078326Y-90906753D01*
X106072869Y-90784912D01*
X106249081Y-90784912D01*
X106253844Y-90889070D01*
X106268131Y-90975060D01*
X106291944Y-91042881D01*
X106343934Y-91108961D01*
X106414181Y-91130988D01*
X106485420Y-91108961D01*
X106537213Y-91042881D01*
X106560584Y-90975060D01*
X106574607Y-90889070D01*
X106579281Y-90784912D01*
X106574607Y-90681637D01*
X106560584Y-90596176D01*
X106537213Y-90528531D01*
X106485420Y-90462452D01*
X106414181Y-90440425D01*
X106343934Y-90462452D01*
X106291944Y-90528531D01*
X106268131Y-90596176D01*
X106253844Y-90681637D01*
X106249081Y-90784912D01*
X106072869Y-90784912D01*
X106078425Y-90664461D01*
X106095094Y-90560281D01*
X106122875Y-90472373D01*
X106161769Y-90400737D01*
X106229326Y-90330182D01*
X106313463Y-90287849D01*
X106414181Y-90273737D01*
X106516487Y-90287760D01*
X106601153Y-90329829D01*
X106668181Y-90399944D01*
X106706380Y-90471332D01*
X106733666Y-90559289D01*
X106750037Y-90663816D01*
X106755494Y-90784912D01*
X106750037Y-90906753D01*
X106733666Y-91011925D01*
G37*
G36*
X94728594Y-90522975D02*
G01*
X94838131Y-90554725D01*
X94795269Y-90711887D01*
X94724625Y-90692044D01*
X94625406Y-90683312D01*
X94508725Y-90699981D01*
X94433319Y-90746019D01*
X94392044Y-90816662D01*
X94379344Y-90905563D01*
X94393830Y-90997638D01*
X94437287Y-91067488D01*
X94515670Y-91111541D01*
X94634931Y-91126225D01*
X94730975Y-91119875D01*
X94822256Y-91099238D01*
X94850831Y-91259575D01*
X94750819Y-91285769D01*
X94686922Y-91293508D01*
X94612706Y-91296088D01*
X94506542Y-91288547D01*
X94416650Y-91265925D01*
X94342236Y-91230206D01*
X94282506Y-91183375D01*
X94237064Y-91126225D01*
X94205512Y-91059550D01*
X94187058Y-90985334D01*
X94180906Y-90905563D01*
X94187256Y-90826981D01*
X94206306Y-90753162D01*
X94238453Y-90686289D01*
X94284094Y-90628544D01*
X94343427Y-90580919D01*
X94416650Y-90544406D01*
X94504558Y-90521189D01*
X94607944Y-90513450D01*
X94728594Y-90522975D01*
G37*
G36*
X97580537Y-90657912D02*
G01*
X97599389Y-90724587D01*
X97619431Y-90791262D01*
X97640664Y-90857342D01*
X97663087Y-90922231D01*
X97709919Y-91042088D01*
X97743256Y-90922231D01*
X97760322Y-90857541D01*
X97776594Y-90792056D01*
X97792270Y-90725977D01*
X97807550Y-90659500D01*
X97835331Y-90532500D01*
X98035356Y-90532500D01*
X98005789Y-90636283D01*
X97977412Y-90738081D01*
X97949036Y-90837697D01*
X97919469Y-90934931D01*
X97888314Y-91029983D01*
X97855175Y-91123050D01*
X97819655Y-91213934D01*
X97781356Y-91302438D01*
X97721825Y-91411975D01*
X97656737Y-91487381D01*
X97577362Y-91531038D01*
X97474969Y-91545325D01*
X97385275Y-91537388D01*
X97317806Y-91516750D01*
X97354319Y-91353238D01*
X97410675Y-91373081D01*
X97463856Y-91378638D01*
X97555931Y-91340538D01*
X97611494Y-91250050D01*
X97564927Y-91152419D01*
X97518360Y-91045792D01*
X97471794Y-90930169D01*
X97437662Y-90837746D01*
X97405119Y-90740661D01*
X97374162Y-90638912D01*
X97344794Y-90532500D01*
X97547994Y-90532500D01*
X97580537Y-90657912D01*
G37*
G36*
X107307944Y-90291200D02*
G01*
X107406369Y-90343587D01*
X107474631Y-90431694D01*
X107500031Y-90554725D01*
X107480981Y-90652356D01*
X107430181Y-90743637D01*
X107358744Y-90829362D01*
X107277781Y-90908738D01*
X107230156Y-90953981D01*
X107179356Y-91007956D01*
X107138875Y-91064313D01*
X107122206Y-91116700D01*
X107544481Y-91116700D01*
X107544481Y-91278625D01*
X106903131Y-91278625D01*
X106899163Y-91238938D01*
X106899956Y-91205600D01*
X106907298Y-91129400D01*
X106929325Y-91059550D01*
X106962663Y-90995455D01*
X107003938Y-90936519D01*
X107050769Y-90882147D01*
X107100775Y-90831744D01*
X107150781Y-90784317D01*
X107197613Y-90738875D01*
X107272225Y-90653150D01*
X107301594Y-90569012D01*
X107265081Y-90476144D01*
X107173006Y-90443600D01*
X107076169Y-90465825D01*
X106976156Y-90540437D01*
X106879319Y-90403912D01*
X106947780Y-90345969D01*
X107026163Y-90305487D01*
X107109308Y-90281675D01*
X107192056Y-90273737D01*
X107307944Y-90291200D01*
G37*
G36*
X93979294Y-90272150D02*
G01*
X93884661Y-90338119D01*
X93803963Y-90417494D01*
X93737200Y-90510275D01*
X93687370Y-90615050D01*
X93657472Y-90730408D01*
X93647506Y-90856350D01*
X93657119Y-90980792D01*
X93685959Y-91093769D01*
X93734025Y-91195281D01*
X93799024Y-91284975D01*
X93878664Y-91362498D01*
X93972944Y-91427850D01*
X93882456Y-91548500D01*
X93781749Y-91485298D01*
X93695528Y-91414753D01*
X93623793Y-91336866D01*
X93566544Y-91251638D01*
X93522788Y-91160257D01*
X93491534Y-91063916D01*
X93472782Y-90962613D01*
X93466531Y-90856350D01*
X93472980Y-90749045D01*
X93492328Y-90646205D01*
X93524574Y-90547829D01*
X93569719Y-90453919D01*
X93628357Y-90366259D01*
X93701084Y-90286636D01*
X93787901Y-90215050D01*
X93888806Y-90151500D01*
X93979294Y-90272150D01*
G37*
G36*
X106478475Y-90694425D02*
G01*
X106503081Y-90769037D01*
X106478475Y-90842856D01*
X106415769Y-90873813D01*
X106350681Y-90842856D01*
X106326869Y-90769037D01*
X106350681Y-90694425D01*
X106415769Y-90662675D01*
X106478475Y-90694425D01*
G37*
G36*
X97232478Y-90990295D02*
G01*
X97214619Y-91066694D01*
X97185250Y-91133567D01*
X97144769Y-91189725D01*
X97093572Y-91234770D01*
X97032056Y-91268306D01*
X96960619Y-91289142D01*
X96879656Y-91296088D01*
X96802662Y-91293309D01*
X96724081Y-91284975D01*
X96651056Y-91272275D01*
X96590731Y-91256400D01*
X96590731Y-91119875D01*
X96785994Y-91119875D01*
X96832825Y-91126225D01*
X96874894Y-91127813D01*
X96943156Y-91114914D01*
X96995544Y-91076219D01*
X97028881Y-91006567D01*
X97039994Y-90900800D01*
X97031461Y-90808328D01*
X97005862Y-90740462D01*
X96962802Y-90698791D01*
X96901881Y-90684900D01*
X96839175Y-90693631D01*
X96785994Y-90715062D01*
X96785994Y-91119875D01*
X96590731Y-91119875D01*
X96590731Y-90210237D01*
X96785994Y-90176900D01*
X96785994Y-90549962D01*
X96865369Y-90523769D01*
X96941569Y-90516625D01*
X97010228Y-90523570D01*
X97070156Y-90544406D01*
X97163025Y-90623781D01*
X97195767Y-90680336D01*
X97219381Y-90746812D01*
X97233669Y-90822219D01*
X97238431Y-90905563D01*
X97232478Y-90990295D01*
G37*
G36*
X104926694Y-91050025D02*
G01*
X104969556Y-91153213D01*
X104926694Y-91259575D01*
X104828269Y-91296088D01*
X104774294Y-91286563D01*
X104729050Y-91258781D01*
X104697300Y-91214331D01*
X104685394Y-91153213D01*
X104697300Y-91093681D01*
X104729050Y-91050025D01*
X104774294Y-91023038D01*
X104828269Y-91013513D01*
X104926694Y-91050025D01*
G37*
G36*
X108138206Y-91116700D02*
G01*
X108333469Y-91116700D01*
X108333469Y-91278625D01*
X107736569Y-91278625D01*
X107736569Y-91116700D01*
X107942944Y-91116700D01*
X107942944Y-90567425D01*
X107841344Y-90623781D01*
X107744506Y-90662675D01*
X107681006Y-90500750D01*
X107763556Y-90464237D01*
X107852456Y-90415025D01*
X107936594Y-90357875D01*
X108004856Y-90295962D01*
X108138206Y-90295962D01*
X108138206Y-91116700D01*
G37*
G36*
X104097225Y-90694425D02*
G01*
X104121831Y-90769037D01*
X104097225Y-90842856D01*
X104034519Y-90873813D01*
X103969431Y-90842856D01*
X103945619Y-90769037D01*
X103969431Y-90694425D01*
X104034519Y-90662675D01*
X104097225Y-90694425D01*
G37*
G36*
X101167494Y-90432487D02*
G01*
X101102009Y-90534087D01*
X101042081Y-90629337D01*
X100986916Y-90719230D01*
X100935719Y-90804756D01*
X100887895Y-90886513D01*
X100842850Y-90965094D01*
X100800186Y-91041492D01*
X100759506Y-91116700D01*
X101181781Y-91116700D01*
X101181781Y-91278625D01*
X100534081Y-91278625D01*
X100534081Y-91165913D01*
X100570197Y-91095864D01*
X100608694Y-91022244D01*
X100650762Y-90944258D01*
X100697594Y-90861113D01*
X100748989Y-90771816D01*
X100804750Y-90675375D01*
X100865670Y-90570997D01*
X100932544Y-90457887D01*
X100554719Y-90457887D01*
X100554719Y-90295962D01*
X101167494Y-90295962D01*
X101167494Y-90432487D01*
G37*
G36*
X99441528Y-90319069D02*
G01*
X99519669Y-90361844D01*
X99576995Y-90424021D01*
X99611391Y-90507894D01*
X99622856Y-90613462D01*
X99611303Y-90720090D01*
X99576642Y-90805021D01*
X99518875Y-90868256D01*
X99439941Y-90911913D01*
X99341781Y-90938106D01*
X99224394Y-90946838D01*
X99154544Y-90946838D01*
X99154544Y-91278625D01*
X98959281Y-91278625D01*
X98959281Y-90776975D01*
X99154544Y-90776975D01*
X99233919Y-90776975D01*
X99316072Y-90767648D01*
X99375206Y-90739669D01*
X99410925Y-90689067D01*
X99422831Y-90611875D01*
X99411123Y-90538652D01*
X99376000Y-90490431D01*
X99321430Y-90463642D01*
X99251381Y-90454712D01*
X99202962Y-90455506D01*
X99154544Y-90459475D01*
X99154544Y-90776975D01*
X98959281Y-90776975D01*
X98959281Y-90308662D01*
X99023575Y-90297550D01*
X99095806Y-90290406D01*
X99167244Y-90286437D01*
X99229156Y-90284850D01*
X99344691Y-90293405D01*
X99441528Y-90319069D01*
G37*
G36*
X100164194Y-91050025D02*
G01*
X100207056Y-91153213D01*
X100164194Y-91259575D01*
X100065769Y-91296088D01*
X100011794Y-91286563D01*
X99966550Y-91258781D01*
X99934800Y-91214331D01*
X99922894Y-91153213D01*
X99934800Y-91093681D01*
X99966550Y-91050025D01*
X100011794Y-91023038D01*
X100065769Y-91013513D01*
X100164194Y-91050025D01*
G37*
G36*
X95231137Y-90215050D02*
G01*
X95317953Y-90286636D01*
X95390680Y-90366259D01*
X95449319Y-90453919D01*
X95494463Y-90547829D01*
X95526709Y-90646205D01*
X95546057Y-90749045D01*
X95552506Y-90856350D01*
X95546255Y-90962613D01*
X95527503Y-91063916D01*
X95496249Y-91160257D01*
X95452494Y-91251638D01*
X95395245Y-91336866D01*
X95323509Y-91414753D01*
X95237288Y-91485298D01*
X95136581Y-91548500D01*
X95046094Y-91427850D01*
X95140374Y-91362498D01*
X95220013Y-91284975D01*
X95285012Y-91195281D01*
X95333078Y-91093769D01*
X95361918Y-90980792D01*
X95371531Y-90856350D01*
X95361565Y-90730408D01*
X95331667Y-90615050D01*
X95281837Y-90510275D01*
X95215074Y-90417494D01*
X95134376Y-90338119D01*
X95039744Y-90272150D01*
X95130231Y-90151500D01*
X95231137Y-90215050D01*
G37*
G36*
X105720444Y-90291200D02*
G01*
X105818869Y-90343587D01*
X105887131Y-90431694D01*
X105912531Y-90554725D01*
X105893481Y-90652356D01*
X105842681Y-90743637D01*
X105771244Y-90829362D01*
X105690281Y-90908738D01*
X105642656Y-90953981D01*
X105591856Y-91007956D01*
X105551375Y-91064313D01*
X105534706Y-91116700D01*
X105956981Y-91116700D01*
X105956981Y-91278625D01*
X105315631Y-91278625D01*
X105311663Y-91238938D01*
X105312456Y-91205600D01*
X105319798Y-91129400D01*
X105341825Y-91059550D01*
X105375163Y-90995455D01*
X105416438Y-90936519D01*
X105463269Y-90882147D01*
X105513275Y-90831744D01*
X105563281Y-90784317D01*
X105610113Y-90738875D01*
X105684725Y-90653150D01*
X105714094Y-90569012D01*
X105677581Y-90476144D01*
X105585506Y-90443600D01*
X105488669Y-90465825D01*
X105388656Y-90540437D01*
X105291819Y-90403912D01*
X105360280Y-90345969D01*
X105438663Y-90305487D01*
X105521808Y-90281675D01*
X105604556Y-90273737D01*
X105720444Y-90291200D01*
G37*
%TO.C,R18*%
X124700000Y-80342000D02*
X124700000Y-80850000D01*
X124500000Y-80346000D02*
X124700000Y-80346000D01*
X124341422Y-81310000D02*
X124858578Y-81310000D01*
X124341422Y-79890000D02*
X124858578Y-79890000D01*
X124500000Y-80850000D02*
X124500000Y-80350000D01*
X124700000Y-80854000D02*
X124500000Y-80854000D01*
D12*
%TO.C,D5*%
X129150000Y-75900000D02*
X127250000Y-75900000D01*
D10*
X127200000Y-75900000D02*
X127200000Y-79950000D01*
X129200000Y-75900000D02*
X129200000Y-79950000D01*
%TD*%
M02*
