M48
; DRILL file {KiCad 5.1.12-84ad8e8a86~92~ubuntu20.04.1} date 2021-11-09T18:46:52 CET
; FORMAT={-:-/ absolute / inch / decimal}
; #@! TF.CreationDate,2021-11-09T18:46:52+01:00
; #@! TF.GenerationSoftware,Kicad,Pcbnew,5.1.12-84ad8e8a86~92~ubuntu20.04.1
; #@! TF.FileFunction,Plated,1,2,PTH
FMAT,2
INCH
T1C0.0118
T2C0.0315
T3C0.0354
T4C0.0394
T5C0.1063
%
G90
G05
T1
X2.7275Y-2.6637
X2.7358Y-2.5301
X2.7365Y-3.5519
X2.7388Y-3.4109
X2.7982Y-2.5977
X2.8078Y-3.4895
X2.8409Y-3.1587
X2.8418Y-2.9155
X2.8691Y-2.5236
X2.8718Y-3.412
X2.8718Y-3.5507
X2.9544Y-3.2726
X3.0236Y-3.1575
X3.0529Y-3.0181
X3.1516Y-3.0
X3.1516Y-3.2244
X3.2267Y-2.5208
X3.2279Y-3.5567
X3.2638Y-2.9567
X3.2687Y-2.628
X3.3075Y-3.1273
X3.311Y-2.9567
X3.3268Y-3.3583
X3.3283Y-2.7685
X3.3352Y-3.2366
X3.3465Y-3.3858
X3.3543Y-3.4646
X3.3622Y-2.8504
X3.3622Y-2.9016
X3.3622Y-2.9567
X3.3622Y-3.0177
X3.3622Y-3.0728
X3.3898Y-3.252
X3.3898Y-3.3465
X3.4134Y-2.9567
X3.4472Y-3.1347
X3.4626Y-2.9567
X3.5108Y-2.6353
X3.5187Y-3.4422
X3.5213Y-3.2305
X3.5256Y-3.3366
X3.5428Y-2.9156
X3.5531Y-2.7712
X3.5531Y-2.9902
X3.5591Y-3.4941
X3.6142Y-2.9843
X3.6168Y-3.3015
X3.6169Y-2.703
X3.6183Y-2.8443
X3.622Y-3.2185
X3.6654Y-3.5827
X3.6673Y-2.7402
X3.6713Y-3.1831
X3.6732Y-2.813
X3.6746Y-3.5169
X3.6752Y-3.437
X3.6772Y-3.2697
X3.7001Y-3.5907
X3.7172Y-3.5252
X3.7264Y-2.937
X3.7264Y-3.2323
X3.7293Y-2.6707
X3.748Y-3.545
X3.7697Y-2.5256
X3.7697Y-2.6083
X3.7815Y-2.9567
X3.8091Y-3.2638
X3.8093Y-3.5793
X3.811Y-3.185
X3.8169Y-3.4173
X3.8403Y-2.6371
X3.8465Y-3.2224
X3.8639Y-2.814
X3.9232Y-2.6654
X3.9744Y-2.7953
X3.9744Y-2.8898
X4.0067Y-3.5469
X4.0453Y-3.2224
X4.0816Y-2.7011
X4.085Y-2.8396
X4.1024Y-3.1831
X4.1122Y-3.2441
X4.143Y-3.5567
X4.1442Y-2.7776
X4.1498Y-2.918
X4.1594Y-2.8504
X4.2205Y-3.0039
X4.2224Y-3.1831
X4.2264Y-3.1398
X4.2283Y-2.9764
X4.2559Y-2.8799
X4.2599Y-2.7483
X4.2992Y-2.8436
X4.311Y-2.9449
X4.3366Y-3.1378
X4.3524Y-3.1988
X4.3667Y-2.9239
X4.4406Y-3.3434
X4.4528Y-3.2323
X4.4533Y-3.3103
X4.4535Y-3.2748
X4.494Y-2.8601
X4.5043Y-2.9511
X4.5096Y-3.1653
X4.5367Y-2.6652
X4.5394Y-2.8874
X4.6709Y-3.041
X4.6976Y-3.1529
X4.7145Y-2.6726
X4.8068Y-3.3071
X4.8104Y-3.2356
X4.8327Y-2.874
X4.8937Y-3.2598
X4.9005Y-2.9469
X4.9308Y-2.7014
X4.937Y-3.3846
X4.9579Y-3.2886
X4.9685Y-3.1437
X5.0299Y-3.4065
X5.0453Y-2.7427
X5.1003Y-2.6624
X5.1508Y-2.882
X5.1854Y-3.3411
X5.2128Y-3.086
X5.3121Y-3.3033
X5.3132Y-2.7487
X5.3213Y-3.0188
X5.3233Y-3.1732
X5.3249Y-2.8764
T2
X3.3563Y-2.5984
X3.3563Y-2.6969
T3
X2.7591Y-2.815
X2.7591Y-3.0689
X2.7591Y-3.3248
X2.8591Y-2.815
X2.8591Y-3.0689
X2.8591Y-3.3248
X3.5878Y-2.5669
X3.6878Y-2.5669
X4.1362Y-2.5669
X4.2362Y-2.5669
X4.3362Y-2.5669
X4.4787Y-2.5669
X4.5787Y-2.5669
X4.6787Y-2.5669
X4.8213Y-2.5669
X4.8409Y-3.5039
X4.9213Y-2.5669
X4.9409Y-3.5039
X5.0213Y-2.5669
X5.0409Y-3.5039
X5.2362Y-2.8134
X5.2362Y-2.9134
X5.2362Y-3.0134
X5.2362Y-3.1783
X5.2362Y-3.2783
T4
X4.3472Y-3.5591
X4.4472Y-3.5591
X4.5472Y-3.5591
X4.5984Y-2.9693
X4.5984Y-3.0693
X4.5984Y-3.1693
X4.5984Y-3.2693
X4.752Y-2.9693
X4.752Y-3.0693
X4.752Y-3.1693
X4.752Y-3.2693
T5
X3.0472Y-2.5787
X3.0472Y-3.4941
X5.2461Y-2.5886
X5.2461Y-3.4941
T4
G00X3.6276Y-3.0682
M15
G01X3.5686Y-3.0682
M16
G05
G00X4.3264Y-3.0682
M15
G01X4.2674Y-3.0682
M16
G05
T0
M30
